<?xml version="1.0" encoding="utf-8"?>
<!-- Generator: Adobe Illustrator 22.0.1, SVG Export Plug-In . SVG Version: 6.00 Build 0)  -->
<svg version="1.1" id="Layer_1" xmlns="http://www.w3.org/2000/svg" xmlns:xlink="http://www.w3.org/1999/xlink" x="0px" y="0px"
	 viewBox="0 0 48 48" style="enable-background:new 0 0 48 48;" xml:space="preserve">
<style type="text/css">
	.st0{fill:#0D1050;}
	.st1{fill:#77D7FD;}
	.st2{fill:#86DDFD;}
	.st3{fill:#9DE9FE;}
	.st4{clip-path:url(#SVGID_2_);fill:#B8ECFE;}
	.st5{fill:#F5ECB5;}
	.st6{fill:#DBD18E;}
</style>
<circle class="st0" cx="24" cy="24" r="24"/>
<path class="st1" d="M39.8,35c-1,1.3-2.8,1.9-5.5,3.4c-4.7,2.6-9.1,2.4-11.9,2.3c-2.5-0.1-6.4-0.3-10.5-2.8c-1.6-0.9-2.8-2-3.6-2.8
	c0.1-1.4,0.2-2.9,0.4-4.3c0.6-2.8,1.1-5.7,1.7-8.5c0-0.3,0-0.8-0.1-1.1c-0.5-1.3-1-3.6-0.6-6.3c0.1-0.7,0.3-1.4,0.5-2
	c0.6-1.9,2.6-2.9,4.5-2.4c0,0,0,0,0,0c1.3,0.4,2.4,1,3.1,1.5c1.9-1,4-1.6,6.4-1.6c2.3,0,4.4,0.6,6.2,1.5c0.8-0.5,1.8-1.1,3-1.5
	c0,0,0,0,0,0c1.9-0.6,3.9,0.5,4.5,2.4c0.2,0.6,0.4,1.2,0.5,2c0.5,2.8-0.1,5.2-0.6,6.5c0.1,0.2,0.1,0.5,0.2,0.7
	c0.1,0.6,0.2,1.1,0.2,1.7C38.8,27.4,39.3,31.6,39.8,35z"/>
<path class="st2" d="M35.7,27.3c0,5.1-3.2,9.2-7.2,9.2c-1.7,0-3.2-0.7-4.5-2c-1.2,1.2-2.8,2-4.5,2c-4,0-7.2-4.1-7.2-9.2
	c0-5.1,3.2-9.2,7.2-9.2c1.7,0,3.2,0.7,4.5,2c1.2-1.2,2.8-2,4.5-2C32.4,18.1,35.7,22.2,35.7,27.3z"/>
<path class="st3" d="M29.8,30.3c-0.3,1.2-0.8,2.8-1.9,4.5c-0.5,0.8-1.1,1.6-1.6,2.2c-0.8,0.2-1.6,0.4-2.3,0.5
	c-0.8-0.2-1.6-0.4-2.3-0.5c-0.5-0.6-1.1-1.3-1.6-2.2c-1-1.7-1.6-3.2-1.9-4.5c0.6-0.4,1.3-0.9,2.3-1.3c0.6-0.2,1.1-0.4,1.6-0.6
	c0,0,0,0,0,0c0.5-0.2,1.1-0.3,1.7-0.3c0,0,0,0,0,0c0,0,0,0,0,0c0,0,0.1,0,0.1,0c0,0,0.1,0,0.1,0c0,0,0,0,0,0c0,0,0,0,0,0
	c0.6,0,1.2,0.1,1.7,0.3c0,0,0,0,0,0c0.5,0.1,1.1,0.3,1.6,0.6C28.5,29.4,29.2,29.9,29.8,30.3z"/>
<g>
	<defs>
		<ellipse id="SVGID_1_" cx="24" cy="28.4" rx="7.2" ry="3.2"/>
	</defs>
	<clipPath id="SVGID_2_">
		<use xlink:href="#SVGID_1_"  style="overflow:visible;"/>
	</clipPath>
	<path class="st4" d="M29.8,30.3c-0.3,1.2-0.8,2.8-1.9,4.5c-0.5,0.8-1.1,1.6-1.6,2.2c-0.8,0.2-1.6,0.4-2.3,0.5
		c-0.8-0.2-1.6-0.4-2.3-0.5c-0.5-0.6-1.1-1.3-1.6-2.2c-1-1.7-1.6-3.2-1.9-4.5c0.6-0.4,1.3-0.9,2.3-1.3c0.6-0.2,1.1-0.4,1.6-0.6
		c0,0,0,0,0,0c0.5-0.2,1.1-0.3,1.7-0.3c0,0,0,0,0,0c0,0,0,0,0,0c0,0,0.1,0,0.1,0c0,0,0.1,0,0.1,0c0,0,0,0,0,0c0,0,0,0,0,0
		c0.6,0,1.2,0.1,1.7,0.3c0,0,0,0,0,0c0.5,0.1,1.1,0.3,1.6,0.6C28.5,29.4,29.2,29.9,29.8,30.3z"/>
</g>
<path class="st3" d="M15.4,13.8c-0.3-0.3-0.8-0.7-1.5-1c0,0,0,0,0,0c-0.8-0.3-1.6,0.2-1.8,1c-0.2,0.7-0.3,1.5-0.1,2.5
	c0.1,0.3,0.2,0.5,0.3,0.8L15.4,13.8z"/>
<path class="st3" d="M32.8,13.8c0.3-0.3,0.8-0.7,1.5-1c0,0,0,0,0,0c0.8-0.3,1.6,0.2,1.8,1c0.2,0.7,0.3,1.5,0.1,2.5
	c-0.1,0.3-0.2,0.5-0.3,0.8L32.8,13.8z"/>
<path class="st5" d="M4.8,21.7C8.7,23.2,16.4,25,24,25.1c8,0.2,15.2-1.7,19.2-3.1c-2.6-1.4-5.6-4.3-8.2-5.7
	c-0.3-1.5-0.8-3.3-1.8-5.2c-0.5-1-1-1.8-1.5-2.5c0,0-4.2-1.3-6.8-1.3c-2.2,0-7.6,1.1-7.6,1.1c-0.6,0.6-1.3,1.4-2,2.4
	c-1.3,2-1.7,3.9-1.9,5.1C11.2,17.3,7,20.3,4.8,21.7z"/>
<path class="st6" d="M31.6,8.6C31.6,8.6,31.6,8.6,31.6,8.6c0,0-4.2-1.3-6.8-1.3c-2,0-6.5,0.9-7.4,1.1c1.8,0.5,4,0.9,6.5,0.9
	C26.8,9.4,29.4,9.1,31.6,8.6z"/>
<path class="st6" d="M18.4,13.6c-0.9-1.7-1.3-3.5-1.3-5c-0.6,0.6-1.2,1.3-1.8,2.2c-1.3,2-1.7,3.9-1.9,5.1c-2.2,1.4-6.4,4.4-8.6,5.7
	c0,0,0,0,0.1,0c2.4-1.1,5.4-2.1,8.8-2.9c3.1-0.7,6-1,8.4-1C21,17.1,19.5,15.8,18.4,13.6z"/>
<circle class="st6" cx="31.4" cy="13.7" r="0.6"/>
<circle class="st6" cx="24" cy="14.2" r="0.6"/>
<path class="st6" d="M24,18.8C24,18.8,24,18.8,24,18.8L24,18.8L24,18.8z"/>
<path class="st6" d="M25.3,18.3C25,17.5,24.4,17,24,17.1c-0.2,0-0.4,0-0.6,0c-0.3,0.1-0.6,0.3-0.9,0.6c-0.3,0.3-0.5,0.6-0.6,0.9
	c0,0.1-0.1,0.3-0.1,0.4c0,0.2,0.1,0.3,0.2,0.5c0.1,0.1,0.3,0.2,0.4,0.2c0.1,0,0.2,0,0.4-0.1c0.3-0.1,0.6-0.3,0.8-0.5
	c0,0,0,0.1,0,0.1c0,0,0,0.1,0,0.1c-0.2,1-0.6,1.6-0.9,1.6c-0.1,0-0.2,0.1-0.2,0.2c0,0.1,0.1,0.2,0.2,0.2c0.4,0,0.8-0.4,1-1
	c0.2,1.1,0.7,1.9,1.2,1.9c0.1,0,0.2-0.1,0.2-0.2c0-0.1-0.1-0.2-0.2-0.2c-0.5,0-1-1-1-2.5c0,0,0,0,0,0h0v0c0.3,0.5,0.7,0.8,1,0.8
	c0.1,0,0.1,0,0.2,0C25.6,19.9,25.7,19.1,25.3,18.3z M23.6,18.7c0,0-0.1,0.1-0.1,0.1c-0.2,0.3-0.5,0.4-0.8,0.5
	c-0.1,0-0.2,0.1-0.3,0.1c-0.1,0-0.2,0-0.2-0.1c-0.1-0.1-0.1-0.3,0-0.5c0.1-0.3,0.3-0.5,0.5-0.8c0.3-0.3,0.5-0.4,0.8-0.5
	c0,0,0.1,0,0.1,0C23.5,17.7,23.5,18.2,23.6,18.7z M23.9,18.2C23.9,18.2,23.9,18.2,23.9,18.2L23.9,18.2c-0.1-0.4-0.1-0.7,0.1-0.8
	c0,0,0,0,0,0C24.1,17.6,24.1,17.9,23.9,18.2z M25,19.8c-0.2,0.1-0.7-0.3-1-1c0,0,0,0,0-0.1c0,0,0,0,0,0c0,0,0,0,0,0
	c0.3-0.4,0.5-0.9,0.4-1.2c0.2,0.1,0.5,0.4,0.7,0.9C25.3,19.1,25.2,19.7,25,19.8z"/>
<path class="st6" d="M23.8,18.7c0,0,0,0.1,0,0.1L23.8,18.7C23.8,18.7,23.8,18.7,23.8,18.7z"/>
<polygon class="st6" points="24,18.8 24,18.8 24,18.8 "/>
</svg>
