<?xml version="1.0" encoding="utf-8"?>
<!-- Generator: Adobe Illustrator 22.0.1, SVG Export Plug-In . SVG Version: 6.00 Build 0)  -->
<svg version="1.1" xmlns="http://www.w3.org/2000/svg" xmlns:xlink="http://www.w3.org/1999/xlink" x="0px" y="0px"
	 viewBox="0 0 192 192" style="enable-background:new 0 0 192 192;" xml:space="preserve">
<style type="text/css">
	.st0{fill:#0D1050;}
	.st1{fill:#77D7FD;}
	.st2{fill:#86DDFD;}
	.st3{fill:#9DE9FE;}
	.st4{clip-path:url(#SVGID_2_);fill:#B8ECFE;}
	.st5{fill:#F5ECB5;}
	.st6{fill:#DBD18E;}
</style>
<g id="Layer_2">
	<circle class="st0" cx="96" cy="96" r="95.5"/>
</g>
<g id="Layer_1">
	<path class="st1" d="M158.7,139.8c-4.2,5-11.3,7.5-21.9,13.4c-18.6,10.2-36.3,9.5-47.2,9.1c-9.8-0.4-25.5-1.2-42-11
		c-6.4-3.8-11.1-7.9-14.3-11c0.5-5.7,1-11.4,1.4-17.2c2.3-11.3,4.5-22.6,6.8-33.9c-0.1-1.2-0.2-3.1-0.3-4.3
		c-1.8-5.2-4-14.3-2.2-25.2c0.5-2.8,1.1-5.4,1.9-7.8c2.4-7.5,10.5-11.7,18-9.4c0.1,0,0.1,0,0.2,0c5.2,1.6,9.4,4,12.5,6.1
		c7.4-4,16-6.5,25.3-6.5c9.3,0,17.5,2.3,24.7,6.1c3-2.1,7.1-4.3,12-5.8c0.1,0,0.1,0,0.2,0c7.5-2.3,15.5,2,18,9.4
		c0.8,2.4,1.4,5,1.9,7.8c1.8,11.3-0.6,20.5-2.4,25.7c0.3,1,0.5,1.9,0.7,2.8c0.3,2.2,0.6,4.5,0.9,6.8
		C154.9,109.4,156.8,126.4,158.7,139.8z"/>
	<path class="st2" d="M142.5,109c0,20.3-12.9,36.7-28.7,36.7c-6.7,0-12.9-2.9-17.7-7.8c-4.9,4.9-11,7.8-17.7,7.8
		c-15.9,0-28.7-16.4-28.7-36.7c0-20.2,12.9-36.7,28.7-36.7c6.7,0,12.9,2.9,17.7,7.8c4.9-4.9,11-7.8,17.7-7.8
		C129.6,72.3,142.5,88.8,142.5,109z"/>
	<path class="st3" d="M119.1,121.1c-1.2,4.9-3.3,11.1-7.4,17.8c-2.1,3.4-4.3,6.2-6.3,8.7c-3.1,0.7-6.2,1.4-9.3,2.2
		c-3.1-0.7-6.2-1.4-9.3-2.2c-2.1-2.4-4.3-5.3-6.3-8.7c-4.1-6.6-6.2-12.9-7.4-17.8c2.3-1.6,5.3-3.5,9.1-5.1c2.3-0.9,4.5-1.7,6.5-2.2
		c0,0,0,0,0.1,0c2.1-0.8,4.4-1.3,6.8-1.3c0,0,0,0,0.1,0c0,0,0,0,0,0c0.1,0,0.3,0,0.4,0c0.1,0,0.3,0,0.4,0c0,0,0,0,0,0c0,0,0,0,0.1,0
		c2.4,0.1,4.7,0.5,6.8,1.3c0,0,0,0,0.1,0c2,0.5,4.2,1.3,6.5,2.2C113.7,117.6,116.8,119.4,119.1,121.1z"/>
	<g>
		<defs>
			<ellipse id="SVGID_1_" cx="96" cy="113.4" rx="28.6" ry="12.9"/>
		</defs>
		<clipPath id="SVGID_2_">
			<use xlink:href="#SVGID_1_"  style="overflow:visible;"/>
		</clipPath>
		<path class="st4" d="M119.1,121.1c-1.2,4.9-3.3,11.1-7.4,17.8c-2.1,3.4-4.3,6.2-6.3,8.7c-3.1,0.7-6.2,1.4-9.3,2.2
			c-3.1-0.7-6.2-1.4-9.3-2.2c-2.1-2.4-4.3-5.3-6.3-8.7c-4.1-6.6-6.2-12.9-7.4-17.8c2.3-1.6,5.3-3.5,9.1-5.1c2.3-0.9,4.5-1.7,6.5-2.2
			c0,0,0,0,0.1,0c2.1-0.8,4.4-1.3,6.8-1.3c0,0,0,0,0.1,0c0,0,0,0,0,0c0.1,0,0.3,0,0.4,0c0.1,0,0.3,0,0.4,0c0,0,0,0,0,0
			c0,0,0,0,0.1,0c2.4,0.1,4.7,0.5,6.8,1.3c0,0,0,0,0.1,0c2,0.5,4.2,1.3,6.5,2.2C113.7,117.6,116.8,119.4,119.1,121.1z"/>
	</g>
	<path class="st3" d="M61.8,55.6c-1-1.1-3-2.9-6-4c0,0,0,0-0.1,0c-3.1-1.1-6.5,0.7-7.3,3.8c-0.7,2.7-1.1,6.1-0.2,9.8
		c0.3,1.1,0.6,2.1,1,3L61.8,55.6z"/>
	<path class="st3" d="M131,55.6c1-1.1,3-2.9,6-4c0,0,0,0,0.1,0c3.1-1.1,6.5,0.7,7.3,3.8c0.7,2.7,1.1,6.1,0.2,9.8
		c-0.3,1.1-0.6,2.1-1,3L131,55.6z"/>
</g>
<g id="Layer_3">
	<path class="st5" d="M19.5,86.9c15.5,5.8,46.5,13,76.5,13.6c32,0.7,60.4-6.8,76.5-12.4c-10.2-5.5-22.4-17.1-32.7-22.5
		c-1.2-5.8-3.4-13-7.3-20.7c-2-3.8-4.1-7.2-6.1-10c0,0-16.8-5.1-26.9-5.3C90.6,29.4,69.3,34,69.3,34c-2.5,2.3-5.3,5.5-7.9,9.6
		c-5,7.9-6.8,15.6-7.5,20.4C44.9,69.5,28.4,81.4,19.5,86.9z"/>
	<path class="st6" d="M126.4,34.9C126.4,34.9,126.4,34.9,126.4,34.9c0,0-16.8-5.1-26.9-5.3c-8-0.1-26,3.5-29.6,4.3
		c7.2,1.9,15.9,3.4,25.8,3.8C107.3,38.1,117.6,36.8,126.4,34.9z"/>
	<path class="st6" d="M73.6,54.8c-3.6-6.9-5-13.8-5.3-19.8c-2.2,2.2-4.7,5.1-7,8.7c-5,7.9-6.8,15.6-7.5,20.4
		c-8.9,5.4-25.4,17.4-34.3,22.8c0.1,0,0.2,0.1,0.3,0.1c9.6-4.2,21.4-8.4,35.1-11.4c12.5-2.7,23.8-3.8,33.4-4.2
		C84.3,68.6,78.1,63.3,73.6,54.8z"/>
	<circle class="st6" cx="125.5" cy="55" r="2.6"/>
	<circle class="st6" cx="96" cy="57.1" r="2.6"/>
	<path class="st6" d="M96,75.4C96,75.4,96,75.4,96,75.4L96,75.4L96,75.4z"/>
	<path class="st6" d="M101.3,73.2c-1.3-3.1-3.5-5-5.3-4.6c-0.6-0.2-1.4-0.1-2.3,0.2c-1.2,0.4-2.5,1.3-3.6,2.4
		c-1.1,1.1-2,2.5-2.4,3.7c-0.2,0.5-0.3,1-0.3,1.4c0,0.7,0.2,1.4,0.7,1.8c0.4,0.4,1,0.6,1.7,0.6c0.5,0,1-0.1,1.5-0.3
		c1.1-0.4,2.2-1.1,3.3-2.1c0,0.1,0,0.3-0.1,0.4c0,0.2-0.1,0.4-0.1,0.5c-0.6,3.9-2.2,6.4-3.7,6.4c-0.4,0-0.6,0.3-0.6,0.6
		c0,0.3,0.3,0.6,0.6,0.6c1.6,0,3-1.5,4-4c0.7,4.5,2.6,7.6,4.9,7.6c0.3,0,0.6-0.3,0.6-0.6c0-0.4-0.3-0.6-0.6-0.6c-1.8,0-3.9-4.1-4-10
		c0,0,0,0,0,0h0v0c1.1,1.8,2.7,3,4,3c0.3,0,0.5-0.1,0.8-0.2C102.3,79.6,102.6,76.5,101.3,73.2z M94.5,74.8c-0.1,0.2-0.3,0.3-0.4,0.4
		c-1,1-2.1,1.8-3.1,2.1c-0.4,0.1-0.8,0.2-1.1,0.2c-0.4,0-0.7-0.1-0.9-0.3c-0.4-0.4-0.4-1.1-0.1-1.9c0.3-1,1.1-2.2,2.1-3.2
		c1-1,2.1-1.8,3.2-2.1c0.1-0.1,0.3-0.1,0.4-0.1C93.9,71,93.9,72.8,94.5,74.8z M95.7,73.1c-0.1,0-0.2-0.1-0.3-0.1h0
		c-0.2-1.5,0.1-2.6,0.6-3c0,0,0.1,0,0.1,0.1C96.5,70.5,96.4,71.7,95.7,73.1z M100,79.2c-1,0.4-2.8-1.1-4-3.8c0-0.1-0.1-0.1-0.1-0.2
		c0-0.1-0.1-0.1-0.1-0.2c0,0,0.1-0.1,0.1-0.1c1.3-1.7,1.8-3.5,1.5-4.7c0.9,0.6,1.9,1.8,2.6,3.5C101.2,76.4,101,78.8,100,79.2z"/>
	<path class="st6" d="M95.1,74.9c0,0.1,0,0.3-0.1,0.4v-0.2C95,75.1,95.1,75,95.1,74.9z"/>
	<path class="st6" d="M96,75.4L96,75.4C96,75.4,96,75.4,96,75.4L96,75.4z"/>
</g>
</svg>
