<?xml version="1.0" encoding="utf-8"?>
<!-- Generator: Adobe Illustrator 22.0.1, SVG Export Plug-In . SVG Version: 6.00 Build 0)  -->
<svg version="1.1" id="Layer_1" xmlns="http://www.w3.org/2000/svg" xmlns:xlink="http://www.w3.org/1999/xlink" x="0px" y="0px"
	 viewBox="0 0 96 96" style="enable-background:new 0 0 96 96;" xml:space="preserve">
<style type="text/css">
	.st0{fill:#0D1050;}
	.st1{fill:#77D7FD;}
	.st2{fill:#86DDFD;}
	.st3{fill:#9DE9FE;}
	.st4{clip-path:url(#SVGID_2_);fill:#B8ECFE;}
	.st5{fill:#F5ECB5;}
	.st6{fill:#DBD18E;}
</style>
<circle class="st0" cx="48" cy="48" r="48"/>
<path class="st1" d="M79.5,70c-2.1,2.5-5.7,3.8-11,6.7c-9.4,5.1-18.3,4.8-23.7,4.6c-4.9-0.2-12.8-0.6-21.1-5.5
	c-3.2-1.9-5.6-3.9-7.2-5.5c0.2-2.9,0.5-5.8,0.7-8.6c1.1-5.7,2.3-11.4,3.4-17c0-0.6-0.1-1.5-0.1-2.2c-0.9-2.6-2-7.2-1.1-12.7
	c0.2-1.4,0.6-2.7,0.9-3.9c1.2-3.8,5.3-5.9,9-4.7c0,0,0.1,0,0.1,0c2.6,0.8,4.7,2,6.3,3.1c3.7-2,8-3.3,12.7-3.3
	c4.6,0,8.8,1.2,12.4,3.1c1.5-1,3.5-2.2,6-2.9c0,0,0.1,0,0.1,0c3.8-1.1,7.8,1,9,4.7c0.4,1.2,0.7,2.5,0.9,3.9
	c0.9,5.7-0.3,10.3-1.2,12.9c0.1,0.5,0.3,1,0.4,1.4c0.2,1.1,0.3,2.3,0.5,3.4C77.6,54.8,78.5,63.3,79.5,70z"/>
<path class="st2" d="M71.4,54.5c0,10.2-6.5,18.4-14.4,18.4c-3.4,0-6.5-1.5-8.9-3.9c-2.5,2.5-5.5,3.9-8.9,3.9
	c-8,0-14.4-8.3-14.4-18.4c0-10.2,6.5-18.4,14.4-18.4c3.4,0,6.5,1.5,8.9,3.9c2.5-2.5,5.5-3.9,8.9-3.9C64.9,36.1,71.4,44.4,71.4,54.5z
	"/>
<path class="st3" d="M59.6,60.6c-0.6,2.5-1.7,5.6-3.7,8.9c-1,1.7-2.1,3.1-3.2,4.4c-1.6,0.4-3.1,0.7-4.7,1.1
	c-1.6-0.4-3.1-0.7-4.7-1.1c-1.1-1.2-2.2-2.7-3.2-4.4c-2-3.3-3.1-6.5-3.7-8.9c1.1-0.8,2.7-1.7,4.6-2.5c1.1-0.5,2.2-0.8,3.3-1.1
	c0,0,0,0,0,0c1.1-0.4,2.2-0.6,3.4-0.7c0,0,0,0,0,0c0,0,0,0,0,0c0.1,0,0.1,0,0.2,0c0.1,0,0.1,0,0.2,0c0,0,0,0,0,0c0,0,0,0,0,0
	c1.2,0,2.4,0.3,3.4,0.7c0,0,0,0,0,0c1,0.3,2.1,0.6,3.3,1.1C56.9,58.9,58.4,59.8,59.6,60.6z"/>
<g>
	<defs>
		<ellipse id="SVGID_1_" cx="48" cy="56.7" rx="14.4" ry="6.5"/>
	</defs>
	<clipPath id="SVGID_2_">
		<use xlink:href="#SVGID_1_"  style="overflow:visible;"/>
	</clipPath>
	<path class="st4" d="M59.6,60.6c-0.6,2.5-1.7,5.6-3.7,8.9c-1,1.7-2.1,3.1-3.2,4.4c-1.6,0.4-3.1,0.7-4.7,1.1
		c-1.6-0.4-3.1-0.7-4.7-1.1c-1.1-1.2-2.2-2.7-3.2-4.4c-2-3.3-3.1-6.5-3.7-8.9c1.1-0.8,2.7-1.7,4.6-2.5c1.1-0.5,2.2-0.8,3.3-1.1
		c0,0,0,0,0,0c1.1-0.4,2.2-0.6,3.4-0.7c0,0,0,0,0,0c0,0,0,0,0,0c0.1,0,0.1,0,0.2,0c0.1,0,0.1,0,0.2,0c0,0,0,0,0,0c0,0,0,0,0,0
		c1.2,0,2.4,0.3,3.4,0.7c0,0,0,0,0,0c1,0.3,2.1,0.6,3.3,1.1C56.9,58.9,58.4,59.8,59.6,60.6z"/>
</g>
<path class="st3" d="M30.8,27.7c-0.5-0.5-1.5-1.5-3-2c0,0,0,0,0,0c-1.5-0.6-3.2,0.3-3.7,1.9c-0.4,1.4-0.5,3.1-0.1,4.9
	c0.1,0.6,0.3,1.1,0.5,1.5L30.8,27.7z"/>
<path class="st3" d="M65.6,27.7c0.5-0.5,1.5-1.5,3-2c0,0,0,0,0,0c1.5-0.6,3.2,0.3,3.7,1.9c0.4,1.4,0.5,3.1,0.1,4.9
	c-0.1,0.6-0.3,1.1-0.5,1.5L65.6,27.7z"/>
<path class="st5" d="M9.5,43.4c7.8,2.9,23.3,6.5,38.5,6.8c16.1,0.3,30.4-3.4,38.4-6.2c-5.1-2.7-11.3-8.6-16.4-11.3
	c-0.6-2.9-1.7-6.5-3.7-10.4c-1-1.9-2.1-3.6-3.1-5c0,0-8.4-2.6-13.5-2.7c-4.5-0.1-15.2,2.2-15.2,2.2c-1.2,1.2-2.7,2.8-4,4.8
	c-2.5,4-3.4,7.8-3.8,10.3C22.3,34.7,14,40.7,9.5,43.4z"/>
<path class="st6" d="M63.3,17.3C63.3,17.3,63.3,17.3,63.3,17.3c0,0-8.4-2.6-13.5-2.7c-4-0.1-13,1.8-14.9,2.2c3.6,0.9,8,1.7,13,1.9
	C53.7,18.9,58.9,18.2,63.3,17.3z"/>
<path class="st6" d="M36.8,27.3c-1.8-3.5-2.5-6.9-2.7-10c-1.1,1.1-2.4,2.6-3.5,4.4c-2.5,4-3.4,7.8-3.8,10.3
	C22.3,34.7,14,40.7,9.5,43.4c0,0,0.1,0,0.1,0c4.8-2.1,10.8-4.2,17.6-5.7c6.3-1.4,12-1.9,16.8-2.1C42.1,34.2,39,31.6,36.8,27.3z"/>
<circle class="st6" cx="62.8" cy="27.4" r="1.3"/>
<circle class="st6" cx="48" cy="28.5" r="1.3"/>
<path class="st6" d="M48,37.6C48,37.6,48,37.6,48,37.6L48,37.6L48,37.6z"/>
<path class="st6" d="M50.7,36.6C50,35,48.9,34,48,34.2c-0.3-0.1-0.7-0.1-1.2,0.1c-0.6,0.2-1.3,0.6-1.8,1.2c-0.6,0.6-1,1.2-1.2,1.9
	c-0.1,0.3-0.1,0.5-0.1,0.7c0,0.4,0.1,0.7,0.3,0.9c0.2,0.2,0.5,0.3,0.9,0.3c0.2,0,0.5,0,0.8-0.1c0.5-0.2,1.1-0.6,1.6-1
	c0,0.1,0,0.1,0,0.2c0,0.1,0,0.2,0,0.3c-0.3,2-1.1,3.2-1.8,3.2c-0.2,0-0.3,0.1-0.3,0.3c0,0.2,0.1,0.3,0.3,0.3c0.8,0,1.5-0.8,2-2
	c0.4,2.2,1.3,3.8,2.5,3.8c0.2,0,0.3-0.1,0.3-0.3c0-0.2-0.1-0.3-0.3-0.3c-0.9,0-2-2-2-5c0,0,0,0,0,0h0v0c0.6,0.9,1.3,1.5,2,1.5
	c0.1,0,0.3,0,0.4-0.1C51.2,39.8,51.3,38.2,50.7,36.6z M47.2,37.3c-0.1,0.1-0.1,0.1-0.2,0.2c-0.5,0.5-1.1,0.9-1.6,1.1
	c-0.2,0.1-0.4,0.1-0.6,0.1c-0.2,0-0.3-0.1-0.4-0.1c-0.2-0.2-0.2-0.5-0.1-1c0.2-0.5,0.5-1.1,1-1.6c0.5-0.5,1.1-0.9,1.6-1.1
	c0.1,0,0.1,0,0.2-0.1C46.9,35.4,46.9,36.4,47.2,37.3z M47.8,36.5c0,0-0.1,0-0.1,0h0c-0.1-0.7,0-1.3,0.3-1.5c0,0,0,0,0,0
	C48.3,35.2,48.2,35.8,47.8,36.5z M50,39.6c-0.5,0.2-1.4-0.5-2-1.9c0,0,0-0.1,0-0.1c0,0,0-0.1,0-0.1c0,0,0,0,0-0.1
	c0.6-0.9,0.9-1.7,0.7-2.4c0.5,0.3,1,0.9,1.3,1.8C50.6,38.2,50.5,39.4,50,39.6z"/>
<path class="st6" d="M47.5,37.4c0,0.1,0,0.1,0,0.2v-0.1C47.5,37.5,47.5,37.4,47.5,37.4z"/>
<path class="st6" d="M48,37.6L48,37.6C48,37.6,48,37.6,48,37.6L48,37.6z"/>
</svg>
