<?xml version="1.0" encoding="utf-8"?>
<!-- Generator: Adobe Illustrator 22.0.1, SVG Export Plug-In . SVG Version: 6.00 Build 0)  -->
<svg version="1.1" xmlns="http://www.w3.org/2000/svg" xmlns:xlink="http://www.w3.org/1999/xlink" x="0px" y="0px"
	 viewBox="0 0 1440 767" style="enable-background:new 0 0 1440 767;" xml:space="preserve">
<style type="text/css">
	.st0{fill:url(#SVGID_1_);}
	.st1{fill:url(#SVGID_2_);}
	.st2{fill:#533E87;}
	.st3{fill:#7D5BBD;}
	.st4{fill:#432F73;}
	.st5{fill:#392261;}
	.st6{fill:#0D1050;}
	.st7{fill:#CCCCCC;}
	.st8{opacity:0.26;fill:#D1C7E0;}
	.st9{opacity:0.37;fill:#D1C7E0;}
	.st10{fill:#D1C7E0;}
	.st11{display:none;}
	.st12{display:inline;fill:url(#SVGID_3_);}
	.st13{display:inline;fill:#E68173;}
	.st14{display:inline;fill:#EBA299;}
	.st15{display:inline;}
	.st16{display:inline;fill:url(#SVGID_4_);}
	.st17{display:inline;fill:#AA4F8E;}
	.st18{display:inline;fill:#C76FB2;}
	.st19{display:inline;fill:#963674;}
	.st20{display:inline;fill:#812760;}
	.st21{display:inline;fill:#731A50;}
	.st22{display:inline;opacity:0.31;fill:#F0D8D5;}
	.st23{display:inline;opacity:0.57;fill:#F0D8D5;}
	.st24{display:inline;fill:#F0D8D5;}
	.st25{display:inline;fill:#CCCCCC;}
	.st26{display:inline;fill:#D1C7E0;}
	.st27{display:inline;fill:#0D1050;}
</style>
<g id="Layer_5">
	<linearGradient id="SVGID_1_" gradientUnits="userSpaceOnUse" x1="720.1921" y1="769" x2="720.1921" y2="1.215716e-02">
		<stop  offset="0.5234" style="stop-color:#343678"/>
		<stop  offset="1" style="stop-color:#0D1050"/>
	</linearGradient>
	<rect x="0.4" y="0" class="st0" width="1439.6" height="769"/>
</g>
<g id="Layer_3">
	<linearGradient id="SVGID_2_" gradientUnits="userSpaceOnUse" x1="692.3866" y1="1131.8384" x2="692.3866" y2="410.1617">
		<stop  offset="0" style="stop-color:#533E87"/>
		<stop  offset="0.1803" style="stop-color:#57428C"/>
		<stop  offset="0.3901" style="stop-color:#644C9A"/>
		<stop  offset="0.6146" style="stop-color:#785DB1"/>
		<stop  offset="0.848" style="stop-color:#9575D2"/>
		<stop  offset="1" style="stop-color:#AB88EB"/>
	</linearGradient>
	<rect x="-161.4" y="410.2" class="st1" width="1707.7" height="721.7"/>
</g>
<g id="Layer_1">
	<polygon class="st2" points="160.1,254.3 149.1,312 171.1,312 	"/>
	<polygon class="st2" points="11.4,225.4 0.4,283.2 22.4,283.2 	"/>
	<polygon class="st3" points="74.3,216.6 -243.4,476.1 392,476.1 	"/>
	<polygon class="st3" points="268.5,341.8 104,476.1 433,476.1 	"/>
	<polygon class="st3" points="351,368.3 134.3,470.1 454,509.7 532.6,453.6 	"/>
	<polygon class="st4" points="52.1,395.3 63.1,453.1 41.1,453.1 	"/>
	<polygon class="st4" points="209,395.3 198,453.1 220,453.1 	"/>
	<polygon class="st2" points="311.8,408.9 128.4,617.8 604.2,665.5 771.2,638.8 	"/>
	<polygon class="st2" points="128.1,379.5 484.9,665.5 287,727.2 -118.7,744.2 -305.3,665.5 	"/>
	<polygon class="st5" points="220,647.3 209,705 231,705 	"/>
	<polygon class="st4" points="492.4,609.8 -161.4,771.3 371.9,955.9 687.1,748.5 	"/>
	<polygon class="st5" points="652.4,636.6 641.4,694.4 663.4,694.4 	"/>
	<polygon class="st4" points="565.6,641.4 301,751.1 656.9,759.5 747.2,726.7 	"/>
	<path class="st6" d="M252.9,704.8l-325.3-23.4l-37.6,297.5l578.5,78.3l302.7-71.4l-244-212.1C444.1,735.6,349.2,711.8,252.9,704.8z
		"/>
	<polygon class="st3" points="400.7,322.7 385.4,407.5 415.9,407.5 	"/>
	<polygon class="st3" points="379.1,356.1 368.1,413.9 390.1,413.9 	"/>
	<polygon class="st3" points="128.4,225.4 117.4,283.2 139.4,283.2 	"/>
	<polygon class="st2" points="438.8,435.8 427.8,493.5 449.8,493.5 	"/>
	<polygon class="st2" points="73.6,361.9 88.8,446.8 58.4,446.8 	"/>
	<polygon class="st4" points="392,589.5 381,647.3 403,647.3 	"/>
	<path class="st6" d="M113.2,604.6c-9.1-9.1-17-17.1-25.2-25.3l15.5,62.2H92.6c-2.1,14.2-4.2,28.5-6.3,42.7
		c1.4,4.1,2.9,8.2,4.3,12.3c-4.9-1.1-9.8-2.1-14.7-3.2c-0.5-17.3-0.9-34.6-1.4-51.9h-8.5c-3.9,14.3-7.8,28.7-11.6,43
		c1,4.2,1.9,8.5,2.9,12.7c-4.7-1.6-9.5-3.2-14.2-4.8c1.5-17,3-34,4.6-50.9h-13l14.7-58.8c-7.2,6.9-14.2,13.8-22.2,21.5
		c0,0-15-2.7-12.8-3.2c3.4-1.8,6.8-3.7,10.1-5.5c9.6-12.5,19.2-25,28.8-37.4c-12-3.3-25.8-10.5-31.1-13.8c0.8-5.8,8.6-7.9,9.4-13.6
		c1.3-8.2,2.8-16.1,4.8-22.4c3.9-15.6,18.8-26.9,36-25.3c14.3,1.4,26.1,12,29.3,25.7h0c0,0,0,0,0,0.1c0.5,3.9,0.7,7.2,0.8,10.1
		c0.1,7-0.5,12.2,1.4,18.5c2.3,8,7.5,13.2,7.5,13.2c-4,1.3-14.3,4.8-25.8,7.1c9.9,12.9,19.7,25.9,29.5,38.8c3.3,1.9,6.5,3.9,9.8,5.9
		C127.1,602.8,113.2,604.6,113.2,604.6z"/>
	<path class="st6" d="M102.7,518.7c-0.1-3-0.2-6.3-0.8-10.1c0.3,1.4,0.5,2.8,0.7,4.2C102.8,514.8,102.8,516.8,102.7,518.7z"/>
	<path class="st6" d="M56.7,553.6l-1.2,4.8c-0.7-0.2-1.4-0.3-2.1-0.5C54.5,556.4,55.6,555,56.7,553.6z"/>
	<path class="st6" d="M56.7,553.6l-1.2,4.8c-0.7-0.2-1.4-0.3-2.1-0.5C54.5,556.4,55.6,555,56.7,553.6z"/>
</g>
<g id="Layer_2">
	<polygon class="st2" points="1100.3,371.2 1089.2,428.9 1111.3,428.9 	"/>
	<polygon class="st2" points="1233,328.7 1222,386.5 1244,386.5 	"/>
	<path class="st3" d="M775.3,409.4c-34.6,7.5-69.2,15-103.9,22.5c-19.2,20.6-38.4,41.2-57.5,61.8c17.3,8.4,34.6,16.8,51.9,25.3
		c6.6,5.1,13.1,10.3,19.7,15.4c62.7,3.3,125.4,6.6,188.1,9.8c9.4,12.2,18.7,24.3,28.1,36.5c95.4,8.9,472.4,21.1,567.9,30
		c90.8-88.9,44.3-170.9-9.2-270c-4.2-12.2-8.4-24.3-12.6-36.5c-87.2,31.3-194.8,62.4-320,82.8C992.7,408.9,872.8,412.7,775.3,409.4z
		"/>
	<path class="st2" d="M1233.5,526.5l239.3-4.6l-7.1,150l-373.6-15.8l-93.6-21.6l114.6-72C1149.2,539.8,1190.8,527.4,1233.5,526.5z"
		/>
	<path class="st4" d="M1336.9,614.3l209.7-4l-7.1,150l-341.3,33.2l-147.2-70.1l110.8-56.7C1214.2,633.6,1274.8,615.5,1336.9,614.3z"
		/>
	<path class="st6" d="M1274,720.4l207.4-31.2l50.7,203.6L1159.6,916l-164.6-21.7L1107,795C1154.9,755.5,1212.6,729.7,1274,720.4z"/>
	<polygon class="st3" points="1039.9,360 1028.9,417.8 1050.9,417.8 	"/>
	<polygon class="st3" points="1211.5,295.3 1196.3,380.1 1226.7,380.1 	"/>
	<polygon class="st3" points="1355.1,283.2 1344.1,340.9 1366.1,340.9 	"/>
	<polygon class="st2" points="1157.7,505.7 1146.7,563.5 1168.7,563.5 	"/>
	<polygon class="st2" points="1333.1,476.8 1322.1,534.6 1344.1,534.6 	"/>
	<polygon class="st4" points="1322.1,556.3 1306.8,641.1 1337.3,641.1 	"/>
	<polygon class="st7" points="1378.9,590.3 1367.9,648 1389.9,648 	"/>
	<polygon class="st4" points="1135.7,637.3 1124.7,695.1 1146.7,695.1 	"/>
	<polygon class="st6" points="1388.4,342.3 1466.6,777.8 1310.2,777.8 	"/>
	<polygon class="st6" points="1278.1,513.8 1334.6,810.4 1221.5,810.4 	"/>
</g>
<g id="Layer_4">
	<circle class="st8" cx="1251.5" cy="203.6" r="64.3"/>
	<circle class="st9" cx="1251.5" cy="203.6" r="52.3"/>
	<circle class="st10" cx="1251.5" cy="203.6" r="41.3"/>
</g>
<g id="Layer_9" class="st11">
	<linearGradient id="SVGID_3_" gradientUnits="userSpaceOnUse" x1="720" y1="767.3685" x2="720" y2="-9.094947e-13">
		<stop  offset="0" style="stop-color:#EBA299"/>
		<stop  offset="0.3498" style="stop-color:#EA9A90"/>
		<stop  offset="0.9295" style="stop-color:#E68476"/>
		<stop  offset="0.9944" style="stop-color:#E68173"/>
	</linearGradient>
	<rect class="st12" width="1440" height="767.4"/>
	<rect x="1640" y="706.1" class="st13" width="72" height="72"/>
	<rect x="1640" y="778.2" class="st14" width="72" height="72"/>
	
		<text transform="matrix(1 0 0 1 1722.4355 744.2126)" class="st15" style="font-family:'MyriadPro-Regular'; font-size:31.9376px;">e68173</text>
	
		<text transform="matrix(1 0 0 1 1731.8345 828.6536)" class="st15" style="font-family:'MyriadPro-Regular'; font-size:37.4488px;">eba299</text>
</g>
<g id="Layer_6" class="st11">
	<linearGradient id="SVGID_4_" gradientUnits="userSpaceOnUse" x1="692.3866" y1="1130.9749" x2="692.3866" y2="409.7357">
		<stop  offset="0" style="stop-color:#944073"/>
		<stop  offset="0.2209" style="stop-color:#9F4E81"/>
		<stop  offset="0.6353" style="stop-color:#BB72A4"/>
		<stop  offset="1" style="stop-color:#D897C8"/>
	</linearGradient>
	<rect x="-160.9" y="409.7" class="st16" width="1706.6" height="721.2"/>
</g>
<g id="Layer_8" class="st11">
	<polygon class="st17" points="160.2,254.2 149.2,311.9 171.2,311.9 	"/>
	<polygon class="st17" points="11.6,225.4 0.6,283.1 22.6,283.1 	"/>
	<polygon class="st18" points="74.5,216.6 -243,475.9 392,475.9 	"/>
	<polygon class="st18" points="268.5,341.6 104.2,475.9 432.9,475.9 	"/>
	<polygon class="st18" points="351,368.2 134.4,469.9 453.9,509.5 532.5,453.4 	"/>
	<polygon class="st19" points="52.3,395.2 63.3,452.9 41.3,452.9 	"/>
	<polygon class="st19" points="209.1,395.2 198.1,452.9 220.1,452.9 	"/>
	<polygon class="st17" points="311.9,408.8 128.5,617.5 604,665.2 771,638.5 	"/>
	<polygon class="st17" points="128.3,379.4 484.8,665.2 287,726.9 -118.4,743.8 -304.9,665.2 	"/>
	<polygon class="st20" points="220.1,647 209.1,704.7 231.1,704.7 	"/>
	<polygon class="st19" points="492.3,609.6 -161.1,770.9 371.9,955.4 686.9,748.2 	"/>
	<polygon class="st20" points="652.2,636.3 641.2,694 663.2,694 	"/>
	<polygon class="st19" points="565.5,641.1 301,750.7 656.7,759.2 747,726.4 	"/>
	<path class="st21" d="M253,703.3l-325.1-23.4l-37.5,297.4l578.1,78.2L771,984.2l-243.8-212C444,734.1,349.2,710.2,253,703.3z"/>
	<polygon class="st18" points="400.6,322.6 385.4,407.4 415.8,407.4 	"/>
	<polygon class="st18" points="379.1,356 368.1,413.7 390.1,413.7 	"/>
	<polygon class="st18" points="128.5,225.4 117.5,283.1 139.5,283.1 	"/>
	<polygon class="st17" points="438.7,435.6 427.7,493.3 449.7,493.3 	"/>
	<polygon class="st17" points="73.8,361.8 89,446.6 58.6,446.6 	"/>
	<polygon class="st19" points="392,589.3 381,647 403,647 	"/>
	<circle class="st22" cx="234.9" cy="203.6" r="63.7"/>
	<circle class="st23" cx="234.9" cy="203.6" r="51.8"/>
	<circle class="st24" cx="234.9" cy="203.6" r="40.9"/>
	<path class="st21" d="M110.7,603.9c-9.1-9.1-17-17.1-25.2-25.3l15.5,62.2H90.1c-2.1,14.2-4.2,28.5-6.3,42.7
		c1.4,4.1,2.9,8.2,4.3,12.3c-4.9-1.1-9.8-2.1-14.7-3.2c-0.5-17.3-0.9-34.6-1.4-51.9h-8.5c-3.9,14.3-7.8,28.7-11.6,43
		c1,4.2,1.9,8.5,2.9,12.7c-4.7-1.6-9.5-3.2-14.2-4.8c1.5-17,3-34,4.6-50.9h-13L47,581.9c-7.2,6.9-14.2,13.8-22.2,21.5
		c0,0-15-2.7-12.8-3.2c3.4-1.8,6.8-3.7,10.1-5.5c9.6-12.5,19.2-25,28.8-37.4c-12-3.3-25.8-10.5-31.1-13.8c0.8-5.8,8.6-7.9,9.4-13.6
		c1.3-8.2,2.8-16.1,4.8-22.4c3.9-15.6,18.8-26.9,36-25.3c14.3,1.4,26.1,12,29.3,25.7h0c0,0,0,0,0,0.1c0.5,3.9,0.7,7.1,0.8,10.1
		c0.1,7-0.5,12.2,1.4,18.5c2.3,8,7.5,13.2,7.5,13.2c-4,1.3-14.3,4.8-25.8,7.1c9.9,12.9,19.7,25.9,29.5,38.8c3.3,1.9,6.5,3.9,9.8,5.9
		C124.6,602.1,110.7,603.9,110.7,603.9z"/>
</g>
<g id="Layer_7" class="st11">
	<polygon class="st17" points="1099.9,371.2 1088.9,428.9 1110.9,428.9 	"/>
	<polygon class="st17" points="1232.6,328.8 1221.6,386.5 1243.6,386.5 	"/>
	<path class="st18" d="M775.1,409.4c-34.6,7.5-69.2,15-103.8,22.4c-19.2,20.6-38.3,41.1-57.5,61.7c17.3,8.4,34.6,16.8,51.9,25.3
		c6.5,5.1,13.1,10.3,19.6,15.4c62.7,3.3,125.3,6.5,188,9.8c9.4,12.2,18.7,24.3,28.1,36.5c95.4,8.9,472.1,21.1,567.5,30
		c90.7-88.8,44.3-170.8-9.2-269.9c-4.2-12.2-8.4-24.3-12.6-36.5c-87.1,31.3-194.7,62.4-319.8,82.8
		C992.4,408.9,872.6,412.7,775.1,409.4z"/>
	<path class="st17" d="M1233.1,526.5l239.1-4.6l-7.1,149.9L1091.7,656l-93.6-21.6l114.5-71.9
		C1148.8,539.8,1190.5,527.3,1233.1,526.5z"/>
	<path class="st19" d="M1336.4,614.2l209.5-4l-7.1,149.9l-341.1,33.1l-147.1-70.1l110.7-56.6
		C1213.8,633.5,1274.3,615.4,1336.4,614.2z"/>
	<path class="st21" d="M1273.9,722.9l207.2-31.2l50.7,203.4l-372.2,23.2l-164.5-21.7l112-99.2
		C1154.9,757.9,1212.6,732.1,1273.9,722.9z"/>
	<polygon class="st18" points="1039.6,360.1 1028.6,417.8 1050.6,417.8 	"/>
	<polygon class="st18" points="1211.1,295.4 1195.9,380.2 1226.3,380.2 	"/>
	<polygon class="st18" points="1354.6,283.2 1343.6,341 1365.6,341 	"/>
	<polygon class="st17" points="1157.4,505.7 1146.4,563.4 1168.4,563.4 	"/>
	<polygon class="st17" points="1332.6,476.8 1321.6,534.5 1343.6,534.5 	"/>
	<polygon class="st19" points="1321.6,556.2 1306.4,641 1336.8,641 	"/>
	<polygon class="st25" points="1378.4,590.2 1367.4,647.9 1389.4,647.9 	"/>
	<polygon class="st19" points="1135.4,637.2 1124.4,694.9 1146.4,694.9 	"/>
	<polygon class="st21" points="1388.3,345 1466.5,780.2 1310.2,780.2 	"/>
	<polygon class="st21" points="1278,516.3 1334.5,812.8 1221.5,812.8 	"/>
</g>
<g id="Layer_10" class="st11">
	<rect x="-0.4" y="40.2" class="st26" width="23.6" height="29.4"/>
	<circle class="st26" cx="44.1" cy="54.9" r="28.7"/>
	<polygon class="st27" points="27,41 37.6,35 48.7,41.3 48.6,53.8 42.2,57.4 42.2,67.1 50.5,71.8 58.7,67.1 58.7,57.3 52.3,53.7 
		52.3,50.6 61.3,55.9 61.3,68.6 50.6,74.7 39.7,68.6 39.7,55.9 46,52.2 46,42.7 37.8,37.9 29.7,42.4 29.6,52.3 36,56 36,59 27,53.7 
			"/>
	<polygon class="st27" points="37.9,41.9 32.9,44.8 32.9,50.5 37.9,53.4 42.9,50.5 42.9,44.8 	"/>
	<polygon class="st27" points="50.4,56.4 45.4,59.2 45.4,65 50.4,67.9 55.4,65 55.4,59.2 	"/>
	<path class="st26" d="M1084,33.2v43.3H604.4c-2.9,0-5.7-0.8-8.2-2.2l-25.2-14.5c-3.8-2.2-3.8-7.7,0-9.9l25.2-14.5
		c2.5-1.4,5.3-2.2,8.2-2.2H1084z"/>
	<rect x="1084" y="33.2" class="st26" width="356" height="43.3"/>
</g>
</svg>
