<?xml version="1.0" encoding="utf-8"?>
<!-- Generator: Adobe Illustrator 22.0.1, SVG Export Plug-In . SVG Version: 6.00 Build 0)  -->
<svg version="1.1" id="Layer_1" xmlns="http://www.w3.org/2000/svg" xmlns:xlink="http://www.w3.org/1999/xlink" x="0px" y="0px"
	 viewBox="0 0 100 100" style="enable-background:new 0 0 100 100;" xml:space="preserve">
<style type="text/css">
	.st0{fill:#998675;}
</style>
<path class="st0" d="M52.9,45.2v9.6c1.7,0.5,3.2,1.4,4.5,2.6c1.9,1.9,3,4.5,3,7.3v14.3c0,5.7-4.7,10.4-10.4,10.4
	c-5.7,0-10.4-4.7-10.4-10.4V64.8c0-4.5,3-8.4,7-9.8v-9.9c-4.1-1.4-7-5.3-7-9.8V20.9c0-5.7,4.7-10.4,10.4-10.4c2.9,0,5.5,1.2,7.3,3
	c1.9,1.9,3,4.5,3,7.3v14.3C60.4,39.9,57.2,44,52.9,45.2z"/>
</svg>
