<svg xmlns="http://www.w3.org/2000/svg" xmlns:xlink="http://www.w3.org/1999/xlink" width="614.93" height="313.83" viewBox="0 0 614.93 313.83"><defs><style>.cls-1,.cls-3,.cls-4{fill:none;}.cls-2{clip-path:url(#clip-path);}.cls-3,.cls-4{stroke:#e68476;stroke-miterlimit:10;}.cls-3{stroke-width:2.37px;}.cls-4{stroke-width:2.73px;}.cls-5{fill:#e68476;}.cls-6{fill:#e68476;}</style><clipPath id="clip-path" transform="translate(0 -0.34)"><rect class="cls-1" width="614.93" height="314.05"/></clipPath></defs><title>Asset 1Floor1</title><g id="Layer_2" data-name="Layer 2"><g id="Layer_1-2" data-name="Layer 1"><g class="cls-2"><path class="cls-3" d="M357.95,238.33h21.93l-1,34.18H365l-1,31.92-40-1.31V288.95l-28.69-1-25.8,14.2L265.1,296l-18,11L155.16,146.77c-37.73,26.75-64.48,50-92.86,87.7L1.76,192.05C41.2,146.74,79.6,110.29,121.5,81.76Q132.57,74.2,144,67.42C201.28,33.33,266.1,12.89,349,4V4q12.67-1.34,26-2.36l1,18.75.14,2.8,5.08,95.26.14,2.55,1.12,21.29s-13.37.5-21.6,1.28Z" transform="translate(0 -0.34)"/><path class="cls-3" d="M613.35,52.53,600.59,77.73l-21.76,42.95-27.35,54c-1-.87-5.08-3.16-10.37-5.8l-.28-.13c-5.22-2.62-11.6-5.57-17.28-7.81l-2.75,6.76c-1.83-.7-4.89-2-8.64-3.58h0c-8.94-3.69-21.85-8.66-31.91-9.79V169L414,166.86,429.79,1.61a404.85,404.85,0,0,1,110,19.18A422.76,422.76,0,0,1,613.35,52.53Z" transform="translate(0 -0.34)"/></g><polygon class="cls-3" points="235.5 228.81 253.84 259.2 302.03 230.12 285.01 200.26 235.5 228.81"/><polygon class="cls-3" points="253.84 259.2 271.38 289.06 320.37 260.77 302.03 230.12 253.84 259.2"/><g class="cls-2"><path class="cls-3" d="M360.84,143.54l-2.9,94.79-33.28,2.86L283.17,160c8.13-2.71,16.26-5.14,24.32-7.25C326.15,147.77,344.35,144.5,360.84,143.54Z" transform="translate(0 -0.34)"/><path class="cls-3" d="M382.45,142.26s-13.37.5-21.6,1.28l-1.92-23.39c5.15-1.31,15.59-2.06,22.26-1.73l.14,2.55Z" transform="translate(0 -0.34)"/><path class="cls-3" d="M357.94,238.33,338.37,240l.59-23,19.33-.11Z" transform="translate(0 -0.34)"/><path class="cls-4" d="M358.52,207.52l-21.78-1.07,1.23-25,21.17.6Z" transform="translate(0 -0.34)"/></g><polygon class="cls-3" points="295.39 287.63 324.08 288.62 324.08 270.91 295.39 287.63"/><g class="cls-2"><path class="cls-3" d="M153.86,84.15,132.15,97.93,121.5,81.76Q132.57,74.21,144,67.43Z" transform="translate(0 -0.34)"/></g><polygon class="cls-3" points="238.38 46.53 247.76 71.74 267.02 65.43 259.33 39.97 238.38 46.53"/><polygon class="cls-3" points="311.68 29.51 316.33 55.05 336.39 51.73 333.16 25.98 311.68 29.51"/><g class="cls-2"><path class="cls-3" d="M376.11,23.16l-25,1.24L349,4V4q12.67-1.34,26-2.36l1,18.75Z" transform="translate(0 -0.34)"/></g><polygon class="cls-3" points="422.83 74.13 429.89 74.76 427.93 94.38 420.98 93.46 422.83 74.13"/><g class="cls-2"><path class="cls-3" d="M535.69,100.77l-23.53,63.32h0c-8.94-3.69-21.85-8.66-31.92-9.79a234.31,234.31,0,0,0-24.64-2.94l11.6-69.57C489.32,84.59,513,90.2,535.69,100.77Z" transform="translate(0 -0.34)"/><path class="cls-3" d="M576.47,125.33l-25,49.32c-2.88-1.68-6.51-3.73-10.37-5.8l-.28-.13c-6-3.2-12.42-6.32-17.28-7.81l-2.75,6.76c-1.83-.7-4.89-2-8.64-3.58l23.53-63.32C549.81,107.39,565.84,116.72,576.47,125.33Z" transform="translate(0 -0.34)"/><path class="cls-3" d="M613.35,52.53,600.59,77.73,585.19,83l-9.94,18.67L530.4,83.45l6.5-20.1L530.4,50l9.39-29.16A422.76,422.76,0,0,1,613.35,52.53Z" transform="translate(0 -0.34)"/></g><path class="cls-5" d="M137.21,88.16V79.87H136V78.67l2.36-1.18h1.19V88.16Z" transform="translate(0 -0.34)"/><path class="cls-5" d="M266.15,225.22h7.11v2.38l-.58,1.18-.6,1.18a10.1,10.1,0,0,0-1.18,3.56v2.38h-2.37v-2.37a9.15,9.15,0,0,1,1.18-3.56l1.19-2.36V226.4h-4.75Z" transform="translate(0 -0.34)"/><path class="cls-5" d="M289.11,261.75a2.09,2.09,0,0,1,1.77.77,2.6,2.6,0,0,1,.59,1.61v.58a2.43,2.43,0,0,1-.68,1.59,2.13,2.13,0,0,1-1.68.79h-2.37a2.16,2.16,0,0,1-1.69-.79,2.42,2.42,0,0,1-.69-1.59v-.58a2.58,2.58,0,0,1,.6-1.61,2.11,2.11,0,0,1,1.78-.77A3,3,0,0,1,285,261a2.2,2.2,0,0,1-.6-1.64v-.58a2.4,2.4,0,0,1,2.38-2.38h2.38a2.26,2.26,0,0,1,1.66.7,2.3,2.3,0,0,1,.7,1.67v.58a2.22,2.22,0,0,1-.59,1.64A2.92,2.92,0,0,1,289.11,261.75Zm0-1.78v-1.18a1.19,1.19,0,0,0-1.19-1.19,1.13,1.13,0,0,0-.83.35,1.15,1.15,0,0,0-.35.85V260a1.19,1.19,0,0,0,1.18,1.18,1.15,1.15,0,0,0,.85-.35A1.14,1.14,0,0,0,289.11,260Zm0,4.74v-1.18a1.19,1.19,0,0,0-2.37,0v1.18a1.15,1.15,0,0,0,.35.85,1.13,1.13,0,0,0,.83.35,1.19,1.19,0,0,0,1.19-1.19Z" transform="translate(0 -0.34)"/><g class="cls-2"><path class="cls-5" d="M310,302.26q-.14,1.18-1.19,1.18h-1.18a2.39,2.39,0,0,1-2.37-2.37v-2.36a2.4,2.4,0,0,1,2.38-2.38H310a2.26,2.26,0,0,1,1.66.7,2.29,2.29,0,0,1,.7,1.67v4.14a4.17,4.17,0,0,1-4.14,4.15h-1.78v-1.18h1.18a2.39,2.39,0,0,0,2.38-2.37Zm-2.37-3.56v2.36a1.16,1.16,0,0,0,.35.84,1.12,1.12,0,0,0,.83.36,1.14,1.14,0,0,0,.85-.36,1.16,1.16,0,0,0,.35-.84v-2.36a1.19,1.19,0,0,0-1.19-1.19,1.13,1.13,0,0,0-.83.36A1.16,1.16,0,0,0,307.67,298.71Z" transform="translate(0 -0.34)"/></g><path class="cls-5" d="M401.86,88.16V79.87h-1.18V78.67L403,77.49h1.19V88.16Z" transform="translate(0 -0.34)"/><path class="cls-5" d="M411.69,88.16V79.87h-1.18V78.67l2.36-1.18h1.19V88.16Z" transform="translate(0 -0.34)"/><path class="cls-5" d="M485.42,128.87v-8.29h-1.18v-1.19l2.36-1.18h1.19v10.67Z" transform="translate(0 -0.34)"/><path class="cls-5" d="M494.07,120.57h-1.19q.28-2.38,2.38-2.38h2.38a2.26,2.26,0,0,1,1.66.7,2.29,2.29,0,0,1,.7,1.67v.58q0,1.24-2.29,3.2l-.16.13q-2.29,2-2.29,3.09v.11H500v1.18h-7.11v-1.18q0-1.24,2.3-3.2l.16-.13q2.29-2,2.29-3.2v-.58a1.14,1.14,0,0,0-.36-.85,1.16,1.16,0,0,0-.84-.35h-1.18Q494.15,119.38,494.07,120.57Z" transform="translate(0 -0.34)"/><path class="cls-5" d="M539.25,143.53v-8.29h-1.18V134l2.36-1.18h1.19v10.67Z" transform="translate(0 -0.34)"/><path class="cls-5" d="M546.7,132.86h7.11V134l-3.56,2.38h1.19a2.13,2.13,0,0,1,1.69.78,2.45,2.45,0,0,1,.67,1.59v2.36a2.38,2.38,0,0,1-2.36,2.38h-2.37q-2.09,0-2.37-2.37h1.19q.08,1.19,1.18,1.19h1.18a1.19,1.19,0,0,0,1.19-1.19v-2.36a1.48,1.48,0,0,0-.3-.74,1,1,0,0,0-.9-.46H547.9v-1.18l3.56-2.37H546.7Z" transform="translate(0 -0.34)"/><path class="cls-5" d="M560.69,65.25V57H559.5V55.76l2.36-1.18h1.19V65.25Z" transform="translate(0 -0.34)"/><path class="cls-5" d="M571.69,65.25V61.69H567V60.51l4.74-5.93h2.38v5.93h1.18v1.18h-1.18v3.56Zm0-4.74V56.06l-3.56,4.45Z" transform="translate(0 -0.34)"/><path class="cls-5" d="M324.09,163.59a1.46,1.46,0,0,1,.37-.88,1.09,1.09,0,0,1,.81-.3h1.19a2.38,2.38,0,0,1,2.36,2.38v2.36a2.29,2.29,0,0,1-.7,1.67,2.26,2.26,0,0,1-1.66.7h-2.37a2.4,2.4,0,0,1-2.37-2.37V163a4.19,4.19,0,0,1,4.15-4.15h1.78V160h-1.18a2.39,2.39,0,0,0-2.37,2.38Zm2.38,3.56v-2.36a1.19,1.19,0,0,0-1.19-1.19,1.14,1.14,0,0,0-.83.35,1.15,1.15,0,0,0-.35.85v2.36a1.16,1.16,0,0,0,.35.84,1.12,1.12,0,0,0,.83.36,1.14,1.14,0,0,0,.85-.36A1.16,1.16,0,0,0,326.46,167.15Z" transform="translate(0 -0.34)"/><path class="cls-5" d="M251.42,53.18h-1.19q.28-2.38,2.38-2.38H255a2.26,2.26,0,0,1,1.66.7,2.3,2.3,0,0,1,.7,1.67v.58q0,1.24-2.29,3.2l-.16.13q-2.29,2-2.29,3.09v.11h4.74v1.18h-7.11V60.29q0-1.24,2.3-3.2l.16-.13q2.29-2,2.29-3.2v-.58a1.14,1.14,0,0,0-.36-.85,1.16,1.16,0,0,0-.84-.35H252.6Q251.51,52,251.42,53.18Z" transform="translate(0 -0.34)"/><path class="cls-5" d="M368,125h7.11v1.18H370.4v2.38h2.38a2.38,2.38,0,0,1,2.36,2.38v2.36a2.38,2.38,0,0,1-2.36,2.38H370.4q-2.09,0-2.37-2.37h1.19q.08,1.19,1.18,1.19h1.18a1.19,1.19,0,0,0,1.19-1.19v-2.36a1.19,1.19,0,0,0-1.19-1.19H368Z" transform="translate(0 -0.34)"/><path class="cls-5" d="M321.35,35.55h7.11v1.18l-3.56,2.38h1.19a2.13,2.13,0,0,1,1.69.78,2.45,2.45,0,0,1,.67,1.59v2.36a2.38,2.38,0,0,1-2.36,2.38h-2.37q-2.09,0-2.37-2.37h1.19q.08,1.19,1.18,1.19h1.18a1.19,1.19,0,0,0,1.19-1.19V41.48a1.48,1.48,0,0,0-.3-.74,1,1,0,0,0-.9-.46h-2.36V39.11l3.56-2.37h-4.75Z" transform="translate(0 -0.34)"/><g class="cls-2"><path class="cls-5" d="M363.82,18V14.48h-4.74V13.3l4.74-5.93h2.38V13.3h1.18v1.18H366.2V18Zm0-4.74V8.85l-3.56,4.45Z" transform="translate(0 -0.34)"/></g><path class="cls-6" d="M4.86,294.48c0,.32,0,.64,0,1s-.07.63-.12.92a2.91,2.91,0,0,0,0,1q.08.48.16.92a2.3,2.3,0,0,0,.4,1,.68.68,0,0,0,.58.38l.74,0q.56,0,1.09,0a7.74,7.74,0,0,1,1.08.08,1.25,1.25,0,0,1,.42.16.8.8,0,0,1,.18.4,2.51,2.51,0,0,1,.08.6,2,2,0,0,0,.08.56.87.87,0,0,1,0,.52,3.77,3.77,0,0,1-.2.48,1,1,0,0,1-.6.44A1.63,1.63,0,0,1,8,303a3,3,0,0,0-.48,0,2.87,2.87,0,0,1-.48,0A1.87,1.87,0,0,0,6,303.1a2.93,2.93,0,0,0-.82.7,1.14,1.14,0,0,0-.28,1,8.9,8.9,0,0,1,0,1.19l-.08,1.15a10.6,10.6,0,0,0,0,1.31q0,.62,0,1.31a10.13,10.13,0,0,1,0,1.27q0,.62,0,1.27v.46a2.85,2.85,0,0,1,0,.46,1.32,1.32,0,0,1-.36.68.7.7,0,0,1-.67.2,2.09,2.09,0,0,0-.91,0,.76.76,0,0,1-.79-.3,1.59,1.59,0,0,1-.32-.78,9,9,0,0,1-.06-1.35q0-.66.1-1.35a6.32,6.32,0,0,0,0-1.23q0-.62,0-1.27,0-.44-.08-.9t0-.94q0-.72.06-1.45t.1-1.49a3.68,3.68,0,0,0,0-.66q0-.34,0-.66t0-.84V300a9.21,9.21,0,0,0,0-1q0-.52,0-1v-.38a1.91,1.91,0,0,1,0-.38,2.94,2.94,0,0,0,0-.82,7.86,7.86,0,0,1,0-.82q0-.72-.06-1.45a10.45,10.45,0,0,1,0-1.45q0-.64,0-1.27a4.26,4.26,0,0,1,.2-1.27,2.41,2.41,0,0,1,.63-1,1,1,0,0,1,.48-.2,1.69,1.69,0,0,1,.52,0,5.67,5.67,0,0,0,1.05.06l1.06,0,.72,0a2.67,2.67,0,0,1,.72.06.56.56,0,0,0,.26,0l.26,0a5.65,5.65,0,0,1,1.65,0,3.92,3.92,0,0,0,1.13,0,3,3,0,0,1,.58,0l.54.06a.82.82,0,0,1,.58.22,1,1,0,0,1,.14.62,1.22,1.22,0,0,0,0,.44l.08.48a1.23,1.23,0,0,0,0,.2.5.5,0,0,1,0,.24,1,1,0,0,1-.2.52.74.74,0,0,1-.52.24l-.36.08a.65.65,0,0,1-.32,0,3.35,3.35,0,0,0-.72-.08H8.86a2.55,2.55,0,0,1-.62-.08,1,1,0,0,0-.56,0,2,2,0,0,1-.54.08H6.59a1.36,1.36,0,0,0-.66.08q-.3.12-.62.28a.69.69,0,0,0-.34.36,1.25,1.25,0,0,0-.1.48,3,3,0,0,0,0,.7A2.79,2.79,0,0,1,4.86,294.48ZM2.8,301.35l.52.12c.11,0,.16,0,.16-.12s0-.08-.12-.16a.35.35,0,0,0-.3,0l-.26.1a.67.67,0,0,0-.48-.56,2,2,0,0,0-.06.62,3.46,3.46,0,0,0,.1.62q0-.4.32-.4C2.81,301.55,2.85,301.49,2.8,301.35Zm-.44-4.54.32.12c.08,0,.12,0,.12-.08s0-.12-.08-.12a.14.14,0,0,1-.16,0C2.51,296.67,2.44,296.7,2.36,296.81Zm.53,6.39a.18.18,0,0,1-.1-.12c0-.05-.06-.07-.14,0l-.16.06c-.05,0-.07.06,0,.14s.09.16.28.16S2.89,303.33,2.89,303.2Zm-.12-8.8c.08,0,.12,0,.12-.08s-.12-.16-.28-.16-.11,0-.08.08A.21.21,0,0,0,2.77,294.4Zm-.12,3.3.08,0c0-.05,0-.08-.12-.08H2.53A.11.11,0,0,0,2.65,297.69ZM3.32,296q-.44-.2-.54-.16c-.07,0-.13.16-.18.4-.05.08-.05.15,0,.2s.15,0,.2-.08A.79.79,0,0,1,3.32,296Zm-.68,8.76q.32.2.4.18c.05,0,.15-.14.28-.38a.53.53,0,0,1-.32.12A1,1,0,0,0,2.64,304.73Zm.45-4.82c0-.08,0-.12-.08-.12s-.2,0-.2.12,0,.12.12.12S3.1,300,3.1,299.9ZM3,293.47a1.15,1.15,0,0,0,.36-.36.28.28,0,0,0,0-.32q-.12-.12-.32.08T3,293.47ZM3.1,290a.65.65,0,0,1,0,.32,1,1,0,0,1-.12.24c0,.11,0,.16.08.16a.42.42,0,0,0,.22-.06,1,1,0,0,0,.18-.14.17.17,0,0,0,.06-.16.85.85,0,0,0-.06-.16.37.37,0,0,0-.16-.1A.68.68,0,0,1,3.1,290Zm.16,21.7a.14.14,0,0,0-.16.16.11.11,0,0,0,.12.12c.08.05.12,0,.12-.12S3.36,311.72,3.26,311.72Zm.16-19.57c.08,0,.12-.05.12-.16s-.09-.24-.28-.24-.15.05-.12.16S3.28,292.15,3.42,292.15Zm0,4.74a.07.07,0,0,0,.08-.08c-.05-.13-.12-.19-.2-.16a.07.07,0,0,0-.08.08C3.26,296.84,3.32,296.89,3.46,296.89Zm0,6.23-.08.08a.12.12,0,0,1,0,.08c.11,0,.13,0,.08-.08A.12.12,0,0,0,3.42,303.12Zm0-5.75a.67.67,0,0,0,.3.08H4c.11.05.16,0,.16-.16a.19.19,0,0,0-.06-.14.11.11,0,0,0-.14,0A.65.65,0,0,0,3.39,297.37Zm.39,6.31a.13.13,0,0,0-.12-.08.08.08,0,0,0,0,.16S3.72,303.74,3.78,303.68Zm0-14.15a.33.33,0,0,0,.36.32q.2.12.12-.16t-.32-.28C3.79,289.41,3.74,289.45,3.74,289.53Zm.44,6.83a.32.32,0,0,0-.2,0,.11.11,0,0,0-.12.12c0,.08.09.09.2,0A.11.11,0,0,0,4.18,296.37Zm.16-1.77c0-.08-.07-.11-.12-.08a.07.07,0,0,0-.08.08c.05.05.09.08.12.08A.07.07,0,0,0,4.34,294.6Zm-.2,4.5.22-.06q.1,0,.06-.22a.11.11,0,0,0-.12-.12c-.11,0-.16.13-.16.32Zm.08.64a.16.16,0,0,0,.12.16c.08,0,.12,0,.12-.08a.11.11,0,0,0-.12-.12S4.27,299.69,4.22,299.74Zm1.21,1a.71.71,0,0,1-.48.12.22.22,0,0,0-.24.16c0,.16.07.24.2.24s.23.07.2.2,0,.21.06.22l.26,0,.42,0a.91.91,0,0,1,.42.06q.6.32.72-.32,0-.36.32-.2a.33.33,0,0,1,.28.4q-.12.24.16.4a.37.37,0,0,0,.24-.4.76.76,0,0,0-.06-.3A.37.37,0,0,1,8,301c.05-.08,0-.15-.12-.2a.5.5,0,0,1-.28-.24q-.16-.16-.12-.24c0-.08-.05-.12-.16-.12s-.16,0-.16.12q0,.36-.32.36t-.24.12a.32.32,0,0,1-.36.36c-.05.19-.13.26-.24.22a1.35,1.35,0,0,1-.28-.14A.33.33,0,0,1,5.43,300.79Zm0-11.17c0-.13-.08-.2-.24-.2H5s-.06,0-.06.12.07.28.2.28S5.39,289.72,5.39,289.61Zm.32,12.9a.14.14,0,0,1,.1,0s.06,0,.06-.08-.09-.08-.2-.08-.16,0-.16.08,0,.08.06.08A.33.33,0,0,1,5.71,302.52Zm0-12.7q.12,0,.12-.08v-.12a.22.22,0,0,1,.08-.1s0,0,0-.06-.17,0-.2.08A.23.23,0,0,0,5.75,289.82Zm.4,1.57h.12c.16-.05.24-.11.24-.16s-.11-.13-.24-.08a.2.2,0,0,1-.2,0,.14.14,0,0,0-.1,0s-.07,0-.1.08,0,.15.16.2a.11.11,0,0,0,.08,0ZM7,289.45a.3.3,0,0,0-.22-.06l-.22,0a.21.21,0,0,0-.18.08.14.14,0,0,0,0,.16c.08.11.09.19,0,.26l-.16.18a.13.13,0,0,0,0,.16l.08.16a.42.42,0,0,0,.36.16c.08,0,.11,0,.1-.08a.22.22,0,0,1,0-.16.63.63,0,0,0,.08-.44A.49.49,0,0,1,7,289.45Zm1,1,0-.08a.25.25,0,0,1-.14,0s0,0,0,.08a.09.09,0,0,0,.06.1S8,290.47,8,290.42Zm.48,10a.11.11,0,0,0-.12-.12q-.08,0-.16.12c0,.11,0,.16.12.16A.14.14,0,0,0,8.52,300.47Zm.08,1.08s0,0,0,0,0,0,0,0-.09,0-.12.12a.11.11,0,0,0,.08,0A.07.07,0,0,0,8.6,301.55Zm1.61-11.49a.14.14,0,0,1,.06-.12s0-.07,0-.12a.18.18,0,0,0-.2,0l-.22.12c-.07,0-.1.11-.1.24a.22.22,0,0,0,.22,0,.22.22,0,0,1,.22,0,1.22,1.22,0,0,0,.12.36s.15,0,.36-.08a1.31,1.31,0,0,0-.22-.28A.41.41,0,0,0,10.21,290.06Zm.76-.44a3.27,3.27,0,0,0,.18.38.45.45,0,0,0,.34.22.18.18,0,0,0,.2,0,.29.29,0,0,0,0-.24l-.32-.16Z" transform="translate(0 -0.34)"/><path class="cls-6" d="M26.41,314l-.7,0a1.59,1.59,0,0,1-.74-.14.27.27,0,0,0-.24,0l-.24.08a7.86,7.86,0,0,1-1.12.08H21.86a3.26,3.26,0,0,1-1.29.14L19.29,314a1.8,1.8,0,0,1-1.21-.64,1.14,1.14,0,0,1-.24-.76v-.08a4.62,4.62,0,0,1-.12-1.35,11.47,11.47,0,0,0,0-1.35,1.44,1.44,0,0,1,0-.24,1.48,1.48,0,0,0,0-.24,6.73,6.73,0,0,0,0-1.27,6.61,6.61,0,0,1,0-1.27,1.49,1.49,0,0,0,0-.42,4.25,4.25,0,0,0-.06-.42,5.13,5.13,0,0,1,0-1.21,5.19,5.19,0,0,0,0-1.21,6.12,6.12,0,0,1,0-1.31q.06-.62.1-1.31V299.2q0-.86-.08-1.75v-.72q0-.84,0-1.71a14.27,14.27,0,0,1,.06-1.71,10.77,10.77,0,0,0-.12-2.77,3,3,0,0,1,.28-1.41.43.43,0,0,1,.24-.26.65.65,0,0,1,.36,0,3.82,3.82,0,0,0,.78,0,2.93,2.93,0,0,1,.82,0,.63.63,0,0,1,.52.44,1.87,1.87,0,0,1,.12.66v.66a4.73,4.73,0,0,1,0,.86q0,.42,0,.86a3.77,3.77,0,0,0,0,.54,3.89,3.89,0,0,1,0,.54,12.81,12.81,0,0,0,0,2.27q.12,1.11.24,2.27a4.68,4.68,0,0,1,0,1,7.8,7.8,0,0,0-.06,1q0,.8.06,1.55T21,303c0,.19,0,.38.06.56a1.92,1.92,0,0,1-.06.6,5.73,5.73,0,0,0-.08.94c0,.31,0,.62,0,.94v1.59a15.76,15.76,0,0,0,.08,1.59,1.89,1.89,0,0,0,.36,1.17,2.51,2.51,0,0,0,.38.32,1.1,1.1,0,0,0,.46.16l.52.06a2.31,2.31,0,0,0,.52,0,1.49,1.49,0,0,1,.42,0l.42,0h.62a2.54,2.54,0,0,0,.62-.08,3.69,3.69,0,0,1,.76,0,4.2,4.2,0,0,0,.54.12,1.8,1.8,0,0,0,.54,0,1.52,1.52,0,0,1,.36,0l.36.08a.69.69,0,0,1,.52.6c0,.16.05.34.08.52a1.73,1.73,0,0,1,0,.52,2,2,0,0,1-.4,1,.58.58,0,0,1-.52.24Zm-7.84-10a1,1,0,0,1-.06-.14.09.09,0,0,0-.1-.06c-.05,0-.08,0-.08.12a.19.19,0,0,0,.16.2C18.54,304.16,18.57,304.12,18.57,304Zm-.16-2.61,0,0v.08c.08,0,.12,0,.12,0Zm.44-2.57-.22-.12c-.07,0-.14,0-.22.08a.12.12,0,0,1,0,.08c0,.05,0,.08,0,.08S18.72,299,18.85,298.86Zm-.08,9.32c0-.08,0-.12-.08-.12a.11.11,0,0,0,0,.08.07.07,0,0,0,.08.08Zm.6-7.27c0-.13.07-.21.12-.24a.62.62,0,0,0,.16-.12c.11-.11.19-.13.24-.08s.13.11.08.24,0,.13.12.16q-.24-.28,0-.32t.24-.16a.31.31,0,0,0-.16-.14.34.34,0,0,1-.16-.1q-.16-.2-.28-.14a1.36,1.36,0,0,1-.28.1c-.13,0-.19.08-.16.16a1.43,1.43,0,0,0,.08.2.94.94,0,0,1,0,.18A.42.42,0,0,0,19.37,300.91Zm.44,12.1a.11.11,0,0,0-.12.12.07.07,0,0,0,.08.08.11.11,0,0,0,.12-.12A.07.07,0,0,0,19.81,313Zm3.58-.16c.08,0,.13,0,.14-.06l.06-.14c.08-.08.08-.15,0-.2s-.13,0-.24.12A.22.22,0,0,0,23.39,312.85Zm1.89-.68q.36.12.56-.36a.71.71,0,0,0-.32.14Zm1.29.92c.16-.05.23-.15.2-.28s-.11-.2-.32-.2-.16,0-.16.12a.38.38,0,0,0,.1.24C26.45,313,26.51,313.09,26.57,313.09Z" transform="translate(0 -0.34)"/><path class="cls-6" d="M44.69,307.78a3.69,3.69,0,0,1,0,.76,2.07,2.07,0,0,1-.2.72,9.25,9.25,0,0,0-.36.92,9.52,9.52,0,0,1-.36.92,3.21,3.21,0,0,1-1,1.27,9,9,0,0,1-1.29.82,4.84,4.84,0,0,1-.64.34,4,4,0,0,1-.64.22,5.65,5.65,0,0,1-4.43-.64,10.17,10.17,0,0,1-1.06-.68,8.63,8.63,0,0,1-.94-.8,3,3,0,0,1-.35-.4.88.88,0,0,1-.14-.52l-.08-.12a3.52,3.52,0,0,1-.43-1.59q0-.82-.06-1.87a2.1,2.1,0,0,1,0-.82,3.54,3.54,0,0,0,0-1.06q0-.44-.06-.86a3.79,3.79,0,0,1,.06-.86,3.64,3.64,0,0,0,0-1.21,9.2,9.2,0,0,1-.16-1.25v-.94a5.73,5.73,0,0,1,.08-.94,2.23,2.23,0,0,0,0-.84,2.92,2.92,0,0,1,0-.84,1.48,1.48,0,0,0,0-.24.49.49,0,0,1,0-.24,4.31,4.31,0,0,0,0-1q0-.48-.08-1a4.33,4.33,0,0,1,.2-1.77,5.78,5.78,0,0,1,.84-1.61,5.67,5.67,0,0,0,.36-.48,2.85,2.85,0,0,1,.36-.44A6.82,6.82,0,0,1,36,289.43a5.25,5.25,0,0,1,2-.54,1.48,1.48,0,0,1,.48,0,1.18,1.18,0,0,0,.52,0,.52.52,0,0,1,.44,0A.77.77,0,0,0,40,289c.08-.05.17,0,.28.08a3,3,0,0,0,.86.42,2.59,2.59,0,0,1,.86.46,17.62,17.62,0,0,1,1.41,1.41,4,4,0,0,1,.88,1.77,9.87,9.87,0,0,1,.24,1.65,11.13,11.13,0,0,1,0,1.33,10.73,10.73,0,0,0,0,1.33l.08.5a3.37,3.37,0,0,1,0,.5,11.39,11.39,0,0,0,0,1.79,11.39,11.39,0,0,1,0,1.79,2.31,2.31,0,0,0,0,.52q0,.24.06.52a6,6,0,0,1,0,1.39,8,8,0,0,0,0,1.39q0,.52,0,1T44.69,307.78Zm-11.45,2.13a.62.62,0,0,0,.37,0,.37.37,0,0,0,.2-.2A.85.85,0,0,0,33.25,309.91Zm.19-16.68c-.05.05,0,.08,0,.08a.11.11,0,0,0,.12-.12.12.12,0,0,0,0-.08A.11.11,0,0,0,33.44,293.23Zm.44,4.62a.29.29,0,0,0-.16-.32.6.6,0,0,1-.24-.08.28.28,0,0,1,0,.12.27.27,0,0,0,0,.12c0,.16.07.24.2.24S33.88,297.91,33.88,297.85Zm-.12,8.64c.08-.05.11-.11.08-.16s-.05-.12-.16-.12-.11.11-.08.16A.16.16,0,0,0,33.76,306.49ZM34.4,305h0l.08,0-.3-.14a.27.27,0,0,0-.26,0c-.08.05-.09.11,0,.16a.18.18,0,0,0,.22.08,1,1,0,0,1,.26,0ZM34,293c-.08,0-.11.05-.08.16a.11.11,0,0,0,.12.12c.05,0,.08,0,.08-.06s0,0,0-.06l.08,0c.05,0,.08,0,.08-.12l-.08,0c-.05,0-.08,0-.08,0S34.1,293,34,293Zm.68,2.09c-.05-.21-.13-.32-.24-.32s-.21.07-.16.2a.73.73,0,0,1,.06.2c0,.08.07.11.18.08A.14.14,0,0,0,34.73,295.12Zm-.24-3.78c-.08.05-.09.16,0,.32v0l.16-.06q.08,0,0-.18C34.6,291.36,34.56,291.32,34.48,291.34Zm.63,12.9a2,2,0,0,0-.26-.28s-.14,0-.3,0a1,1,0,0,0,.24.12Zm-.35-10.33a.13.13,0,0,0-.12.08l0,0c.05,0,.08,0,.08,0Zm0,13.46q0,.12.24.12c.08,0,.11,0,.08-.12a.24.24,0,0,0-.2-.12A.11.11,0,0,0,34.73,307.38Zm.2-11.25a.07.07,0,0,0-.08.08.13.13,0,0,0,.12.08q.16,0,0-.12S35,296.13,34.93,296.13Zm.15,13.75a1.17,1.17,0,0,0,.08-.72c-.19.16-.28.27-.28.32A1.24,1.24,0,0,0,35.08,309.87Zm0-7.52a.16.16,0,0,0,.12-.16.11.11,0,0,1,0-.08s0,0-.08,0-.12.11-.12.16S35,302.36,35,302.36Zm0-5.63a.07.07,0,0,0-.08-.08s0,0-.06,0a.07.07,0,0,0,0,.08s0,0,0,0,0,0,0,0Zm6.55,2a1.15,1.15,0,0,0,0-.36q0-.16-.06-.36-.08-.44-.14-.88a2.2,2.2,0,0,1,.06-.88V296a7.23,7.23,0,0,0,0-.74q0-.38-.12-.78a2.71,2.71,0,0,0-1.6-2.29,1.18,1.18,0,0,0-.44-.08,2.82,2.82,0,0,1-.48,0,1.46,1.46,0,0,0-.48,0l-.48.08a1.74,1.74,0,0,0-.7.3l-.62.46a1.57,1.57,0,0,0-.72,1l-.08.88a4.78,4.78,0,0,0,0,.88v.66a5.34,5.34,0,0,0,0,.66,8.3,8.3,0,0,1,0,1.15,8.15,8.15,0,0,0,0,1.15,5.18,5.18,0,0,1,0,.9l-.08.9q0,.48,0,1a3.87,3.87,0,0,0,0,1,5.43,5.43,0,0,1,.08,1.85,6.87,6.87,0,0,0-.08,1.81q.08.88.08,1.81a1.85,1.85,0,0,0,.16.64,2.68,2.68,0,0,0,1.1,1.33,3.88,3.88,0,0,0,1.62.48,2.05,2.05,0,0,0,1.56-.48.72.72,0,0,0,.2-.2.7.7,0,0,1,.2-.2,1.29,1.29,0,0,0,.54-.56,2.19,2.19,0,0,0,.22-.76,7.8,7.8,0,0,0,0-1.37,7.66,7.66,0,0,1,0-1.37.29.29,0,0,0,0-.24v-.52q.08-.92.12-1.89t0-1.89q0-.68,0-1.33A8.84,8.84,0,0,1,41.64,298.78Zm-5.87-6.67a.23.23,0,0,0,.08.16c.11,0,.16,0,.16-.12s0-.07-.12-.12S35.82,292.05,35.77,292.11Zm3-2c-.05.05,0,.08,0,.08s.07,0,.12,0a.12.12,0,0,0,0-.08C38.82,289.94,38.78,289.95,38.78,290.06Zm.56,22.31v-.08q0-.12-.2,0l-.26.2q-.14.12,0,.32a4.52,4.52,0,0,0,.44-.36Zm.8-22.15c-.13,0-.2.09-.2.28s.11.28.32.28.21-.07.16-.2a.3.3,0,0,1-.08-.22C40.35,290.26,40.28,290.22,40.15,290.22Zm.28,22.27a.51.51,0,0,1,.24-.12c.11,0,.15-.07.12-.12a.47.47,0,0,1-.2-.38.38.38,0,0,0-.2-.34c-.13-.05-.2,0-.2,0l-.14.3c0,.09,0,.19.14.3A2.51,2.51,0,0,1,40.43,312.48ZM42,291.83a1.51,1.51,0,0,0,0,.56c0,.05.15.08.36.08a1.52,1.52,0,0,0-.2-.3A.5.5,0,0,1,42,291.83Zm.8,8-.28-.12a.65.65,0,0,0-.32,0,1.85,1.85,0,0,1,.26.22Q42.56,300,42.76,299.78Zm.32,9.53c.13,0,.16,0,.08-.12a.24.24,0,0,1-.06-.22.15.15,0,0,0-.1-.18q-.24,0-.24.32l0,.08a.11.11,0,0,1-.14,0,.56.56,0,0,0-.14-.1c-.11,0-.17,0-.18.08a.74.74,0,0,1-.06.2c0,.05,0,.11.16.16a.54.54,0,0,0,.36,0Zm-.68-10q-.16,0,0,.12l.08,0c.05,0,.08,0,.08-.12A.16.16,0,0,1,42.4,299.3Zm1.21,3.86q.12-.08,0-.2a.18.18,0,0,1,0-.24.61.61,0,0,1-.36,0q-.32-.16-.4.06a.65.65,0,0,1-.28.34q.32.24.46.08l.26-.32c.13-.05.2,0,.2.12S43.5,303.21,43.61,303.16Zm-.68,1q.16,0,.16-.2t-.28-.24c-.11,0-.16.05-.16.24S42.74,304.2,42.92,304.2Zm0-3.26c0-.08,0-.12-.08-.12s-.12.05-.12.16a.07.07,0,0,0,.08.08A.11.11,0,0,0,42.88,300.95Zm.08,6c.05,0,.08-.05.08-.16s0-.35-.12-.4H42.8a.22.22,0,0,0-.06.2,1.3,1.3,0,0,1,0,.2C42.76,307,42.83,307,43,307Zm0-12.82q-.16,0-.08.12l.08.08s.07,0,.12-.08A.11.11,0,0,0,43,294.16Zm.16,5.06c-.05,0-.08.05-.08.08s0,0,.08,0l.08,0,.08,0v-.12A.23.23,0,0,0,43.17,299.22Zm.12-4.54c-.08,0-.12,0-.12.08s0,.12.08.12.08,0,.08,0A.23.23,0,0,0,43.29,294.68Zm.24.72c0-.24-.07-.36-.2-.36s-.12.11-.12.24.07.27.2.24A.11.11,0,0,0,43.53,295.4Zm-.2,3.34a.43.43,0,0,1,.24-.26.43.43,0,0,0,.24-.26q-.4-.08-.48,0T43.33,298.74Zm.32,2.73c.08,0,.09-.07,0-.2a.12.12,0,0,0-.08,0l-.12,0c0,.05,0,.09,0,.1a.08.08,0,0,1,0,.06Q43.53,301.55,43.65,301.47ZM44,303a.41.41,0,0,0,0-.3.93.93,0,0,1,0-.26c0-.13-.09-.17-.28-.12s-.15.11-.12.18a.5.5,0,0,1,0,.18c.13-.05.2,0,.2.1A.2.2,0,0,0,44,303Zm0,2.17c.05-.11,0-.18,0-.22a.77.77,0,0,1-.2-.14c-.13.19-.12.33,0,.44A.27.27,0,0,0,44,305.21Zm-.08,2.61c0-.08,0-.12-.08-.12s-.12,0-.12.08a.1.1,0,0,0,0,.16C43.81,308,43.87,307.93,43.93,307.82Zm.2-8.12s0-.07-.08-.12-.12,0-.12.08,0,.12.08.12S44.13,299.76,44.13,299.7Z" transform="translate(0 -0.34)"/><path class="cls-6" d="M62.14,307.78a3.69,3.69,0,0,1,0,.76,2.07,2.07,0,0,1-.2.72,9.25,9.25,0,0,0-.36.92,9.52,9.52,0,0,1-.36.92,3.21,3.21,0,0,1-1,1.27,9,9,0,0,1-1.29.82,4.84,4.84,0,0,1-.64.34,4,4,0,0,1-.64.22,5.65,5.65,0,0,1-4.43-.64,10.17,10.17,0,0,1-1.06-.68,8.63,8.63,0,0,1-.94-.8,3,3,0,0,1-.35-.4.88.88,0,0,1-.14-.52l-.08-.12a3.52,3.52,0,0,1-.43-1.59q0-.82-.06-1.87a2.1,2.1,0,0,1,0-.82,3.54,3.54,0,0,0,0-1.06q0-.44-.06-.86a3.79,3.79,0,0,1,.06-.86,3.64,3.64,0,0,0,0-1.21,9.2,9.2,0,0,1-.16-1.25v-.94a5.73,5.73,0,0,1,.08-.94,2.23,2.23,0,0,0,0-.84,2.92,2.92,0,0,1,0-.84,1.48,1.48,0,0,0,0-.24.49.49,0,0,1,0-.24,4.31,4.31,0,0,0,0-1q0-.48-.08-1a4.33,4.33,0,0,1,.2-1.77,5.78,5.78,0,0,1,.84-1.61,5.67,5.67,0,0,0,.36-.48,2.85,2.85,0,0,1,.36-.44,6.82,6.82,0,0,1,1.71-1.27,5.25,5.25,0,0,1,2-.54,1.48,1.48,0,0,1,.48,0,1.18,1.18,0,0,0,.52,0,.52.52,0,0,1,.44,0,.77.77,0,0,0,.48.08c.08-.05.17,0,.28.08a3,3,0,0,0,.86.42,2.59,2.59,0,0,1,.86.46,17.62,17.62,0,0,1,1.41,1.41,4,4,0,0,1,.88,1.77,9.87,9.87,0,0,1,.24,1.65,11.13,11.13,0,0,1,0,1.33,10.73,10.73,0,0,0,0,1.33l.08.5a3.37,3.37,0,0,1,0,.5,11.39,11.39,0,0,0,0,1.79,11.39,11.39,0,0,1,0,1.79,2.31,2.31,0,0,0,0,.52q0,.24.06.52a6,6,0,0,1,0,1.39,8,8,0,0,0,0,1.39q0,.52,0,1T62.14,307.78Zm-11.45,2.13a.62.62,0,0,0,.37,0,.37.37,0,0,0,.2-.2A.85.85,0,0,0,50.69,309.91Zm.19-16.68c-.05.05,0,.08,0,.08a.11.11,0,0,0,.12-.12.12.12,0,0,0,0-.08A.11.11,0,0,0,50.88,293.23Zm.44,4.62a.29.29,0,0,0-.16-.32.6.6,0,0,1-.24-.08.28.28,0,0,1,0,.12.27.27,0,0,0,0,.12c0,.16.07.24.2.24S51.32,297.91,51.32,297.85Zm-.12,8.64c.08-.05.11-.11.08-.16s-.05-.12-.16-.12-.11.11-.08.16A.16.16,0,0,0,51.2,306.49Zm.64-1.45h0l.08,0-.3-.14a.27.27,0,0,0-.26,0c-.08.05-.09.11,0,.16a.18.18,0,0,0,.22.08,1,1,0,0,1,.26,0Zm-.36-12c-.08,0-.11.05-.08.16a.11.11,0,0,0,.12.12c.05,0,.08,0,.08-.06s0,0,0-.06l.08,0c.05,0,.08,0,.08-.12l-.08,0c-.05,0-.08,0-.08,0S51.54,293,51.48,293Zm.68,2.09c-.05-.21-.13-.32-.24-.32s-.21.07-.16.2a.73.73,0,0,1,.06.2c0,.08.07.11.18.08A.14.14,0,0,0,52.17,295.12Zm-.24-3.78c-.08.05-.09.16,0,.32v0l.16-.06q.08,0,0-.18C52,291.36,52,291.32,51.93,291.34Zm.63,12.9a2,2,0,0,0-.26-.28s-.14,0-.3,0a1,1,0,0,0,.24.12Zm-.35-10.33a.13.13,0,0,0-.12.08l0,0c.05,0,.08,0,.08,0Zm0,13.46q0,.12.24.12c.08,0,.11,0,.08-.12a.24.24,0,0,0-.2-.12A.11.11,0,0,0,52.17,307.38Zm.2-11.25a.07.07,0,0,0-.08.08.13.13,0,0,0,.12.08q.16,0,0-.12S52.42,296.13,52.37,296.13Zm.15,13.75a1.17,1.17,0,0,0,.08-.72c-.19.16-.28.27-.28.32A1.24,1.24,0,0,0,52.52,309.87Zm0-7.52a.16.16,0,0,0,.12-.16.11.11,0,0,1,0-.08s0,0-.08,0-.12.11-.12.16S52.43,302.36,52.49,302.36Zm0-5.63a.07.07,0,0,0-.08-.08s0,0-.06,0a.07.07,0,0,0,0,.08s0,0,0,0,0,0,0,0Zm6.55,2a1.15,1.15,0,0,0,0-.36q0-.16-.06-.36-.08-.44-.14-.88a2.2,2.2,0,0,1,.06-.88V296a7.23,7.23,0,0,0,0-.74q0-.38-.12-.78a2.71,2.71,0,0,0-1.6-2.29,1.18,1.18,0,0,0-.44-.08,2.82,2.82,0,0,1-.48,0,1.46,1.46,0,0,0-.48,0l-.48.08a1.74,1.74,0,0,0-.7.3l-.62.46a1.57,1.57,0,0,0-.72,1l-.08.88a4.78,4.78,0,0,0,0,.88v.66a5.34,5.34,0,0,0,0,.66,8.3,8.3,0,0,1,0,1.15,8.15,8.15,0,0,0,0,1.15,5.18,5.18,0,0,1,0,.9l-.08.9q0,.48,0,1a3.87,3.87,0,0,0,0,1,5.43,5.43,0,0,1,.08,1.85,6.87,6.87,0,0,0-.08,1.81q.08.88.08,1.81a1.85,1.85,0,0,0,.16.64,2.68,2.68,0,0,0,1.1,1.33,3.88,3.88,0,0,0,1.62.48,2.05,2.05,0,0,0,1.56-.48.72.72,0,0,0,.2-.2.7.7,0,0,1,.2-.2,1.29,1.29,0,0,0,.54-.56,2.19,2.19,0,0,0,.22-.76,7.8,7.8,0,0,0,0-1.37,7.66,7.66,0,0,1,0-1.37.29.29,0,0,0,0-.24v-.52q.08-.92.12-1.89t0-1.89q0-.68,0-1.33A8.84,8.84,0,0,1,59.08,298.78Zm-5.87-6.67a.23.23,0,0,0,.08.16c.11,0,.16,0,.16-.12s0-.07-.12-.12S53.27,292.05,53.21,292.11Zm3-2c-.05.05,0,.08,0,.08s.07,0,.12,0a.12.12,0,0,0,0-.08C56.27,289.94,56.23,289.95,56.23,290.06Zm.56,22.31v-.08q0-.12-.2,0l-.26.2q-.14.12,0,.32a4.52,4.52,0,0,0,.44-.36Zm.8-22.15c-.13,0-.2.09-.2.28s.11.28.32.28.21-.07.16-.2a.3.3,0,0,1-.08-.22C57.79,290.26,57.73,290.22,57.59,290.22Zm.28,22.27a.51.51,0,0,1,.24-.12c.11,0,.15-.07.12-.12a.47.47,0,0,1-.2-.38.38.38,0,0,0-.2-.34c-.13-.05-.2,0-.2,0l-.14.3c0,.09,0,.19.14.3A2.51,2.51,0,0,1,57.87,312.48Zm1.53-20.66a1.51,1.51,0,0,0,0,.56c0,.05.15.08.36.08a1.52,1.52,0,0,0-.2-.3A.5.5,0,0,1,59.4,291.83Zm.8,8-.28-.12a.65.65,0,0,0-.32,0,1.85,1.85,0,0,1,.26.22Q60,300,60.21,299.78Zm.32,9.53c.13,0,.16,0,.08-.12a.24.24,0,0,1-.06-.22.15.15,0,0,0-.1-.18q-.24,0-.24.32l0,.08a.11.11,0,0,1-.14,0,.56.56,0,0,0-.14-.1c-.11,0-.17,0-.18.08a.74.74,0,0,1-.06.2c0,.05,0,.11.16.16a.54.54,0,0,0,.36,0Zm-.68-10q-.16,0,0,.12l.08,0c.05,0,.08,0,.08-.12A.16.16,0,0,1,59.84,299.3ZM61,303.16q.12-.08,0-.2a.18.18,0,0,1,0-.24.61.61,0,0,1-.36,0q-.32-.16-.4.06a.65.65,0,0,1-.28.34q.32.24.46.08l.26-.32c.13-.05.2,0,.2.12S60.94,303.21,61,303.16Zm-.68,1q.16,0,.16-.2t-.28-.24c-.11,0-.16.05-.16.24S60.18,304.2,60.37,304.2Zm0-3.26c0-.08,0-.12-.08-.12s-.12.05-.12.16a.07.07,0,0,0,.08.08A.11.11,0,0,0,60.33,300.95Zm.08,6c.05,0,.08-.05.08-.16s0-.35-.12-.4h-.12a.22.22,0,0,0-.06.2,1.3,1.3,0,0,1,0,.2C60.21,307,60.27,307,60.41,307Zm0-12.82q-.16,0-.08.12l.08.08s.07,0,.12-.08A.11.11,0,0,0,60.45,294.16Zm.16,5.06c-.05,0-.08.05-.08.08s0,0,.08,0l.08,0,.08,0v-.12A.23.23,0,0,0,60.61,299.22Zm.12-4.54c-.08,0-.12,0-.12.08s0,.12.08.12.08,0,.08,0A.23.23,0,0,0,60.73,294.68Zm.24.72c0-.24-.07-.36-.2-.36s-.12.11-.12.24.07.27.2.24A.11.11,0,0,0,61,295.4Zm-.2,3.34a.43.43,0,0,1,.24-.26.43.43,0,0,0,.24-.26q-.4-.08-.48,0T60.77,298.74Zm.32,2.73c.08,0,.09-.07,0-.2a.12.12,0,0,0-.08,0l-.12,0c0,.05,0,.09,0,.1a.08.08,0,0,1,0,.06Q61,301.55,61.09,301.47Zm.32,1.57a.41.41,0,0,0,0-.3.93.93,0,0,1,0-.26c0-.13-.09-.17-.28-.12s-.15.11-.12.18a.5.5,0,0,1,0,.18c.13-.05.2,0,.2.1A.2.2,0,0,0,61.41,303Zm0,2.17c.05-.11,0-.18,0-.22a.77.77,0,0,1-.2-.14c-.13.19-.12.33,0,.44A.27.27,0,0,0,61.45,305.21Zm-.08,2.61c0-.08,0-.12-.08-.12s-.12,0-.12.08a.1.1,0,0,0,0,.16C61.25,308,61.32,307.93,61.37,307.82Zm.2-8.12s0-.07-.08-.12-.12,0-.12.08,0,.12.08.12S61.57,299.76,61.57,299.7Z" transform="translate(0 -0.34)"/><path class="cls-6" d="M70.45,306.54v4.26a3,3,0,0,1,0,.48,2.87,2.87,0,0,0,0,.48,1.89,1.89,0,0,1,0,.72c0,.24-.07.48-.1.72a.58.58,0,0,1-.26.5,1.76,1.76,0,0,1-.58.26,2.11,2.11,0,0,1-.82,0l-.82-.16q-.4,0-.4-.48V312.2c0-.32,0-.65,0-1a4.82,4.82,0,0,0-.06-1,.65.65,0,0,1,0-.32,2.29,2.29,0,0,0,.1-.78,5.49,5.49,0,0,0-.1-.78,3,3,0,0,0,0-.36.73.73,0,0,1,.06-.36.63.63,0,0,0,0-.44,8,8,0,0,1-.06-1.27q0-.62.06-1.23a5.38,5.38,0,0,0-.06-.8,3.23,3.23,0,0,1,0-.8q0-.92,0-1.89a17.31,17.31,0,0,1,0-2l.08-2q0-.64-.06-1.27t-.06-1.27v-1.11a7.72,7.72,0,0,1,.08-1.1,4.87,4.87,0,0,0,0-1.07q0-.5,0-1.06a1.31,1.31,0,0,1,.28-.84,1.47,1.47,0,0,1,1-.56q.8-.08,1.55-.12a5.83,5.83,0,0,1,1.51.12h.16a3.81,3.81,0,0,1,1.89.3,10.25,10.25,0,0,1,1.65.94,3.24,3.24,0,0,1,.64.56,2.82,2.82,0,0,0,.68.56c.08.08.12.13.12.16a4.74,4.74,0,0,0,.42.92,4.85,4.85,0,0,1,.42.92,2.28,2.28,0,0,1,.12.42,2.4,2.4,0,0,1,0,.42,7.31,7.31,0,0,0,0,1.08,5,5,0,0,1,0,1.09q0,.56,0,1.17a3.44,3.44,0,0,1-.2,1.17q-.28.8-.62,1.63a3.84,3.84,0,0,1-1,1.43l-.32.32a1.14,1.14,0,0,0-.36.68,2.16,2.16,0,0,0,.08.8,14.63,14.63,0,0,0,.84,2.45,23.8,23.8,0,0,1,.92,2.41,1,1,0,0,0,.24.52,3.77,3.77,0,0,1,.64,1.21q.2.64.36,1.33a4.77,4.77,0,0,0,.32.9l.4.86q.24.36,0,.6l-.3.32a.38.38,0,0,1-.42.08l-.84-.16a2.25,2.25,0,0,0-.84,0,.58.58,0,0,1-.48-.28,1.83,1.83,0,0,1-.48-.64l-.32-.72-.4-1.21q-.2-.6-.44-1.17-.68-1.53-1.37-3.22a6,6,0,0,1-.48-1.33,7.43,7.43,0,0,0-.38-1q-.22-.48-.46-1a.12.12,0,0,0,0-.08,2.57,2.57,0,0,1-.24-.28.3.3,0,0,0-.32-.12.76.76,0,0,0-.6.56q-.08.4-.18.76a1.78,1.78,0,0,0,0,.8,4.63,4.63,0,0,1,0,.74c0,.25,0,.52,0,.78Zm-2.25-9.81a.07.07,0,0,0,.08-.08.13.13,0,0,0-.12-.08s0,0,0,.08S68.12,296.73,68.2,296.73Zm0-4.3c-.11,0-.13.05-.08.16s0,.12.08.12.16,0,.08-.12A.16.16,0,0,0,68.24,292.43Zm.08,1.53c0,.08.05.12.16.12s.2.05.2-.08-.05-.08-.16-.08S68.35,293.88,68.32,294ZM69,303.4c0-.05.09-.08.18-.08s.11-.05.06-.16-.11-.11-.16-.1l-.16.06h-.08c-.16,0-.25,0-.28.14a1.37,1.37,0,0,0,0,.26q0,.16.08.18a.49.49,0,0,0,.24,0l.16,0a.23.23,0,0,0,.16,0,.11.11,0,0,0,.12-.12c0-.05,0-.08,0-.08a.11.11,0,0,1-.08,0A.23.23,0,0,1,69,303.4Zm.76,10-.48-.32a3.54,3.54,0,0,1-.4-.28q-.16.4-.2.52a.63.63,0,0,0,.52.08A1,1,0,0,1,69.73,313.37ZM69,309.23c0-.05,0-.08,0-.08h-.08c0,.08,0,.12,0,.12s0,0,0,0S68.94,309.23,69,309.23Zm.52-19c0-.08,0-.12-.08-.12a.11.11,0,0,0-.12.12s0,0,.12,0S69.49,290.3,69.49,290.22Zm.24,22.59a.12.12,0,0,0,0-.08l-.08,0c0,.05,0,.09.08.12A.12.12,0,0,0,69.73,312.8Zm0-8a.18.18,0,0,0,.1-.1l.06-.14c.05-.11,0-.16-.08-.16s-.17,0-.12.12a.25.25,0,0,1,0,.14S69.69,304.71,69.77,304.77Zm.12,7.52c0-.11,0-.16-.12-.16s-.08,0-.08.12a.07.07,0,0,0,.08.08C69.85,312.38,69.89,312.36,69.89,312.28Zm5-16.12v-.76q0-.6-.12-1.19a2.53,2.53,0,0,0-.44-1.1l-.3-.36a.9.9,0,0,0-.34-.24.76.76,0,0,1-.44-.36l-.14-.12-.14-.12a1.7,1.7,0,0,0-.94-.34,3.88,3.88,0,0,0-1,.1.33.33,0,0,0-.28.32q-.08.44-.12.86t-.08.86q0,.93,0,1.79a15.49,15.49,0,0,1-.06,1.75,7,7,0,0,0,0,1.69,1,1,0,0,0,.92,1,6.42,6.42,0,0,0,.72,0,2.81,2.81,0,0,0,.68-.16,3.8,3.8,0,0,0,1-.6,2.91,2.91,0,0,0,.7-.92,3.39,3.39,0,0,0,.32-1A4.69,4.69,0,0,0,74.87,296.17Zm-2.09-6.71a.18.18,0,0,0-.2,0c-.11,0-.16,0-.16.12s.12.15.2.12S72.78,289.59,72.78,289.45Zm-.16,12.14a.11.11,0,0,0-.12-.12c-.05.05-.08.09-.08.12a.07.07,0,0,0,.08.08C72.58,301.67,72.62,301.65,72.62,301.59Zm-.12,1a.13.13,0,0,0,.14,0,.25.25,0,0,1,.14,0,.19.19,0,0,0,.14-.06.11.11,0,0,0,0-.14.11.11,0,0,0-.12-.12c-.13-.05-.23,0-.28,0A.28.28,0,0,0,72.5,302.56ZM74,305.21a1.38,1.38,0,0,0-.36-.32.22.22,0,0,0-.28,0,.17.17,0,0,0-.06.16.77.77,0,0,0,.06.16q0,.16.24,0a.18.18,0,0,1,.2,0A.18.18,0,0,0,74,305.21Zm-.32-15.11a.2.2,0,0,0-.24-.12c-.11.05-.15.11-.12.16s.12.19.2.16S73.63,290.18,73.63,290.1Zm.32.24s0,0,0,0,0,0,0,0l0,0a.12.12,0,0,1,0,.08Zm0,14.35c.11,0,.16,0,.16-.08s0-.12-.08-.12l-.12.12C73.86,304.66,73.87,304.69,74,304.69Zm1.37-3.46a.44.44,0,0,0,0-.52,1.35,1.35,0,0,1-.26-.4c0-.05-.12-.08-.28-.08a.35.35,0,0,0-.36.28c0,.13,0,.19.14.16a.31.31,0,0,1,.22,0c.08,0,.12,0,.12,0a.24.24,0,0,1-.16.16c-.08,0-.13.11-.16.24q.28-.28.42-.12A.88.88,0,0,0,75.32,301.23Zm.08-2.13c0-.05,0-.08,0-.08h0l0,0c0,.05,0,.08,0,.08s0,0,0,0S75.37,299.1,75.4,299.1Zm.52-5.55q-.08-.2-.24-.2l-.18.06c-.07,0-.1.07-.1.18s.05.17.16.12a.33.33,0,0,1,.2,0C75.84,293.71,75.89,293.66,75.92,293.55Zm-.28-1.33c0-.08,0-.11-.12-.08a.07.07,0,0,0-.08.08c0,.13,0,.16.12.08S75.66,292.28,75.64,292.23Zm0,2.61A.42.42,0,0,0,76,295a1.52,1.52,0,0,0,.32-.12c.11-.05.13-.12.08-.2s-.12-.09-.2,0a.17.17,0,0,1-.24.1A.32.32,0,0,0,75.64,294.84Zm.08-.48.24,0a.32.32,0,0,0,.24-.06.08.08,0,0,0,0-.06.08.08,0,0,1,0-.06.35.35,0,0,0-.44.08ZM76.8,309a1.45,1.45,0,0,0-.28-.52q-.08-.2-.24-.08a.44.44,0,0,0-.26.38.46.46,0,0,0,.18.42q.2.2.32,0a.23.23,0,0,1,.16-.08A.13.13,0,0,0,76.8,309Zm-.16,3.54c-.08,0-.12,0-.12.08s0,.08,0,.08.12,0,.12,0S76.7,312.62,76.64,312.56Zm-.08-17.48c.11.16.21.23.3.22a1,1,0,0,0,.34-.14.51.51,0,0,0-.3-.12A1.81,1.81,0,0,0,76.56,295.08Zm.6,16.12-.08-.06-.08-.06v.08s0,.05.12.08Zm.08-13.71a.13.13,0,0,0-.12-.08.16.16,0,0,0,0,.12l.08,0A.07.07,0,0,0,77.25,297.49ZM77.93,312c-.08,0-.09.09,0,.2s.12.15.2.12.07-.05,0-.08a.16.16,0,0,1,0-.12C78,312.08,78,312,77.93,312Zm0,1.21.2-.06c.05,0,.08-.07.08-.18s-.05-.13-.16-.08a.14.14,0,0,0-.08.14A.4.4,0,0,1,77.93,313.25Z" transform="translate(0 -0.34)"/><path class="cls-6" d="M114.66,307.78a3.69,3.69,0,0,1,0,.76,2.07,2.07,0,0,1-.2.72,9.25,9.25,0,0,0-.36.92,9.52,9.52,0,0,1-.36.92,3.21,3.21,0,0,1-1,1.27,9,9,0,0,1-1.29.82,4.84,4.84,0,0,1-.64.34,4,4,0,0,1-.64.22,5.65,5.65,0,0,1-4.43-.64,10.17,10.17,0,0,1-1.06-.68,8.63,8.63,0,0,1-.94-.8,3,3,0,0,1-.35-.4.88.88,0,0,1-.14-.52l-.08-.12a3.52,3.52,0,0,1-.43-1.59q0-.82-.06-1.87a2.1,2.1,0,0,1,0-.82,3.54,3.54,0,0,0,0-1.06q0-.44-.06-.86a3.79,3.79,0,0,1,.06-.86,3.64,3.64,0,0,0,0-1.21,9.2,9.2,0,0,1-.16-1.25v-.94a5.73,5.73,0,0,1,.08-.94,2.23,2.23,0,0,0,0-.84,2.92,2.92,0,0,1,0-.84,1.48,1.48,0,0,0,0-.24.49.49,0,0,1,0-.24,4.31,4.31,0,0,0,0-1q0-.48-.08-1a4.33,4.33,0,0,1,.2-1.77,5.78,5.78,0,0,1,.84-1.61,5.67,5.67,0,0,0,.36-.48,2.85,2.85,0,0,1,.36-.44,6.82,6.82,0,0,1,1.71-1.27,5.25,5.25,0,0,1,2-.54,1.48,1.48,0,0,1,.48,0,1.18,1.18,0,0,0,.52,0,.52.52,0,0,1,.44,0,.77.77,0,0,0,.48.08c.08-.05.17,0,.28.08a3,3,0,0,0,.86.42,2.59,2.59,0,0,1,.86.46,17.62,17.62,0,0,1,1.41,1.41,4,4,0,0,1,.88,1.77,9.87,9.87,0,0,1,.24,1.65,11.13,11.13,0,0,1,0,1.33,10.73,10.73,0,0,0,0,1.33l.08.5a3.37,3.37,0,0,1,0,.5,11.39,11.39,0,0,0,0,1.79,11.39,11.39,0,0,1,0,1.79,2.31,2.31,0,0,0,0,.52q0,.24.06.52a6,6,0,0,1,0,1.39,8,8,0,0,0,0,1.39q0,.52,0,1T114.66,307.78Zm-11.45,2.13a.62.62,0,0,0,.37,0,.37.37,0,0,0,.2-.2A.85.85,0,0,0,103.22,309.91Zm.19-16.68c-.05.05,0,.08,0,.08a.11.11,0,0,0,.12-.12.12.12,0,0,0,0-.08A.11.11,0,0,0,103.41,293.23Zm.44,4.62a.29.29,0,0,0-.16-.32.6.6,0,0,1-.24-.08.28.28,0,0,1,0,.12.27.27,0,0,0,0,.12c0,.16.07.24.2.24S103.85,297.91,103.85,297.85Zm-.12,8.64c.08-.05.11-.11.08-.16s-.05-.12-.16-.12-.11.11-.08.16A.16.16,0,0,0,103.73,306.49Zm.64-1.45h0l.08,0-.3-.14a.27.27,0,0,0-.26,0c-.08.05-.09.11,0,.16a.18.18,0,0,0,.22.08,1,1,0,0,1,.26,0ZM104,293c-.08,0-.11.05-.08.16a.11.11,0,0,0,.12.12c.05,0,.08,0,.08-.06s0,0,0-.06l.08,0c.05,0,.08,0,.08-.12l-.08,0c-.05,0-.08,0-.08,0S104.07,293,104,293Zm.68,2.09c-.05-.21-.13-.32-.24-.32s-.21.07-.16.2a.73.73,0,0,1,.06.2c0,.08.07.11.18.08A.14.14,0,0,0,104.7,295.12Zm-.24-3.78c-.08.05-.09.16,0,.32v0l.16-.06q.08,0,0-.18C104.58,291.36,104.54,291.32,104.46,291.34Zm.63,12.9a2,2,0,0,0-.26-.28s-.14,0-.3,0a1,1,0,0,0,.24.12Zm-.35-10.33a.13.13,0,0,0-.12.08l0,0c.05,0,.08,0,.08,0Zm0,13.46q0,.12.24.12c.08,0,.11,0,.08-.12a.24.24,0,0,0-.2-.12A.11.11,0,0,0,104.7,307.38Zm.2-11.25a.07.07,0,0,0-.08.08.13.13,0,0,0,.12.08q.16,0,0-.12S105,296.13,104.9,296.13Zm.15,13.75a1.17,1.17,0,0,0,.08-.72c-.19.16-.28.27-.28.32A1.24,1.24,0,0,0,105,309.87Zm0-7.52a.16.16,0,0,0,.12-.16.11.11,0,0,1,0-.08s0,0-.08,0-.12.11-.12.16S105,302.36,105,302.36Zm0-5.63a.07.07,0,0,0-.08-.08s0,0-.06,0a.07.07,0,0,0,0,.08s0,0,0,0,0,0,0,0Zm6.55,2a1.15,1.15,0,0,0,0-.36q0-.16-.06-.36-.08-.44-.14-.88a2.2,2.2,0,0,1,.06-.88V296a7.23,7.23,0,0,0,0-.74q0-.38-.12-.78a2.71,2.71,0,0,0-1.6-2.29,1.18,1.18,0,0,0-.44-.08,2.82,2.82,0,0,1-.48,0,1.46,1.46,0,0,0-.48,0l-.48.08a1.74,1.74,0,0,0-.7.3l-.62.46a1.57,1.57,0,0,0-.72,1l-.08.88a4.78,4.78,0,0,0,0,.88v.66a5.34,5.34,0,0,0,0,.66,8.3,8.3,0,0,1,0,1.15,8.15,8.15,0,0,0,0,1.15,5.18,5.18,0,0,1,0,.9l-.08.9q0,.48,0,1a3.87,3.87,0,0,0,0,1,5.43,5.43,0,0,1,.08,1.85,6.87,6.87,0,0,0-.08,1.81q.08.88.08,1.81a1.85,1.85,0,0,0,.16.64,2.68,2.68,0,0,0,1.1,1.33,3.88,3.88,0,0,0,1.62.48,2.05,2.05,0,0,0,1.56-.48.72.72,0,0,0,.2-.2.7.7,0,0,1,.2-.2,1.29,1.29,0,0,0,.54-.56,2.19,2.19,0,0,0,.22-.76,7.8,7.8,0,0,0,0-1.37,7.66,7.66,0,0,1,0-1.37.29.29,0,0,0,0-.24v-.52q.08-.92.12-1.89t0-1.89q0-.68,0-1.33A8.84,8.84,0,0,1,111.61,298.78Zm-5.87-6.67a.23.23,0,0,0,.08.16c.11,0,.16,0,.16-.12s0-.07-.12-.12S105.79,292.05,105.74,292.11Zm3-2c-.05.05,0,.08,0,.08s.07,0,.12,0a.12.12,0,0,0,0-.08C108.8,289.94,108.76,289.95,108.76,290.06Zm.56,22.31v-.08q0-.12-.2,0l-.26.2q-.14.12,0,.32a4.52,4.52,0,0,0,.44-.36Zm.8-22.15c-.13,0-.2.09-.2.28s.11.28.32.28.21-.07.16-.2a.3.3,0,0,1-.08-.22C110.32,290.26,110.26,290.22,110.12,290.22Zm.28,22.27a.51.51,0,0,1,.24-.12c.11,0,.15-.07.12-.12a.47.47,0,0,1-.2-.38.38.38,0,0,0-.2-.34c-.13-.05-.2,0-.2,0l-.14.3c0,.09,0,.19.14.3A2.51,2.51,0,0,1,110.4,312.48Zm1.53-20.66a1.51,1.51,0,0,0,0,.56c0,.05.15.08.36.08a1.52,1.52,0,0,0-.2-.3A.5.5,0,0,1,111.93,291.83Zm.8,8-.28-.12a.65.65,0,0,0-.32,0,1.85,1.85,0,0,1,.26.22Q112.53,300,112.73,299.78Zm.32,9.53c.13,0,.16,0,.08-.12a.24.24,0,0,1-.06-.22.15.15,0,0,0-.1-.18q-.24,0-.24.32l0,.08a.11.11,0,0,1-.14,0,.56.56,0,0,0-.14-.1c-.11,0-.17,0-.18.08a.74.74,0,0,1-.06.2c0,.05,0,.11.16.16a.54.54,0,0,0,.36,0Zm-.68-10q-.16,0,0,.12l.08,0c.05,0,.08,0,.08-.12A.16.16,0,0,1,112.37,299.3Zm1.21,3.86q.12-.08,0-.2a.18.18,0,0,1,0-.24.61.61,0,0,1-.36,0q-.32-.16-.4.06a.65.65,0,0,1-.28.34q.32.24.46.08l.26-.32c.13-.05.2,0,.2.12S113.47,303.21,113.58,303.16Zm-.68,1q.16,0,.16-.2t-.28-.24c-.11,0-.16.05-.16.24S112.71,304.2,112.9,304.2Zm0-3.26c0-.08,0-.12-.08-.12s-.12.05-.12.16a.07.07,0,0,0,.08.08A.11.11,0,0,0,112.86,300.95Zm.08,6c.05,0,.08-.05.08-.16s0-.35-.12-.4h-.12a.22.22,0,0,0-.06.2,1.3,1.3,0,0,1,0,.2C112.73,307,112.8,307,112.94,307Zm0-12.82q-.16,0-.08.12l.08.08s.07,0,.12-.08A.11.11,0,0,0,113,294.16Zm.16,5.06c-.05,0-.08.05-.08.08s0,0,.08,0l.08,0,.08,0v-.12A.23.23,0,0,0,113.14,299.22Zm.12-4.54c-.08,0-.12,0-.12.08s0,.12.08.12.08,0,.08,0A.23.23,0,0,0,113.26,294.68Zm.24.72c0-.24-.07-.36-.2-.36s-.12.11-.12.24.07.27.2.24A.11.11,0,0,0,113.5,295.4Zm-.2,3.34a.43.43,0,0,1,.24-.26.43.43,0,0,0,.24-.26q-.4-.08-.48,0T113.3,298.74Zm.32,2.73c.08,0,.09-.07,0-.2a.12.12,0,0,0-.08,0l-.12,0c0,.05,0,.09,0,.1a.08.08,0,0,1,0,.06Q113.5,301.55,113.62,301.47Zm.32,1.57a.41.41,0,0,0,0-.3.93.93,0,0,1,0-.26c0-.13-.09-.17-.28-.12s-.15.11-.12.18a.5.5,0,0,1,0,.18c.13-.05.2,0,.2.1A.2.2,0,0,0,113.94,303Zm0,2.17c.05-.11,0-.18,0-.22a.77.77,0,0,1-.2-.14c-.13.19-.12.33,0,.44A.27.27,0,0,0,114,305.21Zm-.08,2.61c0-.08,0-.12-.08-.12s-.12,0-.12.08a.1.1,0,0,0,0,.16C113.78,308,113.85,307.93,113.9,307.82Zm.2-8.12s0-.07-.08-.12-.12,0-.12.08,0,.12.08.12S114.1,299.76,114.1,299.7Z" transform="translate(0 -0.34)"/><path class="cls-6" d="M131.38,290.9q0,.44,0,.92a7.11,7.11,0,0,1,0,.92,5.16,5.16,0,0,0,0,.64,5.27,5.27,0,0,1,0,.64q0,.93,0,1.85t0,1.85q0,1.09,0,2.17t0,2.17v1.57a15.56,15.56,0,0,0,.08,1.57,1.38,1.38,0,0,1,0,.4,3.82,3.82,0,0,0,0,.4,2.42,2.42,0,0,0,0,.88,6,6,0,0,1,.08,1,5.91,5.91,0,0,0,.08,1,2.25,2.25,0,0,1,0,.84,4.26,4.26,0,0,0-.08.84,2.91,2.91,0,0,0,0,1,2.77,2.77,0,0,1,.06.74c0,.25,0,.5,0,.74a1,1,0,0,1-.32.76,1.3,1.3,0,0,1-.88.28,2,2,0,0,1-1.93-1.17,6,6,0,0,1-.52-1.21q-.2-.64-.44-1.25l-.22-.6a2.34,2.34,0,0,0-.3-.56.37.37,0,0,1-.1-.22,1.58,1.58,0,0,0-.06-.26,7.29,7.29,0,0,0-.4-1.19q-.24-.54-.56-1.11t-.44-1l-.4-1-.64-1.59-.64-1.59a2.11,2.11,0,0,0-.2-.38l-.24-.34q-.44-.4-.6.12a2.86,2.86,0,0,0-.14.76,5.32,5.32,0,0,0,0,.8,8.72,8.72,0,0,1,0,2v.4q0,.76,0,1.51t0,1.51v2q0,1-.08,2,0,.32,0,.64t0,.64a.92.92,0,0,1-.24.68.81.81,0,0,1-.68.2L121,314a2.78,2.78,0,0,1-.66-.16.79.79,0,0,1-.64-.76q0-.64-.06-1.27a5.73,5.73,0,0,1,0-1.27,3.32,3.32,0,0,0,0-.72.56.56,0,0,1,0-.24,5.33,5.33,0,0,0,0-1.13l-.08-1.12a6.27,6.27,0,0,1,0-1.33,8.72,8.72,0,0,0,0-1.33q0-1,0-2t0-2q0-.68,0-1.41a7,7,0,0,0-.1-1.41,1.11,1.11,0,0,0,0-.3,1.07,1.07,0,0,1,0-.3,1.82,1.82,0,0,1-.06-.58q0-.26.06-.58v-1.19a8.15,8.15,0,0,0-.08-1.15,1.67,1.67,0,0,1,0-.52,3.23,3.23,0,0,0,0-.52V289.9a1.7,1.7,0,0,1,.08-.6.87.87,0,0,1,.28-.38,1,1,0,0,1,.48,0l.2,0a.49.49,0,0,0,.24,0,1.28,1.28,0,0,1,1.13.1,2.17,2.17,0,0,1,.72.9q.2.48.38,1t.38.92l1,2.63q.52,1.31,1.09,2.59.28.64.56,1.23a8.4,8.4,0,0,1,.48,1.27l.24.94a5.54,5.54,0,0,0,.32.9,3.46,3.46,0,0,0,.26.5,4.64,4.64,0,0,0,.3.42.38.38,0,0,0,.4.24c.13,0,.21-.07.24-.14l.12-.26a1.93,1.93,0,0,0,.14-1,5.15,5.15,0,0,1,0-1,6.75,6.75,0,0,0-.06-1.37,5.14,5.14,0,0,1,0-1.37q0-.44,0-.9v-.9a3.35,3.35,0,0,0-.08-.72,1.81,1.81,0,0,1,0-.76,3.06,3.06,0,0,0,0-1.1,3.81,3.81,0,0,1-.08-1.11q0-.52,0-1a5.26,5.26,0,0,1,.06-1,1.09,1.09,0,0,1,.28-.52q.2-.2.44-.4a.13.13,0,0,1,.16,0,1.62,1.62,0,0,0,.76,0,1.64,1.64,0,0,1,.76,0q.68.12.68.68c0,.24,0,.48.06.7A2.57,2.57,0,0,1,131.38,290.9Zm-11.25,2.33.12-.12c0-.11,0-.16-.12-.16s-.12,0-.12.08,0,.09,0,.12Zm.32-1.77a1.93,1.93,0,0,1,0-.48.62.62,0,0,1,.34-.44l-.44.14c-.11,0-.16.14-.16.3v.3Q120.17,291.42,120.45,291.46Zm.72-1.29v-.12a.51.51,0,0,0-.42-.32.57.57,0,0,0-.5.16.44.44,0,0,0,0,.2.23.23,0,0,0,.16,0,.41.41,0,0,1,.56.12Q121.09,290.42,121.17,290.18Zm-.52,21.74a.88.88,0,0,1-.28.12c-.11,0-.13.11-.08.24s0,.16.08.16.16,0,.16-.08a2,2,0,0,0,.06-.22A1.76,1.76,0,0,1,120.65,311.92Zm.12-6c-.16,0-.24.09-.24.28a.46.46,0,0,0,.48.44.21.21,0,0,0,.24-.24.44.44,0,0,0-.16-.34A.49.49,0,0,0,120.77,305.89Zm.08-12.26a.25.25,0,0,0,0-.14s-.05,0-.08,0a.07.07,0,0,0-.08.08c.05.11.11.16.16.16S120.85,293.71,120.85,293.63Zm0,15.23c.05-.05,0-.08-.08-.08s-.08,0-.08,0,0,.16.08.16S120.85,308.95,120.85,308.87Zm.24,4.34.32-.2.24-.16.14-.12s0-.07,0-.12-.11-.09-.24,0-.07.06-.06,0a.09.09,0,0,0,0-.1c-.11-.11-.2-.15-.28-.12s-.13.11-.08.24v.28A1.75,1.75,0,0,1,121.09,313.21Zm.72-3.26c0-.08,0-.12-.08-.12s-.2,0-.2.08,0,.12.08.12S121.76,310.06,121.82,310Zm0,3.5.22-.14q.1-.06.06-.26A.16.16,0,0,0,122,313c-.13.05-.19.12-.18.2a.33.33,0,0,1,0,.2c-.05.05-.08.09-.08.12S121.78,313.5,121.86,313.45Zm.08-1.89c-.13.05-.2.12-.2.2s.08.28.24.28.12,0,.12-.08v-.16C122.1,311.64,122,311.56,121.94,311.56Zm-.08-8q-.16,0,0,.12c.05.05.09.08.12.08s.09,0,.1,0,0,0,0-.06A.14.14,0,0,0,121.86,303.56Zm1-6.87q-.24-.16-.36,0A.42.42,0,0,0,122.86,296.69Zm3.3,4.3a.19.19,0,0,0-.2.16.14.14,0,0,0,.16.16.11.11,0,0,0,.12-.12C126.24,301.08,126.21,301,126.16,301Zm3,7.31-.22-.16s-.13,0-.26,0l.26.06Zm.6-16.92a.12.12,0,0,0-.08,0c-.08,0-.12.07-.12.2s0,.09.08,0S129.77,291.52,129.77,291.38Zm-.12,1c.08,0,.12,0,.12-.08s0-.08,0-.08-.08,0-.08,0S129.6,292.36,129.65,292.39Zm.28,18.37h-.12l-.14,0s0,0,0,.1.09.05.12,0A.26.26,0,0,1,129.94,310.76Zm.2-19.21c-.11,0-.16,0-.16.06a.14.14,0,0,1-.08.14c-.05.11-.07.17,0,.2s.21,0,.16-.12a.17.17,0,0,1,.1-.14C130.18,291.64,130.19,291.6,130.14,291.54ZM129.86,302a1.26,1.26,0,0,0,.5.06.64.64,0,0,1,.46.14c.08.05.12,0,.12-.08s0-.07,0-.12a.61.61,0,0,0-.48-.24l-.32.06A.42.42,0,0,0,129.86,302Zm.08-12.1c.05.05.09.07.12.06l.12-.06c.08,0,.13,0,.14.06a.35.35,0,0,0,.1.18.31.31,0,0,0,.22,0l.18-.08c.05-.05.05-.12,0-.2A.51.51,0,0,0,129.94,289.9Zm.6,6v-.08a.5.5,0,0,1-.12-.2.11.11,0,0,0-.16-.08q-.2.08-.12.36l0,.08a.84.84,0,0,1,.06.16c0,.05.06.07.14,0S130.54,296,130.54,295.88Zm-.2,14.87v-.08l-.08,0c-.05.05,0,.08,0,.08A0,0,0,0,0,130.34,310.76Zm.44-17.32a.34.34,0,0,1-.32,0c-.11-.05-.17,0-.2.2a.3.3,0,0,0,.1.3c.09.09.18.13.26.1s.24-.13.24-.24A1,1,0,0,0,130.78,293.43Zm0-2.33a1,1,0,0,0,.12-.2c0-.05,0-.07,0-.06a.18.18,0,0,1-.14,0c-.08,0-.12,0-.12.08S130.63,291,130.74,291.1Zm.2,4V295s0-.06-.12-.06a.23.23,0,0,0-.08.16c0,.11,0,.16.12.16S130.94,295.2,130.94,295.12Zm.16,12.78a.07.07,0,0,0-.08-.08.12.12,0,0,1-.08,0,0,0,0,0,0,0,0c0,.13,0,.16.12.08A.07.07,0,0,0,131.1,307.9Z" transform="translate(0 -0.34)"/><path class="cls-6" d="M144.2,314l-2.11,0q-1.07,0-2.11,0a3.23,3.23,0,0,0-.52,0,1.7,1.7,0,0,1-.52,0,1.63,1.63,0,0,1-.52-.08l-.48-.16a1.05,1.05,0,0,1-.68-1.33.27.27,0,0,0,0-.28,3.32,3.32,0,0,1-.08-.72v-.72q0-.4,0-.78c0-.25,0-.52,0-.78a12.64,12.64,0,0,1,0-1.43q0-.7.08-1.39c0-.37,0-.75,0-1.13s0-.75,0-1.12a.9.9,0,0,0-.1-.4.47.47,0,0,1,0-.4,3.4,3.4,0,0,0,0-.9,5.45,5.45,0,0,1,0-.94s0,0,0,0a5.14,5.14,0,0,1,0-1.21,5.56,5.56,0,0,0,0-1.25v-.12a5.83,5.83,0,0,0,.1-1.27q0-.62-.06-1.31a1.82,1.82,0,0,1,0-.26,2.16,2.16,0,0,0,0-.3v-.6a2.49,2.49,0,0,0-.08-.6,1.56,1.56,0,0,1,0-.6,2.31,2.31,0,0,0,0-.6,4.67,4.67,0,0,1,0-1.73,6.39,6.39,0,0,0,0-1,1.47,1.47,0,0,1,1-1.69.7.7,0,0,1,.2-.08,1.87,1.87,0,0,0,.72,0,1.89,1.89,0,0,1,.72,0q.8.08,1.65.1a13.29,13.29,0,0,0,1.65-.06,13.14,13.14,0,0,1,1.63-.06l1.63,0a1.25,1.25,0,0,1,.48.1l.48.18a.59.59,0,0,1,.32.42,3.63,3.63,0,0,1,0,.54,1.51,1.51,0,0,1,0,.6,1.14,1.14,0,0,0,0,.6.29.29,0,0,1-.16.28,2.16,2.16,0,0,1-1.29.4l-.9,0a6.86,6.86,0,0,0-.9,0,3.38,3.38,0,0,1-.9,0l-.9-.08a2.14,2.14,0,0,0-.82,0c-.25.05-.52.12-.78.2a1.18,1.18,0,0,0-.76,1.13q0,.68-.06,1.31t0,1.31a9,9,0,0,1,.06,1.33q0,.64,0,1.33a1.1,1.1,0,0,0,.1.46,4.1,4.1,0,0,0,.22.42.26.26,0,0,0,.24.16l.62.14a1.4,1.4,0,0,0,.62,0l.4-.06a.85.85,0,0,1,.4.06.52.52,0,0,0,.4,0,.94.94,0,0,1,.66,0l.62.24q.32.08.28.36a3,3,0,0,0,.06.9,1.87,1.87,0,0,1,0,.9,1.2,1.2,0,0,1-.26.52.49.49,0,0,1-.46.16,6.66,6.66,0,0,0-.72,0,3.26,3.26,0,0,1-.72,0l-.3-.06a1,1,0,0,0-.34,0,2,2,0,0,0-1.69,1.33.23.23,0,0,0,0,.16q0,.56,0,1.15v1.15a7.07,7.07,0,0,0,0,.74,3.9,3.9,0,0,1,0,.78,5.54,5.54,0,0,0,0,.94,2.73,2.73,0,0,0,.24.9,1.3,1.3,0,0,0,.84.72,4.44,4.44,0,0,0,1.25.2q.4,0,.78,0h1.45a2.58,2.58,0,0,1,.62.08,1.74,1.74,0,0,0,.34,0h.34a1.74,1.74,0,0,1,.84,0,1.25,1.25,0,0,1,.52.34,1.37,1.37,0,0,1,.08.58q0,.32.06.6t0,.6a1.09,1.09,0,0,1-.16.52,1,1,0,0,1-.48.28,3.62,3.62,0,0,1-.68.1l-.72,0a4.31,4.31,0,0,1-.72,0l-.72,0Zm-5.67-12.78-.26-.28a1,1,0,0,0-.22-.2c-.13-.05-.21-.05-.24,0a.19.19,0,0,0-.1.2.71.71,0,0,0,.06.2.14.14,0,0,0,.06.12s.09,0,.14,0a.16.16,0,0,1,.24,0A.3.3,0,0,0,138.54,301.19Zm-.68,5.1c.11-.05.16-.12.16-.2a.11.11,0,0,0-.12-.12c-.11,0-.16.07-.16.2A.11.11,0,0,0,137.85,306.29Zm.48-3.82a.81.81,0,0,1,.14-.4,1,1,0,0,1,.22-.2.8.8,0,0,0,.38-.56,1,1,0,0,0-.14-.68q-.08-.16-.2-.12c-.08.05-.09.13,0,.24a.39.39,0,0,1,0,.6,1,1,0,0,0-.32.3.71.71,0,0,1-.44.26l.22.22A.89.89,0,0,1,138.34,302.48Zm-.12-5.87a.08.08,0,1,0-.16,0l0,.08S138.16,296.66,138.22,296.61Zm.08,7.8c0-.08,0-.12-.08-.12s-.08,0-.08.12l0,.08Q138.3,304.57,138.3,304.4Zm-.12-6.39.34.12c.09,0,.19,0,.3-.16a.37.37,0,0,0,0-.24c-.11-.08-.19-.09-.24,0a.76.76,0,0,1-.2.14A.52.52,0,0,0,138.18,298Zm.38-3.14a.17.17,0,0,1,.14-.08c.16,0,.21-.05.16-.16a.16.16,0,0,1,.08-.24.37.37,0,0,0-.4-.08.64.64,0,0,0-.28.14s0,.14,0,.3l.08.16A.15.15,0,0,0,138.56,294.88Zm.82,9.16-.32-.06q-.12,0-.24.14A.4.4,0,0,0,139.38,304Zm-.32-8.28a.19.19,0,0,0-.2.16c0,.05,0,.08.12.08a.19.19,0,0,0,.2-.12A.11.11,0,0,0,139.06,295.76Zm-.16.84q.12.36.44.28a.3.3,0,0,0,.24-.36l-.34.06Zm.24,5.55q.24,0,.3.12a2.32,2.32,0,0,1,.1.36,2.84,2.84,0,0,0,.18-.34c0-.09,0-.21-.14-.34s-.25-.21-.36-.08a.68.68,0,0,0,0,.28l-.16.08c-.08.08-.11.13-.08.16h0c.11.05.16,0,.16-.08Zm1.13.88a.56.56,0,0,0-.34-.12.56.56,0,0,1-.34-.12c-.08-.08-.15-.05-.2.08a.42.42,0,0,0,0,.24c0,.05.06.08.1.08a.14.14,0,0,0,.1,0,.52.52,0,0,1,.4,0Q140.14,303.32,140.26,303Zm-.72-2.37c0-.08,0-.12,0-.12s-.08,0-.08,0,0,.12,0,.12h.08Zm.2.52,0-.08a.16.16,0,0,0-.12,0c-.05.05-.05.08,0,.08s.09,0,.1,0Zm.36,1.13a.07.07,0,0,0-.08.08c0,.11.05.13.16.08a.07.07,0,0,0,.08-.08A.23.23,0,0,0,140.1,302.32Zm.52-.6c.11,0,.16,0,.16-.12s0-.16-.16-.16a.11.11,0,0,0-.12.12C140.45,301.66,140.49,301.71,140.63,301.71Zm.2.48c.05-.05.05-.08,0-.08s-.08,0-.08,0,0,.08,0,.08Zm.56-12.46a.39.39,0,0,1,0-.18c0-.07-.05-.1-.16-.1a.13.13,0,0,0-.1.16.33.33,0,0,1,0,.2c-.05.08,0,.12.16.12S141.39,289.87,141.39,289.74Zm.52.52a.27.27,0,0,0-.12-.24c-.11-.05-.16,0-.16.08a.26.26,0,0,0,.16.24S141.86,290.31,141.91,290.26Zm.2,11.53c0-.11,0-.16-.12-.16a.16.16,0,0,0-.12.16c.05.05.09.08.12.08S142.11,301.85,142.11,301.79Zm.84,11.45,0,0c-.05,0-.08,0-.08,0s0,.08,0,.08A.07.07,0,0,0,143,313.25Zm.08-22.11a.11.11,0,0,0,.12-.12c0-.05,0-.08-.12-.08a.11.11,0,0,0-.12.12C142.92,291.12,143,291.14,143,291.14Zm-.08-.8c.13.08.23.09.28,0l.16-.16a.24.24,0,0,0,0-.16.15.15,0,0,0-.18,0,.35.35,0,0,1-.18.12v0s0,0,0,0S143,290.31,143,290.34Zm.2,10.57a.36.36,0,0,0,.24-.24q.08-.08-.08-.08a.22.22,0,0,0-.24.2A.13.13,0,0,0,143.16,300.91Zm.44,1.21a.59.59,0,0,0,.52,0A.59.59,0,0,0,143.6,302.11Zm.28-12.06a.09.09,0,0,1-.1,0s-.06,0-.06.06.13.29.24.32a.11.11,0,0,0,.12-.12C144.08,290.15,144,290.06,143.88,290.06Zm2,1a.16.16,0,0,0-.2-.08.32.32,0,0,1-.14,0s-.06,0-.06.08a.21.21,0,0,0,.24.24c.08,0,.11,0,.1-.1A.19.19,0,0,1,145.93,291.1Zm.2-1.37c-.05-.08-.09-.11-.12-.08a.07.07,0,0,0-.08.08v.12Q146.13,289.82,146.13,289.74Z" transform="translate(0 -0.34)"/><path class="cls-5" d="M342.86,233.76v-8.29h-1.18v-1.19l2.36-1.18h1.19v10.67Z" transform="translate(0 -0.34)"/><path class="cls-5" d="M350.92,223.09h2.38a2.26,2.26,0,0,1,1.66.7,2.29,2.29,0,0,1,.7,1.67v5.92a2.29,2.29,0,0,1-.7,1.67,2.26,2.26,0,0,1-1.66.7h-2.37a2.39,2.39,0,0,1-2.37-2.37v-5.92a2.39,2.39,0,0,1,2.38-2.38Zm2.36,2.16a1.19,1.19,0,0,0-2.36.21v4ZM351,231.58a1.23,1.23,0,0,0,.38.74,1.24,1.24,0,0,0,1.62-.1,1.16,1.16,0,0,0,.35-.84v-4Z" transform="translate(0 -0.34)"/><path class="cls-5" d="M343.05,198.93v-8.29h-1.18v-1.19l2.36-1.18h1.19v10.67Z" transform="translate(0 -0.34)"/><path class="cls-5" d="M348.74,188.26h7.11v1.18h-4.74v2.38h2.38a2.38,2.38,0,0,1,2.36,2.38v2.36a2.38,2.38,0,0,1-2.36,2.38h-2.37q-2.09,0-2.37-2.37h1.19q.08,1.19,1.18,1.19h1.18a1.19,1.19,0,0,0,1.19-1.19v-2.36A1.19,1.19,0,0,0,352.3,193h-3.56Z" transform="translate(0 -0.34)"/><path class="cls-3" d="M291.41,204.08l11-5.92,15.77,30.76-9.86,5Z" transform="translate(0 -0.34)"/><path class="cls-5" d="M282.07,196.37v-8.29h-1.18v-1.19l2.36-1.18h1.19v10.67Z" transform="translate(0 -0.34)"/><path class="cls-5" d="M290.14,190.44a1.46,1.46,0,0,1,.37-.88,1.09,1.09,0,0,1,.81-.3h1.19a2.38,2.38,0,0,1,2.36,2.38V194a2.3,2.3,0,0,1-.7,1.67,2.26,2.26,0,0,1-1.66.7h-2.37a2.4,2.4,0,0,1-2.37-2.37v-4.14a4.19,4.19,0,0,1,4.15-4.15h1.78v1.18h-1.18a2.39,2.39,0,0,0-2.37,2.38Zm2.38,3.56v-2.36a1.19,1.19,0,0,0-1.19-1.19,1.14,1.14,0,0,0-.83.35,1.15,1.15,0,0,0-.35.85V194a1.16,1.16,0,0,0,.35.84,1.12,1.12,0,0,0,.83.36,1.14,1.14,0,0,0,.85-.36A1.16,1.16,0,0,0,292.51,194Z" transform="translate(0 -0.34)"/></g></g></svg>