<svg xmlns="http://www.w3.org/2000/svg" xmlns:xlink="http://www.w3.org/1999/xlink" width="614.93" height="318.88" viewBox="0 0 614.93 318.88"><defs><style>.cls-1,.cls-4{fill:none;}.cls-2{fill:#e68476;}.cls-3{clip-path:url(#clip-path);}.cls-4{stroke:#e68476;stroke-miterlimit:10;stroke-width:2.37px;}.cls-5{fill:#e68476;}</style><clipPath id="clip-path"><rect class="cls-1" width="614.93" height="318.67"/></clipPath></defs><title>Asset 2Floor2</title><g id="Layer_2" data-name="Layer 2"><g id="Layer_1-2" data-name="Layer 1"><path class="cls-2" d="M4.86,299.1c0,.32,0,.64,0,1s-.07.63-.12.92a2.91,2.91,0,0,0,0,1q.08.48.16.92a2.31,2.31,0,0,0,.4,1,.68.68,0,0,0,.58.38l.74,0c.38,0,.74,0,1.09,0a7.67,7.67,0,0,1,1.08.08,1.27,1.27,0,0,1,.42.16.81.81,0,0,1,.18.4,2.52,2.52,0,0,1,.08.6,2,2,0,0,0,.08.56.87.87,0,0,1,0,.52,3.69,3.69,0,0,1-.2.48,1,1,0,0,1-.6.44,1.65,1.65,0,0,1-.72,0,3,3,0,0,0-.48,0,3,3,0,0,1-.48,0,1.87,1.87,0,0,0-1.07.22,2.94,2.94,0,0,0-.82.7,1.14,1.14,0,0,0-.28,1,8.89,8.89,0,0,1,0,1.19l-.08,1.15a10.6,10.6,0,0,0,0,1.31q0,.62,0,1.31a10.15,10.15,0,0,1,0,1.27c0,.42,0,.84,0,1.27v.46a2.86,2.86,0,0,1,0,.46,1.31,1.31,0,0,1-.36.68.7.7,0,0,1-.67.2,2.08,2.08,0,0,0-.91,0,.76.76,0,0,1-.79-.3,1.59,1.59,0,0,1-.32-.78,9,9,0,0,1-.06-1.35q0-.66.1-1.35a6.32,6.32,0,0,0,0-1.23q0-.62,0-1.27l-.08-.9c0-.31,0-.62,0-.94q0-.72.06-1.45t.1-1.49a3.68,3.68,0,0,0,0-.66q0-.34,0-.66t0-.84v-.84a9.21,9.21,0,0,0,0-1q0-.52,0-1v-.38a1.92,1.92,0,0,1,0-.38,2.93,2.93,0,0,0,0-.82,7.89,7.89,0,0,1,0-.82q0-.72-.06-1.45a10.44,10.44,0,0,1,0-1.45q0-.64,0-1.27a4.26,4.26,0,0,1,.2-1.27,2.41,2.41,0,0,1,.63-1,1,1,0,0,1,.48-.2,1.69,1.69,0,0,1,.52,0,5.71,5.71,0,0,0,1.05.06l1.06,0,.72,0a2.67,2.67,0,0,1,.72.06.55.55,0,0,0,.26,0l.26,0a5.68,5.68,0,0,1,1.65,0,3.88,3.88,0,0,0,1.13,0,2.93,2.93,0,0,1,.58,0l.54.06a.82.82,0,0,1,.58.22,1,1,0,0,1,.14.62,1.22,1.22,0,0,0,0,.44l.08.48a1.22,1.22,0,0,0,0,.2.5.5,0,0,1,0,.24,1,1,0,0,1-.2.52.74.74,0,0,1-.52.24l-.36.08a.64.64,0,0,1-.32,0,3.38,3.38,0,0,0-.72-.08H8.86a2.55,2.55,0,0,1-.62-.08,1,1,0,0,0-.56,0,2,2,0,0,1-.54.08H6.59a1.37,1.37,0,0,0-.66.08q-.3.12-.62.28a.69.69,0,0,0-.34.36,1.25,1.25,0,0,0-.1.48,3,3,0,0,0,0,.7A2.79,2.79,0,0,1,4.86,299.1ZM2.8,306l.52.12c.11,0,.16,0,.16-.12s0-.08-.12-.16a.34.34,0,0,0-.3,0l-.26.1a.67.67,0,0,0-.48-.56,2,2,0,0,0-.06.62,3.46,3.46,0,0,0,.1.62q0-.4.32-.4C2.81,306.18,2.85,306.11,2.8,306Zm-.44-4.54.32.12c.08,0,.12,0,.12-.08s0-.12-.08-.12a.14.14,0,0,1-.16,0C2.51,301.29,2.44,301.33,2.36,301.43Zm.53,6.39a.18.18,0,0,1-.1-.12c0-.05-.06-.07-.14,0l-.16.06c-.05,0-.07.06,0,.14s.09.16.28.16S2.89,308,2.89,307.82ZM2.77,299c.08,0,.12,0,.12-.08s-.12-.16-.28-.16-.11,0-.08.08A.21.21,0,0,0,2.77,299Zm-.12,3.3.08,0c0-.05,0-.08-.12-.08H2.53A.11.11,0,0,0,2.65,302.32Zm.66-1.73q-.44-.2-.54-.16c-.07,0-.13.16-.18.4-.05.08-.05.15,0,.2s.15,0,.2-.08A.79.79,0,0,1,3.32,300.59Zm-.68,8.76q.32.2.4.18c.05,0,.15-.14.28-.38a.54.54,0,0,1-.32.12A1,1,0,0,0,2.64,309.35Zm.45-4.82c0-.08,0-.12-.08-.12s-.2,0-.2.12,0,.12.12.12S3.1,304.61,3.1,304.53ZM3,298.1a1.16,1.16,0,0,0,.36-.36.28.28,0,0,0,0-.32c-.08-.08-.19-.05-.32.08S2.81,297.86,3,298.1Zm.12-3.46a.65.65,0,0,1,0,.32,1,1,0,0,1-.12.24c0,.11,0,.16.08.16a.42.42,0,0,0,.22-.06,1,1,0,0,0,.18-.14.17.17,0,0,0,.06-.16.85.85,0,0,0-.06-.16.36.36,0,0,0-.16-.1A.69.69,0,0,1,3.1,294.64Zm.16,21.7a.14.14,0,0,0-.16.16.11.11,0,0,0,.12.12q.12.08.12-.12T3.26,316.34Zm.16-19.57c.08,0,.12-.05.12-.16s-.09-.24-.28-.24-.15.05-.12.16S3.28,296.77,3.42,296.77Zm0,4.74a.07.07,0,0,0,.08-.08c-.05-.13-.12-.19-.2-.16a.07.07,0,0,0-.08.08C3.26,301.46,3.32,301.51,3.46,301.51Zm0,6.23-.08.08a.12.12,0,0,1,0,.08c.11,0,.13,0,.08-.08A.12.12,0,0,0,3.42,307.74Zm0-5.75a.66.66,0,0,0,.3.08H4c.11.05.16,0,.16-.16a.19.19,0,0,0-.06-.14.11.11,0,0,0-.14,0A.65.65,0,0,0,3.39,302Zm.39,6.31a.13.13,0,0,0-.12-.08.08.08,0,0,0,0,.16S3.72,308.36,3.78,308.31Zm0-14.15a.33.33,0,0,0,.36.32q.2.12.12-.16T3.9,294C3.79,294,3.74,294.08,3.74,294.16ZM4.18,301a.32.32,0,0,0-.2,0,.11.11,0,0,0-.12.12c0,.08.09.09.2,0A.11.11,0,0,0,4.18,301Zm.16-1.77c0-.08-.07-.11-.12-.08a.07.07,0,0,0-.08.08c.05.05.09.08.12.08A.07.07,0,0,0,4.34,299.22Zm-.2,4.5.22-.06c.07,0,.09-.09.06-.22a.11.11,0,0,0-.12-.12c-.11,0-.16.13-.16.32Zm.08.64a.16.16,0,0,0,.12.16c.08,0,.12,0,.12-.08a.11.11,0,0,0-.12-.12S4.27,304.31,4.22,304.37Zm1.21,1a.71.71,0,0,1-.48.12.22.22,0,0,0-.24.16c0,.16.07.24.2.24s.23.07.2.2,0,.21.06.22l.26,0,.42,0a.91.91,0,0,1,.42.06q.6.32.72-.32c0-.24.11-.31.32-.2a.33.33,0,0,1,.28.4q-.12.24.16.4a.37.37,0,0,0,.24-.4.77.77,0,0,0-.06-.3.37.37,0,0,1,.06-.34c.05-.08,0-.15-.12-.2a.51.51,0,0,1-.28-.24c-.11-.11-.15-.19-.12-.24s-.05-.12-.16-.12-.16,0-.16.12q0,.36-.32.36c-.16.05-.24.09-.24.12a.32.32,0,0,1-.36.36c-.05.19-.13.26-.24.22a1.33,1.33,0,0,1-.28-.14A.33.33,0,0,1,5.43,305.41Zm0-11.17c0-.13-.08-.2-.24-.2H5s-.06,0-.06.12.07.28.2.28S5.39,294.35,5.39,294.24Zm.32,12.9a.14.14,0,0,1,.1,0s.06,0,.06-.08-.09-.08-.2-.08-.16,0-.16.08,0,.08.06.08A.33.33,0,0,1,5.71,307.14Zm0-12.7c.08,0,.12-.05.12-.08v-.12a.23.23,0,0,1,.08-.1s0,0,0-.06-.17,0-.2.08A.23.23,0,0,0,5.75,294.44Zm.4,1.57h.12c.16-.05.24-.11.24-.16s-.11-.13-.24-.08a.2.2,0,0,1-.2,0,.14.14,0,0,0-.1,0s-.07,0-.1.08,0,.15.16.2a.11.11,0,0,0,.08,0ZM7,294.08a.29.29,0,0,0-.22-.06l-.22,0a.21.21,0,0,0-.18.08.14.14,0,0,0,0,.16c.08.11.09.2,0,.26l-.16.18a.13.13,0,0,0,0,.16l.08.16a.42.42,0,0,0,.36.16c.08,0,.11,0,.1-.08a.22.22,0,0,1,0-.16.64.64,0,0,0,.08-.44A.49.49,0,0,1,7,294.08Zm1,1L8,295a.24.24,0,0,1-.14,0s0,0,0,.08,0,.09.06.1S8,295.1,8,295Zm.48,10A.11.11,0,0,0,8.4,305q-.08,0-.16.12c0,.11,0,.16.12.16A.14.14,0,0,0,8.52,305.09Zm.08,1.09s0,0,0,0,0,0,0,0-.09,0-.12.12a.12.12,0,0,0,.08,0A.07.07,0,0,0,8.6,306.18Zm1.61-11.5a.13.13,0,0,1,.06-.12s0-.07,0-.12a.18.18,0,0,0-.2,0,1.2,1.2,0,0,1-.22.12c-.07,0-.1.11-.1.24a.22.22,0,0,0,.22,0,.22.22,0,0,1,.22,0,1.21,1.21,0,0,0,.12.36s.15,0,.36-.08a1.31,1.31,0,0,0-.22-.28A.41.41,0,0,0,10.21,294.68Zm.76-.44a3.2,3.2,0,0,0,.18.38.45.45,0,0,0,.34.22.18.18,0,0,0,.2,0,.28.28,0,0,0,0-.24l-.32-.16Z"/><path class="cls-2" d="M26.41,318.63l-.7,0a1.58,1.58,0,0,1-.74-.14.27.27,0,0,0-.24,0l-.24.08a7.93,7.93,0,0,1-1.12.08H21.86a3.26,3.26,0,0,1-1.29.14l-1.29-.14a1.8,1.8,0,0,1-1.21-.64,1.13,1.13,0,0,1-.24-.76v-.08a4.62,4.62,0,0,1-.12-1.35,11.46,11.46,0,0,0,0-1.35,1.43,1.43,0,0,1,0-.24,1.5,1.5,0,0,0,0-.24,6.74,6.74,0,0,0,0-1.27,6.61,6.61,0,0,1,0-1.27,1.49,1.49,0,0,0,0-.42,4.18,4.18,0,0,0-.06-.42,5.14,5.14,0,0,1,0-1.21,5.19,5.19,0,0,0,0-1.21,6.12,6.12,0,0,1,0-1.31q.06-.62.1-1.31v-1.75q0-.86-.08-1.75v-.72q0-.84,0-1.71a14.27,14.27,0,0,1,.06-1.71,10.78,10.78,0,0,0-.12-2.77,3,3,0,0,1,.28-1.41.42.42,0,0,1,.24-.26.66.66,0,0,1,.36,0,3.75,3.75,0,0,0,.78,0,3,3,0,0,1,.82,0,.63.63,0,0,1,.52.44,1.87,1.87,0,0,1,.12.66v.66a4.73,4.73,0,0,1,0,.86q0,.42,0,.86a3.76,3.76,0,0,0,0,.54,3.89,3.89,0,0,1,0,.54,12.82,12.82,0,0,0,0,2.27q.12,1.1.24,2.27a4.69,4.69,0,0,1,0,1,7.79,7.79,0,0,0-.06,1q0,.8.06,1.55t0,1.55q0,.28.06.56a1.92,1.92,0,0,1-.06.6,5.73,5.73,0,0,0-.08.94c0,.31,0,.62,0,.94v1.59a15.74,15.74,0,0,0,.08,1.59,1.89,1.89,0,0,0,.36,1.17,2.48,2.48,0,0,0,.38.32,1.09,1.09,0,0,0,.46.16l.52.06a2.28,2.28,0,0,0,.52,0,1.51,1.51,0,0,1,.42,0l.42,0h.62a2.56,2.56,0,0,0,.62-.08,3.69,3.69,0,0,1,.76,0,4.28,4.28,0,0,0,.54.12,1.8,1.8,0,0,0,.54,0,1.52,1.52,0,0,1,.36,0l.36.08a.69.69,0,0,1,.52.6q0,.24.08.52a1.73,1.73,0,0,1,0,.52,2,2,0,0,1-.4,1,.58.58,0,0,1-.52.24Zm-7.84-10a1,1,0,0,1-.06-.14.09.09,0,0,0-.1-.06c-.05,0-.08,0-.08.12a.19.19,0,0,0,.16.2C18.54,308.79,18.57,308.75,18.57,308.67Zm-.16-2.61,0,0v.08c.08,0,.12,0,.12,0Zm.44-2.57-.22-.12c-.07,0-.14,0-.22.08a.12.12,0,0,1,0,.08c0,.05,0,.08,0,.08S18.72,303.67,18.85,303.48Zm-.08,9.32c0-.08,0-.12-.08-.12a.11.11,0,0,0,0,.08.07.07,0,0,0,.08.08Zm.6-7.27c0-.13.07-.21.12-.24a.63.63,0,0,0,.16-.12c.11-.11.19-.13.24-.08s.13.11.08.24,0,.13.12.16q-.24-.28,0-.32c.13,0,.21-.08.24-.16a.31.31,0,0,0-.16-.14.35.35,0,0,1-.16-.1q-.16-.2-.28-.14a1.36,1.36,0,0,1-.28.1c-.13,0-.19.08-.16.16a1.39,1.39,0,0,0,.08.2,1,1,0,0,1,0,.18A.42.42,0,0,0,19.37,305.53Zm.44,12.1a.11.11,0,0,0-.12.12.07.07,0,0,0,.08.08.11.11,0,0,0,.12-.12A.07.07,0,0,0,19.81,317.63Zm3.58-.16c.08,0,.13,0,.14-.06a1,1,0,0,1,.06-.14c.08-.08.08-.15,0-.2s-.13,0-.24.12A.22.22,0,0,0,23.39,317.47Zm1.89-.68c.24.08.43,0,.56-.36a.72.72,0,0,0-.32.14Zm1.29.92c.16-.05.23-.15.2-.28s-.11-.2-.32-.2-.16,0-.16.12a.38.38,0,0,0,.1.24C26.45,317.67,26.51,317.71,26.57,317.71Z"/><path class="cls-2" d="M44.69,312.4a3.69,3.69,0,0,1,0,.76,2.06,2.06,0,0,1-.2.72,9.35,9.35,0,0,0-.36.92,9.63,9.63,0,0,1-.36.92,3.22,3.22,0,0,1-1,1.27,9.09,9.09,0,0,1-1.29.82,5,5,0,0,1-.64.34,4,4,0,0,1-.64.22,5.65,5.65,0,0,1-4.43-.64,10,10,0,0,1-1.06-.68,8.68,8.68,0,0,1-.94-.8,3,3,0,0,1-.35-.4.88.88,0,0,1-.14-.52l-.08-.12a3.52,3.52,0,0,1-.43-1.59q0-.82-.06-1.87a2.1,2.1,0,0,1,0-.82,3.54,3.54,0,0,0,0-1.07q0-.44-.06-.86a3.79,3.79,0,0,1,.06-.86,3.64,3.64,0,0,0,0-1.21,9.22,9.22,0,0,1-.16-1.25v-.94a5.74,5.74,0,0,1,.08-.95,2.23,2.23,0,0,0,0-.84,2.92,2.92,0,0,1,0-.84,1.48,1.48,0,0,0,0-.24.49.49,0,0,1,0-.24,4.31,4.31,0,0,0,0-1q0-.48-.08-1a4.33,4.33,0,0,1,.2-1.77,5.79,5.79,0,0,1,.84-1.61,5.75,5.75,0,0,0,.36-.48,2.9,2.9,0,0,1,.36-.44A6.83,6.83,0,0,1,36,294.06a5.26,5.26,0,0,1,2-.54,1.48,1.48,0,0,1,.48,0,1.16,1.16,0,0,0,.52,0,.53.53,0,0,1,.44,0,.77.77,0,0,0,.48.08c.08-.05.17,0,.28.08a3,3,0,0,0,.86.42,2.59,2.59,0,0,1,.86.46A17.45,17.45,0,0,1,43.41,296a4,4,0,0,1,.88,1.77,9.87,9.87,0,0,1,.24,1.65,11.12,11.12,0,0,1,0,1.33,10.73,10.73,0,0,0,0,1.33l.08.5a3.37,3.37,0,0,1,0,.5,11.39,11.39,0,0,0,0,1.79,11.38,11.38,0,0,1,0,1.79,2.32,2.32,0,0,0,0,.52c0,.16,0,.34.06.52a6,6,0,0,1,0,1.39,8,8,0,0,0,0,1.39q0,.52,0,1T44.69,312.4Zm-11.45,2.13a.62.62,0,0,0,.37,0,.37.37,0,0,0,.2-.2A.85.85,0,0,0,33.25,314.53Zm.19-16.68c-.05.05,0,.08,0,.08a.11.11,0,0,0,.12-.12.12.12,0,0,0,0-.08A.11.11,0,0,0,33.44,297.86Zm.44,4.62a.29.29,0,0,0-.16-.32.61.61,0,0,1-.24-.08.28.28,0,0,1,0,.12.27.27,0,0,0,0,.12c0,.16.07.24.2.24S33.88,302.53,33.88,302.48Zm-.12,8.64c.08-.05.11-.11.08-.16s-.05-.12-.16-.12-.11.11-.08.16A.16.16,0,0,0,33.76,311.12Zm.64-1.45h0l.08,0-.3-.14a.27.27,0,0,0-.26,0c-.08.05-.09.11,0,.16a.18.18,0,0,0,.22.08,1,1,0,0,1,.26,0Zm-.36-12c-.08,0-.11.05-.08.16a.11.11,0,0,0,.12.12c.05,0,.08,0,.08-.06s0,0,0-.06l.08,0c.05,0,.08,0,.08-.12l-.08,0c-.05,0-.08,0-.08,0S34.1,297.63,34,297.65Zm.68,2.09q-.08-.32-.24-.32c-.16,0-.21.07-.16.2a.73.73,0,0,1,.06.2c0,.08.07.11.18.08A.14.14,0,0,0,34.73,299.74ZM34.48,296c-.08.05-.09.16,0,.32v0l.16-.06q.08,0,0-.18C34.6,296,34.56,295.94,34.48,296Zm.63,12.9a2,2,0,0,0-.26-.28s-.14,0-.3,0a1,1,0,0,0,.24.12Zm-.35-10.33a.13.13,0,0,0-.12.08l0,0c.05,0,.08,0,.08,0Zm0,13.46c0,.08.11.12.24.12s.11,0,.08-.12a.24.24,0,0,0-.2-.12A.11.11,0,0,0,34.73,312Zm.2-11.25a.07.07,0,0,0-.08.08.13.13,0,0,0,.12.08q.16,0,0-.12S35,300.75,34.93,300.75Zm.15,13.75a1.17,1.17,0,0,0,.08-.72c-.19.16-.28.27-.28.32A1.23,1.23,0,0,0,35.08,314.49ZM35,307a.16.16,0,0,0,.12-.16.11.11,0,0,1,0-.08s0,0-.08,0-.12.11-.12.16S35,307,35,307Zm0-5.63a.07.07,0,0,0-.08-.08s0,0-.06,0a.06.06,0,0,0,0,.08s0,0,0,0,0,0,0,0Zm6.55,2a1.16,1.16,0,0,0,0-.36c0-.11,0-.23-.06-.36-.05-.29-.1-.59-.14-.88a2.2,2.2,0,0,1,.06-.88v-.32a7.22,7.22,0,0,0,0-.74c0-.25-.07-.52-.12-.78a2.71,2.71,0,0,0-1.6-2.29,1.17,1.17,0,0,0-.44-.08,2.93,2.93,0,0,1-.48,0,1.46,1.46,0,0,0-.48,0l-.48.08a1.74,1.74,0,0,0-.7.3l-.62.46a1.57,1.57,0,0,0-.72,1l-.08.88a4.78,4.78,0,0,0,0,.88v.66a5.33,5.33,0,0,0,0,.66,8.3,8.3,0,0,1,0,1.15,8.15,8.15,0,0,0,0,1.15,5.18,5.18,0,0,1,0,.9l-.08.9q0,.48,0,1a3.87,3.87,0,0,0,0,1,5.43,5.43,0,0,1,.08,1.85,6.87,6.87,0,0,0-.08,1.81q.08.88.08,1.81a1.84,1.84,0,0,0,.16.64,2.68,2.68,0,0,0,1.1,1.33,3.87,3.87,0,0,0,1.62.48,2.05,2.05,0,0,0,1.56-.48.72.72,0,0,0,.2-.2.72.72,0,0,1,.2-.2,1.28,1.28,0,0,0,.54-.56,2.19,2.19,0,0,0,.22-.76,7.79,7.79,0,0,0,0-1.37,7.66,7.66,0,0,1,0-1.37.29.29,0,0,0,0-.24v-.52q.08-.92.12-1.89t0-1.89q0-.68,0-1.33A8.84,8.84,0,0,1,41.64,303.4Zm-5.87-6.67a.23.23,0,0,0,.08.16c.11,0,.16,0,.16-.12s0-.07-.12-.12S35.82,296.68,35.77,296.73Zm3-2c-.05.05,0,.08,0,.08s.07,0,.12,0a.12.12,0,0,0,0-.08C38.82,294.56,38.78,294.57,38.78,294.68ZM39.35,317v-.08c0-.08-.09-.09-.2,0l-.26.2q-.14.12,0,.32a4.68,4.68,0,0,0,.44-.36Zm.8-22.14c-.13,0-.2.09-.2.28s.11.28.32.28.21-.07.16-.2a.3.3,0,0,1-.08-.22Q40.35,294.84,40.15,294.84Zm.28,22.27a.51.51,0,0,1,.24-.12c.11,0,.15-.07.12-.12a.47.47,0,0,1-.2-.38.38.38,0,0,0-.2-.34c-.13-.05-.2,0-.2,0l-.14.3c0,.09,0,.19.14.3A2.42,2.42,0,0,1,40.43,317.11ZM42,296.45a1.51,1.51,0,0,0,0,.56c0,.05.15.08.36.08a1.51,1.51,0,0,0-.2-.3A.51.51,0,0,1,42,296.45Zm.8,8-.28-.12a.65.65,0,0,0-.32,0,1.86,1.86,0,0,1,.26.22C42.52,304.6,42.63,304.57,42.76,304.41Zm.32,9.53c.13,0,.16,0,.08-.12a.24.24,0,0,1-.06-.22.15.15,0,0,0-.1-.18c-.16,0-.24.08-.24.32l0,.08a.11.11,0,0,1-.14,0,.51.51,0,0,0-.14-.1c-.11,0-.17,0-.18.08a.74.74,0,0,1-.06.2c0,.05,0,.11.16.16a.54.54,0,0,0,.36,0Zm-.68-10q-.16,0,0,.12l.08,0q.08,0,.08-.12A.16.16,0,0,1,42.4,303.92Zm1.21,3.86c.08-.05.08-.12,0-.2a.18.18,0,0,1,0-.24.61.61,0,0,1-.36,0c-.21-.11-.35-.09-.4.06a.65.65,0,0,1-.28.34c.21.16.37.19.46.08l.26-.32q.2-.08.2.12C43.45,307.8,43.5,307.84,43.61,307.78Zm-.68,1c.11,0,.16-.07.16-.2s-.15-.24-.28-.24-.16.05-.16.24S42.74,308.83,42.92,308.83Zm0-3.26q0-.12-.08-.12c-.08,0-.12.05-.12.16a.07.07,0,0,0,.08.08A.11.11,0,0,0,42.88,305.57Zm.08,6q.08,0,.08-.16c0-.21,0-.35-.12-.4H42.8a.22.22,0,0,0-.06.2,1.29,1.29,0,0,1,0,.2C42.76,311.6,42.83,311.65,43,311.6Zm0-12.82q-.16,0-.08.12L43,299s.07,0,.12-.08A.11.11,0,0,0,43,298.78Zm.16,5.06c-.05,0-.08.05-.08.08s0,0,.08,0l.08,0,.08,0v-.12A.23.23,0,0,0,43.17,303.84Zm.12-4.54c-.08,0-.12,0-.12.08s0,.12.08.12.08,0,.08,0A.24.24,0,0,0,43.29,299.3Zm.24.72c0-.24-.07-.36-.2-.36s-.12.11-.12.24.07.27.2.24A.11.11,0,0,0,43.53,300Zm-.2,3.34a.43.43,0,0,1,.24-.26.43.43,0,0,0,.24-.26q-.4-.08-.48,0T43.33,303.36Zm.32,2.73c.08,0,.09-.07,0-.2a.12.12,0,0,0-.08,0l-.12,0c0,.05,0,.09,0,.1a.08.08,0,0,1,0,.06C43.53,306.11,43.57,306.15,43.65,306.09Zm.32,1.57a.41.41,0,0,0,0-.3.94.94,0,0,1,0-.26c0-.13-.09-.17-.28-.12s-.15.11-.12.18a.5.5,0,0,1,0,.18c.13-.05.2,0,.2.1A.2.2,0,0,0,44,307.66Zm0,2.17c.05-.11,0-.18,0-.22a.73.73,0,0,1-.2-.14c-.13.19-.12.34,0,.44A.27.27,0,0,0,44,309.83Zm-.08,2.61c0-.08,0-.12-.08-.12s-.12,0-.12.08a.1.1,0,0,0,0,.16C43.81,312.59,43.87,312.55,43.93,312.45Zm.2-8.12s0-.07-.08-.12-.12,0-.12.08,0,.12.08.12S44.13,304.38,44.13,304.33Z"/><path class="cls-2" d="M62.14,312.4a3.69,3.69,0,0,1,0,.76,2.06,2.06,0,0,1-.2.72,9.35,9.35,0,0,0-.36.92,9.63,9.63,0,0,1-.36.92,3.22,3.22,0,0,1-1,1.27,9.09,9.09,0,0,1-1.29.82,5,5,0,0,1-.64.34,4,4,0,0,1-.64.22,5.65,5.65,0,0,1-4.43-.64,10,10,0,0,1-1.06-.68,8.68,8.68,0,0,1-.94-.8,3,3,0,0,1-.35-.4.88.88,0,0,1-.14-.52l-.08-.12a3.52,3.52,0,0,1-.43-1.59q0-.82-.06-1.87a2.1,2.1,0,0,1,0-.82,3.54,3.54,0,0,0,0-1.07q0-.44-.06-.86a3.79,3.79,0,0,1,.06-.86,3.64,3.64,0,0,0,0-1.21,9.22,9.22,0,0,1-.16-1.25v-.94a5.74,5.74,0,0,1,.08-.95,2.23,2.23,0,0,0,0-.84,2.92,2.92,0,0,1,0-.84,1.48,1.48,0,0,0,0-.24.49.49,0,0,1,0-.24,4.31,4.31,0,0,0,0-1q0-.48-.08-1a4.33,4.33,0,0,1,.2-1.77,5.79,5.79,0,0,1,.84-1.61,5.75,5.75,0,0,0,.36-.48,2.9,2.9,0,0,1,.36-.44,6.83,6.83,0,0,1,1.71-1.27,5.26,5.26,0,0,1,2-.54,1.48,1.48,0,0,1,.48,0,1.16,1.16,0,0,0,.52,0,.53.53,0,0,1,.44,0,.77.77,0,0,0,.48.08c.08-.05.17,0,.28.08a3,3,0,0,0,.86.42,2.59,2.59,0,0,1,.86.46A17.45,17.45,0,0,1,60.85,296a4,4,0,0,1,.88,1.77,9.87,9.87,0,0,1,.24,1.65,11.12,11.12,0,0,1,0,1.33A10.73,10.73,0,0,0,62,302l.08.5a3.37,3.37,0,0,1,0,.5,11.39,11.39,0,0,0,0,1.79,11.38,11.38,0,0,1,0,1.79,2.32,2.32,0,0,0,0,.52c0,.16,0,.34.06.52a6,6,0,0,1,0,1.39,8,8,0,0,0,0,1.39q0,.52,0,1T62.14,312.4Zm-11.45,2.13a.62.62,0,0,0,.37,0,.37.37,0,0,0,.2-.2A.85.85,0,0,0,50.69,314.53Zm.19-16.68c-.05.05,0,.08,0,.08a.11.11,0,0,0,.12-.12.12.12,0,0,0,0-.08A.11.11,0,0,0,50.88,297.86Zm.44,4.62a.29.29,0,0,0-.16-.32.61.61,0,0,1-.24-.08.28.28,0,0,1,0,.12.27.27,0,0,0,0,.12c0,.16.07.24.2.24S51.32,302.53,51.32,302.48Zm-.12,8.64c.08-.05.11-.11.08-.16s-.05-.12-.16-.12-.11.11-.08.16A.16.16,0,0,0,51.2,311.12Zm.64-1.45h0l.08,0-.3-.14a.27.27,0,0,0-.26,0c-.08.05-.09.11,0,.16a.18.18,0,0,0,.22.08,1,1,0,0,1,.26,0Zm-.36-12c-.08,0-.11.05-.08.16a.11.11,0,0,0,.12.12c.05,0,.08,0,.08-.06s0,0,0-.06l.08,0c.05,0,.08,0,.08-.12l-.08,0c-.05,0-.08,0-.08,0S51.54,297.63,51.48,297.65Zm.68,2.09q-.08-.32-.24-.32c-.16,0-.21.07-.16.2a.73.73,0,0,1,.06.2c0,.08.07.11.18.08A.14.14,0,0,0,52.17,299.74ZM51.93,296c-.08.05-.09.16,0,.32v0l.16-.06q.08,0,0-.18C52,296,52,295.94,51.93,296Zm.63,12.9a2,2,0,0,0-.26-.28s-.14,0-.3,0a1,1,0,0,0,.24.12Zm-.35-10.33a.13.13,0,0,0-.12.08l0,0c.05,0,.08,0,.08,0Zm0,13.46c0,.08.11.12.24.12s.11,0,.08-.12a.24.24,0,0,0-.2-.12A.11.11,0,0,0,52.17,312Zm.2-11.25a.07.07,0,0,0-.08.08.13.13,0,0,0,.12.08q.16,0,0-.12S52.42,300.75,52.37,300.75Zm.15,13.75a1.17,1.17,0,0,0,.08-.72c-.19.16-.28.27-.28.32A1.23,1.23,0,0,0,52.52,314.49Zm0-7.52a.16.16,0,0,0,.12-.16.11.11,0,0,1,0-.08s0,0-.08,0-.12.11-.12.16S52.43,307,52.49,307Zm0-5.63a.07.07,0,0,0-.08-.08s0,0-.06,0a.06.06,0,0,0,0,.08s0,0,0,0,0,0,0,0Zm6.55,2a1.16,1.16,0,0,0,0-.36c0-.11,0-.23-.06-.36-.05-.29-.1-.59-.14-.88a2.2,2.2,0,0,1,.06-.88v-.32a7.22,7.22,0,0,0,0-.74c0-.25-.07-.52-.12-.78a2.71,2.71,0,0,0-1.6-2.29,1.17,1.17,0,0,0-.44-.08,2.93,2.93,0,0,1-.48,0,1.46,1.46,0,0,0-.48,0l-.48.08a1.74,1.74,0,0,0-.7.3l-.62.46a1.57,1.57,0,0,0-.72,1l-.08.88a4.78,4.78,0,0,0,0,.88v.66a5.33,5.33,0,0,0,0,.66,8.3,8.3,0,0,1,0,1.15,8.15,8.15,0,0,0,0,1.15,5.18,5.18,0,0,1,0,.9l-.08.9q0,.48,0,1a3.87,3.87,0,0,0,0,1,5.43,5.43,0,0,1,.08,1.85,6.87,6.87,0,0,0-.08,1.81q.08.88.08,1.81a1.84,1.84,0,0,0,.16.64,2.68,2.68,0,0,0,1.1,1.33,3.87,3.87,0,0,0,1.62.48,2.05,2.05,0,0,0,1.56-.48.72.72,0,0,0,.2-.2.72.72,0,0,1,.2-.2,1.28,1.28,0,0,0,.54-.56,2.19,2.19,0,0,0,.22-.76,7.79,7.79,0,0,0,0-1.37,7.66,7.66,0,0,1,0-1.37.29.29,0,0,0,0-.24v-.52q.08-.92.12-1.89t0-1.89q0-.68,0-1.33A8.84,8.84,0,0,1,59.08,303.4Zm-5.87-6.67a.23.23,0,0,0,.08.16c.11,0,.16,0,.16-.12s0-.07-.12-.12S53.27,296.68,53.21,296.73Zm3-2c-.05.05,0,.08,0,.08s.07,0,.12,0a.12.12,0,0,0,0-.08C56.27,294.56,56.23,294.57,56.23,294.68ZM56.79,317v-.08c0-.08-.09-.09-.2,0l-.26.2q-.14.12,0,.32a4.68,4.68,0,0,0,.44-.36Zm.8-22.14c-.13,0-.2.09-.2.28s.11.28.32.28.21-.07.16-.2a.3.3,0,0,1-.08-.22Q57.79,294.84,57.59,294.84Zm.28,22.27a.51.51,0,0,1,.24-.12c.11,0,.15-.07.12-.12a.47.47,0,0,1-.2-.38.38.38,0,0,0-.2-.34c-.13-.05-.2,0-.2,0l-.14.3c0,.09,0,.19.14.3A2.42,2.42,0,0,1,57.87,317.11Zm1.53-20.66a1.51,1.51,0,0,0,0,.56c0,.05.15.08.36.08a1.51,1.51,0,0,0-.2-.3A.51.51,0,0,1,59.4,296.45Zm.8,8-.28-.12a.65.65,0,0,0-.32,0,1.86,1.86,0,0,1,.26.22C60,304.6,60.07,304.57,60.21,304.41Zm.32,9.53c.13,0,.16,0,.08-.12a.24.24,0,0,1-.06-.22.15.15,0,0,0-.1-.18c-.16,0-.24.08-.24.32l0,.08a.11.11,0,0,1-.14,0,.51.51,0,0,0-.14-.1c-.11,0-.17,0-.18.08a.74.74,0,0,1-.06.2c0,.05,0,.11.16.16a.54.54,0,0,0,.36,0Zm-.68-10q-.16,0,0,.12l.08,0q.08,0,.08-.12A.16.16,0,0,1,59.84,303.92ZM61,307.78c.08-.05.08-.12,0-.2a.18.18,0,0,1,0-.24.61.61,0,0,1-.36,0c-.21-.11-.35-.09-.4.06a.65.65,0,0,1-.28.34c.21.16.37.19.46.08l.26-.32q.2-.08.2.12C60.89,307.8,60.94,307.84,61,307.78Zm-.68,1c.11,0,.16-.07.16-.2s-.15-.24-.28-.24-.16.05-.16.24S60.18,308.83,60.37,308.83Zm0-3.26q0-.12-.08-.12c-.08,0-.12.05-.12.16a.07.07,0,0,0,.08.08A.11.11,0,0,0,60.33,305.57Zm.08,6q.08,0,.08-.16c0-.21,0-.35-.12-.4h-.12a.22.22,0,0,0-.06.2,1.29,1.29,0,0,1,0,.2C60.21,311.6,60.27,311.65,60.41,311.6Zm0-12.82q-.16,0-.08.12l.08.08s.07,0,.12-.08A.11.11,0,0,0,60.45,298.78Zm.16,5.06c-.05,0-.08.05-.08.08s0,0,.08,0l.08,0,.08,0v-.12A.23.23,0,0,0,60.61,303.84Zm.12-4.54c-.08,0-.12,0-.12.08s0,.12.08.12.08,0,.08,0A.24.24,0,0,0,60.73,299.3ZM61,300c0-.24-.07-.36-.2-.36s-.12.11-.12.24.07.27.2.24A.11.11,0,0,0,61,300Zm-.2,3.34a.43.43,0,0,1,.24-.26.43.43,0,0,0,.24-.26q-.4-.08-.48,0T60.77,303.36Zm.32,2.73c.08,0,.09-.07,0-.2a.12.12,0,0,0-.08,0l-.12,0c0,.05,0,.09,0,.1a.08.08,0,0,1,0,.06C61,306.11,61,306.15,61.09,306.09Zm.32,1.57a.41.41,0,0,0,0-.3.94.94,0,0,1,0-.26c0-.13-.09-.17-.28-.12s-.15.11-.12.18a.5.5,0,0,1,0,.18c.13-.05.2,0,.2.1A.2.2,0,0,0,61.41,307.66Zm0,2.17c.05-.11,0-.18,0-.22a.73.73,0,0,1-.2-.14c-.13.19-.12.34,0,.44A.27.27,0,0,0,61.45,309.83Zm-.08,2.61c0-.08,0-.12-.08-.12s-.12,0-.12.08a.1.1,0,0,0,0,.16C61.25,312.59,61.32,312.55,61.37,312.45Zm.2-8.12s0-.07-.08-.12-.12,0-.12.08,0,.12.08.12S61.57,304.38,61.57,304.33Z"/><path class="cls-2" d="M70.45,311.16v4.26a3,3,0,0,1,0,.48,2.87,2.87,0,0,0,0,.48,1.89,1.89,0,0,1,0,.72c0,.24-.07.48-.1.72a.58.58,0,0,1-.26.5,1.76,1.76,0,0,1-.58.26,2.13,2.13,0,0,1-.82,0l-.82-.16q-.4,0-.4-.48v-1.12q0-.48,0-1a4.82,4.82,0,0,0-.06-1,.65.65,0,0,1,0-.32,2.3,2.3,0,0,0,.1-.78,5.48,5.48,0,0,0-.1-.78,3,3,0,0,0,0-.36.73.73,0,0,1,.06-.36.63.63,0,0,0,0-.44,8,8,0,0,1-.06-1.27q0-.62.06-1.23a5.37,5.37,0,0,0-.06-.8,3.24,3.24,0,0,1,0-.8q0-.92,0-1.89a17.31,17.31,0,0,1,0-2l.08-2q0-.64-.06-1.27t-.06-1.27v-1.1a7.72,7.72,0,0,1,.08-1.11,4.86,4.86,0,0,0,0-1.07q0-.5,0-1.06a1.31,1.31,0,0,1,.28-.84,1.47,1.47,0,0,1,1-.56q.8-.08,1.55-.12a5.83,5.83,0,0,1,1.51.12h.16a3.8,3.8,0,0,1,1.89.3,10.25,10.25,0,0,1,1.65.94,3.26,3.26,0,0,1,.64.56,2.8,2.8,0,0,0,.68.56c.08.08.12.13.12.16a4.75,4.75,0,0,0,.42.92,4.83,4.83,0,0,1,.42.92,2.29,2.29,0,0,1,.12.42,2.4,2.4,0,0,1,0,.42,7.33,7.33,0,0,0,0,1.09,5,5,0,0,1,0,1.08q0,.56,0,1.17a3.44,3.44,0,0,1-.2,1.17q-.28.8-.62,1.63a3.86,3.86,0,0,1-1,1.43l-.32.32a1.14,1.14,0,0,0-.36.68,2.16,2.16,0,0,0,.08.8,14.64,14.64,0,0,0,.84,2.45,23.68,23.68,0,0,1,.92,2.41,1,1,0,0,0,.24.52,3.77,3.77,0,0,1,.64,1.21q.2.64.36,1.33a4.75,4.75,0,0,0,.32.9l.4.86q.24.36,0,.6l-.3.32a.38.38,0,0,1-.42.08l-.84-.16a2.23,2.23,0,0,0-.84,0,.58.58,0,0,1-.48-.28,1.83,1.83,0,0,1-.48-.64l-.32-.72L75,315.7q-.2-.6-.44-1.17-.68-1.53-1.37-3.22a6,6,0,0,1-.48-1.33,7.47,7.47,0,0,0-.38-1q-.22-.48-.46-1a.12.12,0,0,0,0-.08,2.57,2.57,0,0,1-.24-.28.3.3,0,0,0-.32-.12.76.76,0,0,0-.6.56q-.08.4-.18.76a1.78,1.78,0,0,0,0,.8,4.63,4.63,0,0,1,0,.74c0,.25,0,.52,0,.78Zm-2.25-9.81a.07.07,0,0,0,.08-.08.13.13,0,0,0-.12-.08s0,0,0,.08S68.12,301.35,68.2,301.35Zm0-4.3q-.16,0-.08.16c0,.08,0,.12.08.12s.16,0,.08-.12A.16.16,0,0,0,68.24,297.05Zm.08,1.53c0,.08.05.12.16.12s.2.05.2-.08-.05-.08-.16-.08S68.35,298.5,68.32,298.58ZM69,308c0-.05.09-.08.18-.08s.11-.05.06-.16-.11-.11-.16-.1l-.16.06h-.08c-.16,0-.25,0-.28.14a1.37,1.37,0,0,0,0,.26c0,.11,0,.17.08.18a.48.48,0,0,0,.24,0l.16,0a.22.22,0,0,0,.16,0,.11.11,0,0,0,.12-.12c0-.05,0-.08,0-.08a.11.11,0,0,1-.08,0A.23.23,0,0,1,69,308Zm.76,10-.48-.32a3.54,3.54,0,0,1-.4-.28q-.16.4-.2.52a.62.62,0,0,0,.52.08A1,1,0,0,1,69.73,318ZM69,313.85c0-.05,0-.08,0-.08h-.08c0,.08,0,.12,0,.12s0,0,0,0S68.94,313.85,69,313.85Zm.52-19c0-.08,0-.12-.08-.12a.11.11,0,0,0-.12.12s0,0,.12,0S69.49,294.92,69.49,294.84Zm.24,22.59a.12.12,0,0,0,0-.08l-.08,0c0,.05,0,.09.08.12A.12.12,0,0,0,69.73,317.43Zm0-8a.19.19,0,0,0,.1-.1l.06-.14c.05-.11,0-.16-.08-.16s-.17,0-.12.12a.25.25,0,0,1,0,.14S69.69,309.34,69.77,309.39Zm.12,7.52c0-.11,0-.16-.12-.16s-.08,0-.08.12a.07.07,0,0,0,.08.08C69.85,317,69.89,317,69.89,316.91Zm5-16.12V300q0-.6-.12-1.19a2.53,2.53,0,0,0-.44-1.11l-.3-.36a.91.91,0,0,0-.34-.24.76.76,0,0,1-.44-.36l-.14-.12-.14-.12a1.7,1.7,0,0,0-.94-.34,3.9,3.9,0,0,0-1,.1.33.33,0,0,0-.28.32c-.05.3-.09.58-.12.86s-.05.57-.08.86q0,.93,0,1.79a15.48,15.48,0,0,1-.06,1.75,7,7,0,0,0,0,1.69,1,1,0,0,0,.92,1,6.42,6.42,0,0,0,.72,0,2.83,2.83,0,0,0,.68-.16,3.82,3.82,0,0,0,1-.6,2.92,2.92,0,0,0,.7-.92,3.4,3.4,0,0,0,.32-1A4.68,4.68,0,0,0,74.87,300.79Zm-2.09-6.71a.18.18,0,0,0-.2,0c-.11,0-.16,0-.16.12s.12.15.2.12S72.79,294.21,72.79,294.08Zm-.16,12.14a.11.11,0,0,0-.12-.12c-.05.05-.08.09-.08.12a.07.07,0,0,0,.08.08C72.58,306.3,72.62,306.27,72.62,306.22Zm-.12,1a.13.13,0,0,0,.14,0,.25.25,0,0,1,.14,0,.19.19,0,0,0,.14-.06.11.11,0,0,0,0-.14.11.11,0,0,0-.12-.12c-.13-.05-.23,0-.28,0A.27.27,0,0,0,72.5,307.18ZM74,309.83a1.38,1.38,0,0,0-.36-.32.22.22,0,0,0-.28,0,.17.17,0,0,0-.06.16.75.75,0,0,0,.06.16c0,.11.11.12.24,0a.18.18,0,0,1,.2,0A.18.18,0,0,0,74,309.83Zm-.32-15.11a.2.2,0,0,0-.24-.12c-.11.05-.15.11-.12.16s.12.19.2.16S73.63,294.8,73.63,294.72ZM74,295s0,0,0,0,0,0,0,0l0,0a.12.12,0,0,1,0,.08Zm0,14.35c.11,0,.16,0,.16-.08s0-.12-.08-.12l-.12.12C73.86,309.28,73.87,309.31,74,309.31Zm1.37-3.46a.44.44,0,0,0,0-.52,1.36,1.36,0,0,1-.26-.4c0-.05-.12-.08-.28-.08a.35.35,0,0,0-.36.28c0,.13,0,.19.14.16a.31.31,0,0,1,.22,0c.08,0,.12,0,.12,0a.24.24,0,0,1-.16.16c-.08,0-.13.11-.16.24q.28-.28.42-.12A.87.87,0,0,0,75.32,305.85Zm.08-2.13c0-.05,0-.08,0-.08h0l0,0c0,.05,0,.08,0,.08s0,0,0,0S75.37,303.72,75.4,303.72Zm.52-5.55c-.05-.13-.13-.2-.24-.2l-.18.06c-.07,0-.1.07-.1.18s.05.17.16.12a.32.32,0,0,1,.2,0C75.84,298.33,75.89,298.28,75.92,298.18Zm-.28-1.33c0-.08,0-.11-.12-.08a.07.07,0,0,0-.08.08c0,.13,0,.16.12.08S75.66,296.9,75.64,296.85Zm0,2.61a.42.42,0,0,0,.36.12,1.55,1.55,0,0,0,.32-.12c.11-.05.13-.12.08-.2s-.12-.09-.2,0a.17.17,0,0,1-.24.1A.32.32,0,0,0,75.64,299.46Zm.08-.48.24,0a.32.32,0,0,0,.24-.06.08.08,0,0,0,0-.06.08.08,0,0,1,0-.06.35.35,0,0,0-.44.08Zm1.08,14.67a1.45,1.45,0,0,0-.28-.52c-.05-.13-.13-.16-.24-.08a.44.44,0,0,0-.26.38.46.46,0,0,0,.18.42q.2.2.32,0a.23.23,0,0,1,.16-.08A.13.13,0,0,0,76.8,313.65Zm-.16,3.54c-.08,0-.12,0-.12.08s0,.08,0,.08.12,0,.12,0S76.7,317.24,76.64,317.19Zm-.08-17.48c.11.16.21.24.3.22a1,1,0,0,0,.34-.14.51.51,0,0,0-.3-.12A1.81,1.81,0,0,0,76.56,299.7Zm.6,16.12-.08-.06L77,315.7v.08s0,.05.12.08Zm.08-13.71a.13.13,0,0,0-.12-.08.17.17,0,0,0,0,.12l.08,0A.07.07,0,0,0,77.25,302.12Zm.68,14.55c-.08,0-.09.09,0,.2s.12.15.2.12.07-.05,0-.08a.16.16,0,0,1,0-.12C78,316.7,78,316.66,77.93,316.66Zm0,1.21.2-.06c.05,0,.08-.07.08-.18s-.05-.13-.16-.08a.14.14,0,0,0-.08.14A.41.41,0,0,1,77.93,317.87Z"/><path class="cls-2" d="M107,312.28v-.74a4,4,0,0,0-.08-.78,2.1,2.1,0,0,1,0-.76c0-.24.09-.5.14-.76a2.65,2.65,0,0,0,0-1.37,1.51,1.51,0,0,1-.08-.48v-.52q0-.72-.06-1.45a7.48,7.48,0,0,1,.1-1.45,5,5,0,0,0,0-1.08,4.52,4.52,0,0,1,0-1,7.51,7.51,0,0,0-.08-1.53,3.38,3.38,0,0,1-.08-.74,6.6,6.6,0,0,1,0-.74q0-.4,0-.8a3.41,3.41,0,0,0-.14-.8,1.09,1.09,0,0,0-.26-.44.71.71,0,0,0-.46-.12,2.45,2.45,0,0,0-.88,0,7.33,7.33,0,0,1-.78,0,2.6,2.6,0,0,0-.78,0h-.08a1.25,1.25,0,0,1-.86-.36,1,1,0,0,1-.22-.88,3.28,3.28,0,0,0,.06-.8,1.88,1.88,0,0,1,.14-.8.27.27,0,0,1,.2-.24l.66-.14a1.19,1.19,0,0,1,.7.1,1.39,1.39,0,0,0,.4,0,3.24,3.24,0,0,1,1-.08,4.23,4.23,0,0,0,1,0,1.5,1.5,0,0,1,.73,0,1.76,1.76,0,0,0,.69.06q1,0,2,0t2,0q.48,0,1,0a4.21,4.21,0,0,1,1,.2.86.86,0,0,1,.68.76c0,.16,0,.32.06.48a1.71,1.71,0,0,1-1.51,1.77q-.4,0-.8,0a2.68,2.68,0,0,1-.8,0,1.29,1.29,0,0,0-.5,0l-.5.1a.6.6,0,0,0-.38.26,1.29,1.29,0,0,0-.14.38l-.08.64a2.58,2.58,0,0,0,0,.64,11.46,11.46,0,0,1,0,1.35,11.26,11.26,0,0,0,0,1.35,8,8,0,0,1,0,1.39l-.08,1.39a4.7,4.7,0,0,0,0,.62,4.78,4.78,0,0,1,0,.62,3.69,3.69,0,0,1,0,.76l-.08.72a2.9,2.9,0,0,0,0,.9,7,7,0,0,1,.06.9q0,.56,0,1.06c0,.34,0,.69,0,1.07a3.89,3.89,0,0,1,0,.78q0,.38-.08.78a1.45,1.45,0,0,0,0,.68,5.26,5.26,0,0,1,.12,1.11q0,.54,0,1.11l-.08,1a6.52,6.52,0,0,0,0,1,1,1,0,0,1-.31,1,1.43,1.43,0,0,1-1.08.22,2,2,0,0,0-.37,0,1.86,1.86,0,0,1-.37,0,.82.82,0,0,1-.57-.22.7.7,0,0,1-.24-.54,8.39,8.39,0,0,0-.08-1.63,8.32,8.32,0,0,1-.08-1.63q0-.56.08-1.11A7.73,7.73,0,0,0,107,312.28Zm-2.25-17.4v-.4c0-.13-.05-.2-.16-.2a.22.22,0,0,0-.24.2q-.08.2.2.4a2,2,0,0,1-.54.08,3.9,3.9,0,0,0-.54,0c-.13,0-.2.07-.2.12a.39.39,0,0,0,.08.2l-.16.06c-.05,0-.07,0,0,.1a1.67,1.67,0,0,1,.06.24c0,.08.09.13.22.16a3.38,3.38,0,0,1,.6,0,2.29,2.29,0,0,0,1,.18l1,0c0-.19-.1-.27-.22-.24a.23.23,0,0,1-.26-.08.63.63,0,0,0-.38-.16,2,2,0,0,0-.38,0,.58.58,0,0,1-.5-.08.78.78,0,0,1-.34-.36,3.53,3.53,0,0,0,1.31-.08,4.21,4.21,0,0,1,1.31-.12c.08,0,.12,0,.12-.08l-.12-.12h-.28a1.88,1.88,0,0,1-.6.06,1.63,1.63,0,0,0-.56.06A.33.33,0,0,1,104.78,294.88Zm-1.29-.32c-.08,0-.12,0-.12.08s.09.08.12.08.12,0,.12-.08S103.57,294.56,103.49,294.56Zm3.46-.64a.32.32,0,0,1-.14,0s-.06,0-.06.12a.19.19,0,0,0,.2.12.24.24,0,0,0,.2-.12c0-.08,0-.12-.06-.12A.32.32,0,0,1,106.95,293.92Zm.81,1.81a.82.82,0,0,1-.32,0q-.32-.08-.36.12a.35.35,0,0,0,0,.16q0,.08.16.16c.05,0,.05.05,0,.16a.17.17,0,0,0,0,.24l.18.08a.31.31,0,0,0,.22,0c.11-.19.11-.31,0-.36s-.18-.15-.14-.2a.75.75,0,0,1,.18-.16.12.12,0,0,0,0-.08.14.14,0,0,1,.12-.12l0,0S107.76,295.67,107.76,295.73Zm-.21,18.61c-.05,0-.08,0-.08.12s.07.05.12,0a.07.07,0,0,0,.08-.08C107.62,314.32,107.58,314.31,107.55,314.33Zm1-1.57a.34.34,0,0,0-.14-.38l-.38-.18a.84.84,0,0,0-.26,0c-.09,0-.17.07-.22.2a.72.72,0,0,0-.06.36,2.62,2.62,0,0,0,.06.32.36.36,0,0,0,.24.24.33.33,0,0,0,.32-.12.39.39,0,0,1,.44-.16,1.1,1.1,0,0,0,.2.24c.05.13.11.13.16,0a.47.47,0,0,1,.08-.12s0-.07-.08-.12a.9.9,0,0,1-.24-.16C108.72,312.79,108.68,312.77,108.6,312.77Zm-1,2.85a.35.35,0,0,0-.06.22l.1.26.06-.26A.26.26,0,0,0,107.63,315.62Zm0-15.67a.07.07,0,0,0-.08.08,0,0,0,0,0,0,0h0a.07.07,0,0,0,.08-.08S107.72,299.95,107.67,299.95Zm0,13.71c0-.05,0-.08,0-.08h-.08a.16.16,0,0,0,0,.12s0,0,0,0S107.68,313.65,107.71,313.65Zm.24-16.4a.14.14,0,0,0-.16-.16c-.11,0-.13.05-.08.16a.12.12,0,0,0,.24,0Zm.34-.56a.57.57,0,0,0-.52,0v.08a.41.41,0,0,0,.4,0Zm-.5-.64c.05.11.12.16.2.16a.43.43,0,0,0,.24-.08c.08,0,.09,0,0-.08s-.08-.17-.16-.12a.2.2,0,0,1-.2,0S107.84,296,107.79,296Zm.36,12.1a.06.06,0,0,1-.08,0s0,0,0,.06,0,.12.12.12a.11.11,0,0,0,.12-.12C108.27,308.17,108.23,308.14,108.15,308.14Zm.24,0a.26.26,0,0,0,.28,0,.5.5,0,0,1,.28-.08.19.19,0,0,0,.14-.06.11.11,0,0,0,0-.14.22.22,0,0,1-.06-.2.19.19,0,0,0-.1-.2.11.11,0,0,0-.14,0,.54.54,0,0,1-.14.1.36.36,0,0,0-.2.22C108.45,307.9,108.42,308,108.39,308.14Zm.32-12a1.76,1.76,0,0,0-.16-.24c-.11,0-.13.05-.08.16s.05.2.16.2,0,0,0-.06S108.69,296.19,108.72,296.17Zm.59-.4a.54.54,0,0,1-.14.36,1.24,1.24,0,0,0-.22.36c.21-.05.33-.15.34-.3S109.3,295.9,109.3,295.77Zm-.15-.4s0,0,.12,0a.12.12,0,0,0,0-.08.17.17,0,0,0-.12,0A.12.12,0,0,0,109.16,295.36Zm.28,9a.14.14,0,0,1,0-.1s0,0-.08,0-.12.05-.12.16,0,.2.08.2.12,0,.12-.08A.36.36,0,0,1,109.44,304.41Zm0-.84-.08,0c0,.08,0,.12.08.12l.08,0S109.45,303.62,109.4,303.56Zm.36-8.36,0-.08c-.05,0-.08,0-.08,0s0,.08,0,.08,0,0,0,0S109.73,295.2,109.76,295.2Zm.32-.36a.28.28,0,0,0,.26,0l.3-.2a.66.66,0,0,0-.36.08A1.32,1.32,0,0,0,110.08,294.84Zm.12-.72c-.08.05-.09.11,0,.16a.24.24,0,0,1,.08.16s0,0,.12,0,.11-.11,0-.16a.13.13,0,0,1-.08-.12A.07.07,0,0,0,110.2,294.12Zm1.09.8c0-.08,0-.12-.08-.12a.12.12,0,0,0-.08,0s0,.07,0,.12S111.23,295,111.29,294.92Zm.28.68v.08c0,.05.07.05.12,0h.14a.23.23,0,0,1,.14.08.33.33,0,0,0,0,.32.25.25,0,0,0,.28.08.19.19,0,0,0,.14-.06s0-.1-.06-.18a.32.32,0,0,1,0-.44.23.23,0,0,0,0-.28.39.39,0,0,0-.28-.08.31.31,0,0,0-.28.28A.36.36,0,0,0,111.57,295.61Zm1.08-.08c0-.05,0-.08,0-.08a.12.12,0,0,0-.08,0c-.05.05,0,.08.08.08Zm0,.56c.16.05.27,0,.32,0l-.16,0A.17.17,0,0,0,112.65,296.09Z"/><path class="cls-2" d="M135.36,308.95a1.34,1.34,0,0,0,.42-.6c.07-.21.13-.44.18-.68a6,6,0,0,0,.16-1,4.14,4.14,0,0,1,.2-1,4.38,4.38,0,0,0,.22-1.25,2.55,2.55,0,0,1,.34-1.21c0-.05,0-.09,0-.12a.28.28,0,0,1,0-.12q.12-.92.28-1.83t.24-1.83a5.5,5.5,0,0,1,.16-.94l.24-.9a3.1,3.1,0,0,0,.12-.5l.08-.54a3.46,3.46,0,0,1,.1-.84q.1-.4.22-.84l.08-.22a.22.22,0,0,0,0-.18.33.33,0,0,1,0-.36,2.74,2.74,0,0,1,.28-.24,1,1,0,0,1,.7-.22,3.92,3.92,0,0,0,.7,0l.36,0a.74.74,0,0,1,.36.06.75.75,0,0,1,.6,1,15.77,15.77,0,0,0-.28,1.95l-.16,1.95a1.24,1.24,0,0,1-.12.56,1.7,1.7,0,0,0-.16.52c0,.13-.05.25-.08.36a3,3,0,0,1-.12.36,1,1,0,0,0-.1.32,2.82,2.82,0,0,1-.06.32q-.2,1-.32,2a11.29,11.29,0,0,1-.4,1.91,3.84,3.84,0,0,1-.2.54,1.29,1.29,0,0,0-.12.54q-.08.6-.2,1.21t-.28,1.21a3.49,3.49,0,0,0-.18,1,9.14,9.14,0,0,1-.1,1l-.08.48a3.29,3.29,0,0,1-.12.48,1.06,1.06,0,0,0-.08.4,1.08,1.08,0,0,1-.08.4,13.25,13.25,0,0,0-.3,1.63,9.79,9.79,0,0,1-.34,1.63q-.12.44-.22.9t-.18.9a2.34,2.34,0,0,1-.68,1.49.82.82,0,0,1-.76.2l-.52-.08a3.23,3.23,0,0,0-.52,0,.89.89,0,0,1-.62-.3,1.42,1.42,0,0,1-.3-.58q-.16-.52-.34-1a2.57,2.57,0,0,1-.14-1.07.47.47,0,0,0,0-.3,1.91,1.91,0,0,1-.1-.3,3.62,3.62,0,0,1-.1-.68,3.73,3.73,0,0,0-.1-.68q-.08-.44-.14-.82a5.25,5.25,0,0,1-.06-.82,2,2,0,0,0-.28-1.08,2.67,2.67,0,0,1-.26-.82c0-.28-.09-.57-.14-.86q-.2-1-.32-2a6.87,6.87,0,0,0-.52-1.91.36.36,0,0,1-.06-.26.51.51,0,0,0-.06-.3.7.7,0,0,1-.06-.2c0-.08-.07-.12-.18-.12a.36.36,0,0,0-.4.36c-.05.27-.11.52-.18.76a4.51,4.51,0,0,0-.14.72q-.08.44-.18.86c-.07.28-.14.56-.22.82a6.92,6.92,0,0,0-.18.88q-.06.44-.14.88-.2,1.17-.44,2.29t-.44,2.29a9.85,9.85,0,0,1-.24,1.21q-.16.6-.28,1.21a4.39,4.39,0,0,0-.1.7,1.71,1.71,0,0,1-.18.66.88.88,0,0,1-.76.52,1.7,1.7,0,0,0-.76.16.41.41,0,0,1-.36.06,2.26,2.26,0,0,1-.36-.18l-.22-.22a.57.57,0,0,0-.3-.14.31.31,0,0,1-.22-.16,1.81,1.81,0,0,1-.1-.24,1.67,1.67,0,0,1-.18-.42,3.92,3.92,0,0,0-.14-.42,20.14,20.14,0,0,1-.52-2.07l-.4-2.07q-.16-.76-.28-1.51t-.2-1.55a17.32,17.32,0,0,0-.28-2q-.2-1-.48-2-.2-.68-.34-1.35t-.22-1.35a7,7,0,0,0-.12-.72l-.16-.72q-.12-.56-.18-1.07T121,299.5a10.09,10.09,0,0,0-.36-1.61,5.1,5.1,0,0,1-.16-.92c0-.32-.05-.63-.08-.92s-.06-.42-.1-.6-.09-.39-.14-.6a1.3,1.3,0,0,1-.08-.32q0-.68.12-.82a1.37,1.37,0,0,1,.72-.18h1.37a.77.77,0,0,1,.72.48,1.39,1.39,0,0,1,.12.54,3.76,3.76,0,0,0,0,.54q.08.56.18,1.08t.22,1.08l.16.72a6.9,6.9,0,0,1,.12.72l.16,1a3.67,3.67,0,0,0,.28.94,1.28,1.28,0,0,1,.16.64,12.59,12.59,0,0,0,.3,1.85A12.72,12.72,0,0,1,125,305a4.94,4.94,0,0,0,.14.78,5.17,5.17,0,0,1,.14.82,2,2,0,0,0,.14.72,5,5,0,0,1,.22.72.77.77,0,0,0,.32.4.73.73,0,0,0,.52.12c.13,0,.2-.09.2-.28s.1-.53.14-.78.09-.52.14-.78a11.26,11.26,0,0,0,.28-1.65l.16-1.69a3.67,3.67,0,0,1,.16-.6q.2-.72.34-1.45t.22-1.49q.08-.68.18-1.37a9.87,9.87,0,0,1,.3-1.37,2.09,2.09,0,0,0,.12-.46,1.07,1.07,0,0,0,0-.5.47.47,0,0,1,0-.4c.07-.13.13-.27.18-.4a4.27,4.27,0,0,0,.24-.92,1.06,1.06,0,0,1,.14-.36,2.31,2.31,0,0,0,.18-.36.36.36,0,0,1,.44-.2.87.87,0,0,0,.56,0,4.87,4.87,0,0,1,.52-.18,1.06,1.06,0,0,1,.8.16,1,1,0,0,1,.44.68q.08.6.2,1.19t.2,1.19a8.48,8.48,0,0,0,.22,1,8.92,8.92,0,0,1,.22,1q.08.6.22,1.21a12.25,12.25,0,0,1,.22,1.25,1.23,1.23,0,0,0,0,.34,3.28,3.28,0,0,0,.12.34l.32,1a4.58,4.58,0,0,1,.2,1.06,2.28,2.28,0,0,0,.16.92,1.63,1.63,0,0,1,.12.56,4.65,4.65,0,0,0,.14,1.43,5.55,5.55,0,0,1,.18,1.39A.89.89,0,0,0,135.36,308.95ZM121,295.61a.08.08,0,1,0-.16,0l0,.08C121,295.69,121,295.66,121,295.61Zm.72,2.65,0,0v0a.11.11,0,0,0-.12-.12c-.05.05-.08.09-.08.12A.16.16,0,0,0,121.74,298.26Zm.32,1.29a.47.47,0,0,0-.16-.32Q121.82,299.5,122.06,299.54Zm.48,1.69a.13.13,0,0,0-.12-.08.11.11,0,0,0-.12.12.07.07,0,0,0,.08.08C122.43,301.35,122.49,301.31,122.54,301.23Zm.2,2.21c.05,0,.08-.09.08-.2s0-.08-.12-.08-.11.13-.08.16A.11.11,0,0,0,122.74,303.44Zm.4-2.61a.11.11,0,0,0-.12-.12c-.05,0-.11,0-.18.08a.74.74,0,0,0-.14.24c0,.11,0,.16.12.16a.29.29,0,0,0,.22-.12A.38.38,0,0,0,123.14,300.83Zm-.28,4.3c-.05,0-.08,0-.08,0s0,.07,0,.12a.07.07,0,0,0,.08-.08C123,305.16,122.94,305.13,122.86,305.13Zm.24-1.57c-.05,0-.11.05-.16.16a.11.11,0,0,0,.12.12c.11,0,.16,0,.16-.12S123.18,303.56,123.1,303.56Zm.24,4.3,0,0V308q.12.08.12,0A.07.07,0,0,0,123.34,307.86Zm.12-5.51c.05,0,.08,0,.08-.12l0-.08q-.16.08-.16.12C123.34,302.33,123.38,302.36,123.46,302.36Zm0-1.81a2,2,0,0,0,.06-.22c0-.07,0-.13-.1-.18Q123.26,300.35,123.51,300.55Zm.12.76q-.16.44-.12.5s.17,0,.44,0a2.21,2.21,0,0,1-.14-.24A1.9,1.9,0,0,0,123.63,301.31Zm.28,3,0,.08s0,0,.08,0,.09,0,0-.08S124,304.29,123.91,304.29Zm.32-.56a.92.92,0,0,0-.12-.48Q123.87,303.56,124.23,303.72Zm.52,4.82c0-.08,0-.12-.08-.12s-.16.07-.16.2,0,.12,0,.12.13,0,.14-.06Zm.2-.52.08,0c0-.05,0-.08,0-.08s-.08,0-.08,0A.12.12,0,0,1,125,308Zm0,2.73,0,.08c.08.05.12,0,.12-.08l0,0C125,310.69,124.91,310.7,124.91,310.76Zm0,4a.33.33,0,0,1,.14,0,.22.22,0,0,0,.14-.08C125.07,314.6,125,314.64,125,314.78Zm1.33-5.31c-.05-.08-.13-.06-.22.06s-.15.06-.18-.18a.12.12,0,0,0-.08,0l-.08.08a.47.47,0,0,0,0,.32c.05.13.11.2.16.2s.16,0,.16-.06a.25.25,0,0,1,.08-.18C126.26,309.62,126.3,309.55,126.28,309.47Zm.48.32a.12.12,0,1,0-.24,0c0,.08,0,.12.08.12S126.76,309.87,126.76,309.79Zm.32.56a.11.11,0,0,0-.12.12s0,0,.12,0,.15,0,.12-.12l-.06,0ZM127,309h.22a.23.23,0,0,0,.18-.12C127.24,308.8,127.11,308.84,127,309Zm.92-1.25a.22.22,0,0,0,.06-.2,1.22,1.22,0,0,1,0-.2c0-.13,0-.16-.12-.08s-.16,0-.08.12a.19.19,0,0,1,.06.18C127.81,307.67,127.85,307.73,127.93,307.78Zm.76,0c0-.13,0-.21-.08-.24s-.11,0-.16.12-.07.16-.2.16-.12.07,0,.2a.07.07,0,0,0,.08.08l0,0c0-.13.09-.21.18-.22A.21.21,0,0,0,128.69,307.82Zm.08-5.59c-.08,0-.12,0-.12,0s0,.12.08.12.12,0,.12-.08A.07.07,0,0,0,128.77,302.24Zm.16,4.18a1.59,1.59,0,0,1,.1.34c0,.09,0,.18-.18.26s-.09.16,0,.16.11.09.16,0,.12,0,0-.12a.17.17,0,0,1,0-.24q.2-.2,0-.28A.9.9,0,0,1,128.93,306.42Zm.52-2.17c.11-.05.15-.12.12-.2s0-.09-.08,0a.11.11,0,0,0-.12.12C129.37,304.21,129.4,304.25,129.45,304.25Zm0-6.11a1,1,0,0,0,.12-.44l-.14.16C129.43,297.91,129.44,298,129.49,298.14Zm.52,4.74q-.16,0-.12.12a.07.07,0,0,0,.08.08c.13,0,.2,0,.2-.12S130.12,302.88,130,302.88Zm.12-2.49a.07.07,0,0,0-.08-.08c-.08,0-.12,0-.12.08s0,.13.12.08A.07.07,0,0,0,130.14,300.39Zm.48.44c0-.11,0-.16-.12-.16s-.12,0-.12.12a.11.11,0,0,0,.12.12C130.58,301,130.62,300.94,130.62,300.83Zm.16,2.73q-.2-.12-.24,0a.28.28,0,0,1,0,.12s0,.05.06.08a.22.22,0,0,0,.28,0v0c.08-.24.19-.25.32,0s.29.19.4.08a1.74,1.74,0,0,0,.18-.22c.07-.09.09-.17.06-.22s-.13-.17-.22-.12l-.22.12a.43.43,0,0,1-.24.08c-.08,0-.15.05-.2.16A.1.1,0,0,1,130.78,303.56Zm.8-.72a.77.77,0,0,1,.24,0c.08,0,.13-.07.16-.2s0-.11-.06-.1a.27.27,0,0,1-.18,0c-.05,0-.07-.05,0-.08.08-.19.07-.31,0-.36a.78.78,0,0,1-.28-.24q.08.2-.08.24a.51.51,0,0,0-.24.12c-.08.05-.11.11-.08.18a.16.16,0,0,1,0,.18.5.5,0,0,0-.12.22.21.21,0,0,0,0,.22.18.18,0,0,0,.22.08l.22-.08A.39.39,0,0,0,131.58,302.84Zm-.64-4a.07.07,0,0,0-.08.08V299c.08.08.12.07.12,0S131,298.87,130.94,298.82Zm.56-1.93c0-.08,0-.12-.08-.12s0,0,0,0,0,0,0,0,0,.12.08.12S131.5,296.92,131.5,296.89Zm.64,7.43,0-.08c-.08-.08-.12-.07-.12,0a.35.35,0,0,1-.2.1c-.08,0-.12.07-.12.18a.07.07,0,0,0,.08.08c.05.05.13,0,.24-.06A.38.38,0,0,0,132.15,304.33Zm-.12-5a.07.07,0,0,0-.08-.08c-.11,0-.13,0-.08.08a.07.07,0,0,0,.08.08C132.05,299.38,132.08,299.36,132,299.3Zm0-2a.16.16,0,0,0-.08.16c.05.05.09.08.12.08s.09-.05,0-.16A.07.07,0,0,0,132,297.25Zm.48,1.37c-.08-.08-.11-.12-.08-.12q-.2,0-.24.12a.16.16,0,0,0,.12.16Q132.43,298.78,132.51,298.62Zm-.2-.44q-.16,0-.08.12a.11.11,0,0,0,.08,0,.08.08,0,0,0,0-.16Zm.28,5.87c.05-.05.08-.09.08-.12s0-.12-.12-.12-.08.05-.08.16S132.51,304,132.59,304Zm.24,3.34c-.05,0-.08,0-.08,0v0a0,0,0,0,0,0,0c.05.05.08,0,.08-.08Zm.12,2.17c.08-.08.05-.12-.08-.12a.12.12,0,0,0,0,.08.07.07,0,0,0,.08.08s0,0,0,0Zm.44-.8c.08,0,.11,0,.08-.12l0,0a.07.07,0,0,0-.08.08s0,0,0,0S133.39,308.72,133.39,308.75Zm.32-4.34a.11.11,0,0,0-.12-.12c-.11,0-.16.08-.16.24s0,.07.08,0S133.71,304.46,133.71,304.41Zm0,9c0-.11,0-.13-.08-.08s-.08,0-.08,0,0,.08,0,.08S133.66,313.42,133.71,313.37Zm.84,3.62.22-.14a.34.34,0,0,0,.14-.22l0,0-.08,0a.18.18,0,0,0-.2.12,1.68,1.68,0,0,1-.08.2s0,0,0,0S134.56,316.93,134.56,317Zm.12.48a.16.16,0,0,0,.12-.16c-.05-.05-.09-.08-.12-.08s-.12,0-.12.12A.11.11,0,0,0,134.68,317.47Zm.6-1.53-.2-.28a.25.25,0,0,0-.28-.08c.11.11.16.17.16.2a.88.88,0,0,1-.12.24c.08.05.15.05.2,0A.33.33,0,0,1,135.28,315.94Zm.52-3.5a.91.91,0,0,0-.52.06l-.4.18a2.29,2.29,0,0,1,.44,0A.76.76,0,0,0,135.8,312.45Zm.16,3.82a1,1,0,0,0-.4-.1c-.05,0-.11.13-.16.34a.27.27,0,0,1,.24-.12A.54.54,0,0,0,136,316.26Zm.12-4.74a.5.5,0,0,1-.26-.06c-.07,0-.15,0-.26.06a1.15,1.15,0,0,0,.22.18Q135.88,311.76,136.08,311.52Zm-.16,6.35c.13.11.24.08.32-.08a.29.29,0,0,0,0-.4.22.22,0,0,0-.14-.08s-.06,0-.06.08a1.31,1.31,0,0,1-.08.24q0,.08-.24,0c-.08,0-.13,0-.14.08a.32.32,0,0,0,0,.2c.05.05.09.05.1,0s0-.07.06,0Zm-.2-8.24a.81.81,0,0,0,.26-.2l.18-.24,0-.08a.34.34,0,0,0-.26.16.75.75,0,0,1-.14.2Zm.64,2.89h-.24c-.05,0-.11,0-.16.12s-.05.08,0,.08S136.23,312.74,136.37,312.53Zm.84,1.65a.87.87,0,0,0-.56.44l-.06.14s-.06,0-.14,0-.16,0-.16.12.09.08.2.08a.65.65,0,0,1,.28-.08c.08,0,.12-.07.12-.2a.65.65,0,0,1,.24-.2A.33.33,0,0,0,137.21,314.17Zm-.76,2.37a.26.26,0,0,1,.12-.06c.05,0,.07,0,0-.1l-.08-.06a.2.2,0,0,1-.08-.1A.25.25,0,0,0,136.45,316.54Zm.72-11.09a.08.08,0,1,0-.16,0,.12.12,0,0,0,.08,0C137.14,305.55,137.17,305.53,137.17,305.45Zm.08.8a.07.07,0,0,0-.08-.08.23.23,0,0,0-.16.08v0s0,0,.08,0S137.2,306.36,137.25,306.26Zm0,7.23a.22.22,0,0,0-.16.24,0,0,0,0,0,0,0h.08c.11-.05.16-.11.16-.16A.11.11,0,0,0,137.21,313.49Zm.12-6.79a.17.17,0,0,1-.12,0c-.05.05-.08.09-.08.12s0,0,0,0,.07,0,.12-.08v-.08c.08,0,.13,0,.16,0l0-.08A.07.07,0,0,0,137.33,306.7Zm.52.76a.89.89,0,0,0-.32.12l-.28.16s0,0,0,.12a0,0,0,0,0,0,0l0,0a.27.27,0,0,1,.24,0,.36.36,0,0,0,.24,0Q138,307.78,137.85,307.46Zm-.24-1.93q-.2,0-.2.16t.2.28c.08,0,.12,0,.12-.08a.36.36,0,0,1,0-.16C137.83,305.6,137.77,305.53,137.61,305.53Zm.48-3.9c-.05-.16-.15-.23-.28-.2l0,0a0,0,0,0,1,0,0,.56.56,0,0,1,.12.18c0,.07.08.09.16.06S138.09,301.71,138.09,301.63Zm-.08-2.21c-.05,0-.08.07-.08.2a.16.16,0,0,0,.12,0,.18.18,0,0,0,.12-.2A.13.13,0,0,0,138,299.42Zm.32,6.91c0-.08,0-.12-.08-.12s-.21,0-.24.12l0,0a0,0,0,0,0,0,0A.2.2,0,0,0,138.34,306.34Zm0,.32c-.11.05-.16.11-.16.16s.09.08.12.08.16-.11.16-.16S138.4,306.66,138.3,306.66Zm.44-.84c0-.05,0-.08,0-.08a.12.12,0,0,1-.08,0c-.11-.05-.18,0-.22,0a.9.9,0,0,1-.14.18q-.12.12,0,.16a.11.11,0,0,0,.16,0,.26.26,0,0,1,.16-.06C138.68,306,138.74,305.89,138.74,305.81Zm-.2-4.78a.07.07,0,0,0-.08-.08s-.07,0-.12.08a.11.11,0,0,0,.12.12Q138.54,301.15,138.54,301Zm.44-.76c-.05-.08-.09-.12-.12-.12s-.12,0-.12.08a.11.11,0,0,0,.12.12S138.92,300.32,139,300.27Zm.08.92c-.05.19,0,.28.12.28a.46.46,0,0,0,.24-.14c.11-.09.15-.17.12-.22a.21.21,0,0,0-.24-.24Q139,301,139.06,301.19Zm.28.6c0-.05,0-.08-.12-.08a.11.11,0,0,1-.08,0s0,0,0,.08-.07.12,0,.12S139.29,301.9,139.34,301.79Zm-.16-1.93a.48.48,0,0,0,.36.08,1.55,1.55,0,0,0,.32-.12.42.42,0,0,0,.2-.44c0-.11,0-.16-.12-.16a.13.13,0,0,0-.16,0,.81.81,0,0,1-.3.3A.82.82,0,0,0,139.18,299.86Zm.56-3.82a.85.85,0,0,0-.2-.16c-.13,0-.2,0-.2.16s0,.15.08.2A.36.36,0,0,0,139.74,296Zm.24,1.41a0,0,0,0,1,0,0l0,0a.18.18,0,0,0-.1.1l-.06.14c0,.08,0,.12.08.12S140,297.61,140,297.45Zm.24.24c.05.05.09.07.12,0s0,0,0-.08,0-.11-.08-.08S140.22,297.61,140.22,297.7Z"/><path class="cls-2" d="M158.51,312.4a3.69,3.69,0,0,1,0,.76,2.06,2.06,0,0,1-.2.72,9.35,9.35,0,0,0-.36.92,9.63,9.63,0,0,1-.36.92,3.22,3.22,0,0,1-1,1.27,9.09,9.09,0,0,1-1.29.82,5,5,0,0,1-.64.34,4,4,0,0,1-.64.22,5.65,5.65,0,0,1-4.43-.64,10,10,0,0,1-1.06-.68,8.68,8.68,0,0,1-.94-.8,3,3,0,0,1-.35-.4.88.88,0,0,1-.14-.52l-.08-.12a3.52,3.52,0,0,1-.43-1.59q0-.82-.06-1.87a2.1,2.1,0,0,1,0-.82,3.54,3.54,0,0,0,0-1.07q0-.44-.06-.86a3.79,3.79,0,0,1,.06-.86,3.64,3.64,0,0,0,0-1.21,9.22,9.22,0,0,1-.16-1.25v-.94a5.74,5.74,0,0,1,.08-.95,2.23,2.23,0,0,0,0-.84,2.92,2.92,0,0,1,0-.84,1.48,1.48,0,0,0,0-.24.49.49,0,0,1,0-.24,4.31,4.31,0,0,0,0-1q0-.48-.08-1a4.33,4.33,0,0,1,.2-1.77,5.79,5.79,0,0,1,.84-1.61,5.75,5.75,0,0,0,.36-.48,2.9,2.9,0,0,1,.36-.44,6.83,6.83,0,0,1,1.71-1.27,5.26,5.26,0,0,1,2-.54,1.48,1.48,0,0,1,.48,0,1.16,1.16,0,0,0,.52,0,.53.53,0,0,1,.44,0,.77.77,0,0,0,.48.08c.08-.05.17,0,.28.08a3,3,0,0,0,.86.42,2.59,2.59,0,0,1,.86.46,17.45,17.45,0,0,1,1.41,1.41,4,4,0,0,1,.88,1.77,9.87,9.87,0,0,1,.24,1.65,11.12,11.12,0,0,1,0,1.33,10.73,10.73,0,0,0,0,1.33l.08.5a3.37,3.37,0,0,1,0,.5,11.39,11.39,0,0,0,0,1.79,11.38,11.38,0,0,1,0,1.79,2.32,2.32,0,0,0,0,.52c0,.16,0,.34.06.52a6,6,0,0,1,0,1.39,8,8,0,0,0,0,1.39q0,.52,0,1T158.51,312.4Zm-11.45,2.13a.62.62,0,0,0,.37,0,.37.37,0,0,0,.2-.2A.85.85,0,0,0,147.07,314.53Zm.19-16.68c-.05.05,0,.08,0,.08a.11.11,0,0,0,.12-.12.12.12,0,0,0,0-.08A.11.11,0,0,0,147.26,297.86Zm.44,4.62a.29.29,0,0,0-.16-.32.61.61,0,0,1-.24-.08.28.28,0,0,1,0,.12.27.27,0,0,0,0,.12c0,.16.07.24.2.24S147.7,302.53,147.7,302.48Zm-.12,8.64c.08-.05.11-.11.08-.16s-.05-.12-.16-.12-.11.11-.08.16A.16.16,0,0,0,147.58,311.12Zm.64-1.45h0l.08,0-.3-.14a.27.27,0,0,0-.26,0c-.08.05-.09.11,0,.16a.18.18,0,0,0,.22.08,1,1,0,0,1,.26,0Zm-.36-12c-.08,0-.11.05-.08.16a.11.11,0,0,0,.12.12c.05,0,.08,0,.08-.06s0,0,0-.06l.08,0c.05,0,.08,0,.08-.12l-.08,0c-.05,0-.08,0-.08,0S147.91,297.63,147.86,297.65Zm.68,2.09q-.08-.32-.24-.32c-.16,0-.21.07-.16.2a.73.73,0,0,1,.06.2c0,.08.07.11.18.08A.14.14,0,0,0,148.54,299.74ZM148.3,296c-.08.05-.09.16,0,.32v0l.16-.06q.08,0,0-.18C148.42,296,148.38,295.94,148.3,296Zm.63,12.9a2,2,0,0,0-.26-.28s-.14,0-.3,0a1,1,0,0,0,.24.12Zm-.35-10.33a.13.13,0,0,0-.12.08l0,0c.05,0,.08,0,.08,0Zm0,13.46c0,.08.11.12.24.12s.11,0,.08-.12a.24.24,0,0,0-.2-.12A.11.11,0,0,0,148.54,312Zm.2-11.25a.07.07,0,0,0-.08.08.13.13,0,0,0,.12.08q.16,0,0-.12S148.8,300.75,148.74,300.75Zm.15,13.75a1.17,1.17,0,0,0,.08-.72c-.19.16-.28.27-.28.32A1.23,1.23,0,0,0,148.9,314.49Zm0-7.52a.16.16,0,0,0,.12-.16.11.11,0,0,1,0-.08s0,0-.08,0-.12.11-.12.16S148.81,307,148.87,307Zm0-5.63a.07.07,0,0,0-.08-.08s0,0-.06,0a.06.06,0,0,0,0,.08s0,0,0,0,0,0,0,0Zm6.55,2a1.16,1.16,0,0,0,0-.36c0-.11,0-.23-.06-.36-.05-.29-.1-.59-.14-.88a2.2,2.2,0,0,1,.06-.88v-.32a7.22,7.22,0,0,0,0-.74c0-.25-.07-.52-.12-.78a2.71,2.71,0,0,0-1.6-2.29,1.17,1.17,0,0,0-.44-.08,2.93,2.93,0,0,1-.48,0,1.46,1.46,0,0,0-.48,0l-.48.08a1.74,1.74,0,0,0-.7.3l-.62.46a1.57,1.57,0,0,0-.72,1l-.08.88a4.78,4.78,0,0,0,0,.88v.66a5.33,5.33,0,0,0,0,.66,8.3,8.3,0,0,1,0,1.15,8.15,8.15,0,0,0,0,1.15,5.18,5.18,0,0,1,0,.9l-.08.9q0,.48,0,1a3.87,3.87,0,0,0,0,1,5.43,5.43,0,0,1,.08,1.85,6.87,6.87,0,0,0-.08,1.81q.08.88.08,1.81a1.84,1.84,0,0,0,.16.64,2.68,2.68,0,0,0,1.1,1.33,3.87,3.87,0,0,0,1.62.48,2.05,2.05,0,0,0,1.56-.48.72.72,0,0,0,.2-.2.72.72,0,0,1,.2-.2,1.28,1.28,0,0,0,.54-.56,2.19,2.19,0,0,0,.22-.76,7.79,7.79,0,0,0,0-1.37,7.66,7.66,0,0,1,0-1.37.29.29,0,0,0,0-.24v-.52q.08-.92.12-1.89t0-1.89q0-.68,0-1.33A8.84,8.84,0,0,1,155.46,303.4Zm-5.87-6.67a.23.23,0,0,0,.08.16c.11,0,.16,0,.16-.12s0-.07-.12-.12S149.64,296.68,149.59,296.73Zm3-2c-.05.05,0,.08,0,.08s.07,0,.12,0a.12.12,0,0,0,0-.08C152.64,294.56,152.6,294.57,152.6,294.68Zm.56,22.31v-.08c0-.08-.09-.09-.2,0l-.26.2q-.14.12,0,.32a4.68,4.68,0,0,0,.44-.36Zm.8-22.14c-.13,0-.2.09-.2.28s.11.28.32.28.21-.07.16-.2a.3.3,0,0,1-.08-.22Q154.17,294.84,154,294.84Zm.28,22.27a.51.51,0,0,1,.24-.12c.11,0,.15-.07.12-.12a.47.47,0,0,1-.2-.38.38.38,0,0,0-.2-.34c-.13-.05-.2,0-.2,0l-.14.3c0,.09,0,.19.14.3A2.42,2.42,0,0,1,154.25,317.11Zm1.53-20.66a1.51,1.51,0,0,0,0,.56c0,.05.15.08.36.08a1.51,1.51,0,0,0-.2-.3A.51.51,0,0,1,155.78,296.45Zm.8,8-.28-.12a.65.65,0,0,0-.32,0,1.86,1.86,0,0,1,.26.22C156.33,304.6,156.45,304.57,156.58,304.41Zm.32,9.53c.13,0,.16,0,.08-.12a.24.24,0,0,1-.06-.22.15.15,0,0,0-.1-.18c-.16,0-.24.08-.24.32l0,.08a.11.11,0,0,1-.14,0,.51.51,0,0,0-.14-.1c-.11,0-.17,0-.18.08a.74.74,0,0,1-.06.2c0,.05,0,.11.16.16a.54.54,0,0,0,.36,0Zm-.68-10q-.16,0,0,.12l.08,0q.08,0,.08-.12A.16.16,0,0,1,156.22,303.92Zm1.21,3.86c.08-.05.08-.12,0-.2a.18.18,0,0,1,0-.24.61.61,0,0,1-.36,0c-.21-.11-.35-.09-.4.06a.65.65,0,0,1-.28.34c.21.16.37.19.46.08l.26-.32q.2-.08.2.12C157.27,307.8,157.32,307.84,157.43,307.78Zm-.68,1c.11,0,.16-.07.16-.2s-.15-.24-.28-.24-.16.05-.16.24S156.56,308.83,156.74,308.83Zm0-3.26q0-.12-.08-.12c-.08,0-.12.05-.12.16a.07.07,0,0,0,.08.08A.11.11,0,0,0,156.7,305.57Zm.08,6q.08,0,.08-.16c0-.21,0-.35-.12-.4h-.12a.22.22,0,0,0-.06.2,1.29,1.29,0,0,1,0,.2C156.58,311.6,156.65,311.65,156.78,311.6Zm0-12.82q-.16,0-.08.12l.08.08s.07,0,.12-.08A.11.11,0,0,0,156.82,298.78Zm.16,5.06c-.05,0-.08.05-.08.08s0,0,.08,0l.08,0,.08,0v-.12A.23.23,0,0,0,157,303.84Zm.12-4.54c-.08,0-.12,0-.12.08s0,.12.08.12.08,0,.08,0A.24.24,0,0,0,157.1,299.3Zm.24.72c0-.24-.07-.36-.2-.36s-.12.11-.12.24.07.27.2.24A.11.11,0,0,0,157.35,300Zm-.2,3.34a.43.43,0,0,1,.24-.26.43.43,0,0,0,.24-.26q-.4-.08-.48,0T157.14,303.36Zm.32,2.73c.08,0,.09-.07,0-.2a.12.12,0,0,0-.08,0l-.12,0c0,.05,0,.09,0,.1a.08.08,0,0,1,0,.06C157.35,306.11,157.39,306.15,157.47,306.09Zm.32,1.57a.41.41,0,0,0,0-.3.94.94,0,0,1,0-.26c0-.13-.09-.17-.28-.12s-.15.11-.12.18a.5.5,0,0,1,0,.18c.13-.05.2,0,.2.1A.2.2,0,0,0,157.79,307.66Zm0,2.17c.05-.11,0-.18,0-.22a.73.73,0,0,1-.2-.14c-.13.19-.12.34,0,.44A.27.27,0,0,0,157.83,309.83Zm-.08,2.61c0-.08,0-.12-.08-.12s-.12,0-.12.08a.1.1,0,0,0,0,.16C157.63,312.59,157.69,312.55,157.75,312.45Zm.2-8.12s0-.07-.08-.12-.12,0-.12.08,0,.12.08.12S157.95,304.38,157.95,304.33Z"/><g class="cls-3"><path class="cls-4" d="M153.87,83.8,132.15,97.58,121.51,81.41Q132.58,73.86,144,67.07Z"/></g><polyline class="cls-4" points="578.48 121.03 578.83 120.32 591.13 96.07"/><g class="cls-3"><path class="cls-4" d="M382.1,134.91l.37,7-10.81.87-2.43,96.56,10.61.54-.94,32.29H365l-1,31.93-40-1.33V295.1l-30.59-.74-3-4.58-20.92,12-4.5-6.14-18,11-91.9-160.22c-37.73,26.74-64.5,50-92.85,87.69L1.76,191.69C41.19,146.38,79.6,109.93,121.5,81.41Q132.58,73.84,144,67C201.29,33,266.09,12.53,349,3.65c87.15-6.89,140.76,1.27,190.79,16.78q4.67,1.5,9.21,3.09"/><path class="cls-4" d="M378.93,75.26c15.54-2,33.57-.71,43.73.69"/></g><polyline class="cls-4" points="480.23 153.95 480.23 168.64 414.01 166.5 420.21 101.49"/><g class="cls-3"><path class="cls-4" d="M613.35,52.18,600.61,77.38l-9.48,18.69-10.89-5-6.37,13-39.1-16.22,2.74-8.11-6.37-3.17,17.88-53A422.16,422.16,0,0,1,613.35,52.18Z"/><path class="cls-4" d="M578.48,121l-27,53.27c-1-.89-5.08-3.17-10.35-5.81a1.46,1.46,0,0,0-.29-.15c-5.23-2.59-11.6-5.56-17.28-7.78l-2.74,6.74c-1.84-.7-4.9-2-8.65-3.57h0c-2.05-.85-4.31-1.76-6.7-2.68l25.68-64.12C548.29,103.27,565.88,113.12,578.48,121Z"/><path class="cls-4" d="M461.87,101.09l18.82-19.31a346.94,346.94,0,0,1,41.26,11.66l-4.11,12.11L522.71,118l-17.26,43.07c-8-3.09-27.53-8-52.37-12.42Z"/></g><polygon class="cls-4" points="430.33 77.13 428.03 101.97 420.21 101.49 422.66 75.95 430.33 77.13"/><polygon class="cls-4" points="382.1 134.91 375.3 135.05 371.67 75.95 378.93 75.26 381.19 118.06 381.34 120.61 382.1 134.91"/><g class="cls-3"><path class="cls-4" d="M290.54,289.79S313.3,274.08,327,270.12v25H324.1"/></g><rect class="cls-4" x="345.94" y="250.4" width="6.68" height="19.72"/><polygon class="cls-4" points="229.96 220.12 239.77 236.52 266.79 220.92 257.14 204.84 229.96 220.12"/><polygon class="cls-4" points="55.69 170.21 72.94 186.13 85.32 172.65 68.74 156.06 55.69 170.21"/><path class="cls-5" d="M69.74,176.92v-8.29H68.56v-1.19l2.36-1.18h1.19v10.67Z"/><path class="cls-5" d="M136,79.49h-1.19q.28-2.38,2.38-2.38h2.38a2.26,2.26,0,0,1,1.66.7,2.3,2.3,0,0,1,.7,1.67v.58q0,1.24-2.29,3.2l-.16.13q-2.29,2-2.29,3.09v.11h4.74v1.18h-7.11V86.6q0-1.24,2.3-3.2l.16-.13q2.29-2,2.29-3.2v-.58a1.14,1.14,0,0,0-.36-.85,1.16,1.16,0,0,0-.84-.35h-1.18Q136.12,78.29,136,79.49Z"/><path class="cls-5" d="M245.16,214.54h7.11v1.18l-3.56,2.38h1.19a2.13,2.13,0,0,1,1.69.78,2.45,2.45,0,0,1,.67,1.59v2.36a2.38,2.38,0,0,1-2.36,2.38h-2.37q-2.09,0-2.37-2.37h1.19q.09,1.19,1.18,1.19h1.18a1.19,1.19,0,0,0,1.19-1.19v-2.36a1.48,1.48,0,0,0-.3-.74,1,1,0,0,0-.9-.46h-2.36V218.1l3.56-2.37h-4.75Z"/><g class="cls-3"><path class="cls-5" d="M308.8,311.62v-3.56h-4.74v-1.18L308.8,301h2.38v5.93h1.18v1.18h-1.18v3.56Zm0-4.74v-4.45l-3.56,4.45Z"/></g><path class="cls-5" d="M345.3,233.41h7.11v1.18h-4.74V237h2.38a2.38,2.38,0,0,1,2.36,2.38v2.36a2.38,2.38,0,0,1-2.36,2.38h-2.37q-2.09,0-2.37-2.37h1.19q.08,1.19,1.18,1.19h1.18a1.19,1.19,0,0,0,1.19-1.19v-2.36a1.19,1.19,0,0,0-1.19-1.19H345.3Z"/><path class="cls-5" d="M361.46,102.62a1.46,1.46,0,0,1,.37-.88,1.09,1.09,0,0,1,.81-.3h1.19a2.38,2.38,0,0,1,2.36,2.38v2.36a2.29,2.29,0,0,1-.7,1.67,2.26,2.26,0,0,1-1.66.7h-2.37a2.4,2.4,0,0,1-2.37-2.37V102a4.19,4.19,0,0,1,4.15-4.15H365v1.18h-1.18a2.39,2.39,0,0,0-2.37,2.38Zm2.38,3.56v-2.36a1.19,1.19,0,0,0-1.19-1.19,1.14,1.14,0,0,0-.83.35,1.15,1.15,0,0,0-.35.85v2.36a1.16,1.16,0,0,0,.35.84,1.12,1.12,0,0,0,.83.36,1.14,1.14,0,0,0,.85-.36A1.16,1.16,0,0,0,363.83,106.18Z"/><path class="cls-5" d="M408.22,82.91h7.11v2.38l-.58,1.18-.6,1.18A10.1,10.1,0,0,0,413,91.2v2.38H410.6V91.2a9.15,9.15,0,0,1,1.18-3.56L413,85.28V84.09h-4.75Z"/><path class="cls-5" d="M488.79,121.65a2.09,2.09,0,0,1,1.77.77,2.6,2.6,0,0,1,.59,1.61v.58a2.43,2.43,0,0,1-.68,1.59,2.13,2.13,0,0,1-1.68.79h-2.37a2.15,2.15,0,0,1-1.69-.79,2.42,2.42,0,0,1-.69-1.59V124a2.59,2.59,0,0,1,.6-1.61,2.12,2.12,0,0,1,1.78-.77,3,3,0,0,1-1.78-.73,2.21,2.21,0,0,1-.6-1.64v-.58a2.4,2.4,0,0,1,2.38-2.37h2.38a2.26,2.26,0,0,1,1.66.7,2.29,2.29,0,0,1,.7,1.67v.58a2.22,2.22,0,0,1-.59,1.64A2.92,2.92,0,0,1,488.79,121.65Zm0-1.78v-1.18a1.19,1.19,0,0,0-1.19-1.19,1.14,1.14,0,0,0-.83.35,1.15,1.15,0,0,0-.35.85v1.18a1.19,1.19,0,0,0,1.18,1.18,1.15,1.15,0,0,0,.85-.35A1.14,1.14,0,0,0,488.79,119.87Zm0,4.74v-1.18a1.19,1.19,0,0,0-2.37,0v1.18a1.15,1.15,0,0,0,.35.85,1.14,1.14,0,0,0,.83.35,1.19,1.19,0,0,0,1.19-1.19Z"/><path class="cls-5" d="M543.46,135.35q-.14,1.18-1.19,1.18h-1.18a2.39,2.39,0,0,1-2.37-2.37v-2.36a2.4,2.4,0,0,1,2.38-2.37h2.38a2.26,2.26,0,0,1,1.66.7,2.29,2.29,0,0,1,.7,1.67v4.14a4.16,4.16,0,0,1-4.14,4.15h-1.78V138.9h1.18a2.39,2.39,0,0,0,2.38-2.37Zm-2.37-3.56v2.36a1.16,1.16,0,0,0,.35.84,1.12,1.12,0,0,0,.83.36,1.14,1.14,0,0,0,.85-.36,1.16,1.16,0,0,0,.35-.84v-2.36a1.19,1.19,0,0,0-1.19-1.19,1.12,1.12,0,0,0-.83.36A1.16,1.16,0,0,0,541.09,131.79Z"/><path class="cls-5" d="M562.44,68.81V60.52h-1.18V59.33l2.36-1.18h1.19V68.81Z"/><path class="cls-5" d="M572.26,58.15h2.38a2.26,2.26,0,0,1,1.66.7,2.29,2.29,0,0,1,.7,1.67v5.92a2.29,2.29,0,0,1-.7,1.67,2.26,2.26,0,0,1-1.66.7h-2.37a2.39,2.39,0,0,1-2.37-2.37V60.52a2.39,2.39,0,0,1,2.38-2.38Zm2.36,2.16a1.19,1.19,0,0,0-2.36.21v4Zm-2.33,6.33a1.23,1.23,0,0,0,.38.74,1.24,1.24,0,0,0,1.62-.1,1.16,1.16,0,0,0,.35-.84v-4Z"/><path class="cls-5" d="M276.15,140v-8.29H275v-1.19l2.36-1.18h1.19V140Z"/><path class="cls-5" d="M284.8,131.74H283.6q.28-2.37,2.38-2.37h2.38a2.26,2.26,0,0,1,1.66.7,2.3,2.3,0,0,1,.7,1.67v.58q0,1.24-2.29,3.2l-.16.13q-2.29,2-2.29,3.09v.11h4.74V140H283.6v-1.18q0-1.24,2.3-3.2l.16-.13q2.29-2,2.29-3.2v-.58a1.14,1.14,0,0,0-.36-.85,1.16,1.16,0,0,0-.84-.35H286Q284.88,130.55,284.8,131.74Z"/><path class="cls-5" d="M327.86,188v-8.29h-1.18v-1.19l2.36-1.18h1.19V188Z"/><path class="cls-5" d="M337.69,188v-8.29H336.5v-1.19l2.36-1.18h1.19V188Z"/></g></g></svg>