<?xml version="1.0" encoding="utf-8"?>
<!-- Generator: Adobe Illustrator 22.0.1, SVG Export Plug-In . SVG Version: 6.00 Build 0)  -->
<svg version="1.1" xmlns="http://www.w3.org/2000/svg" xmlns:xlink="http://www.w3.org/1999/xlink" x="0px" y="0px"
	 viewBox="0 0 216 144" style="enable-background:new 0 0 216 144;" xml:space="preserve">
<style type="text/css">
	.st0{fill:#F0D8D5;}
	.st1{fill:#E68173;}
	.st2{fill:#D1C7E0;}
	.st3{fill:#0D1050;}
</style>
<g id="Layer_1">
	<rect x="7.6" y="192.5" class="st0" width="81.6" height="70.5"/>
	<circle class="st0" cx="139.5" cy="227.7" r="68.9"/>
	<polygon class="st1" points="98.3,194.6 123.9,180.1 150.4,195.1 150.4,225.1 135,233.9 134.9,257.1 154.8,268.3 174.4,257.2 
		174.5,233.7 159.2,224.9 159.2,217.4 180.7,230.2 180.7,260.7 155,275.4 128.9,260.6 128.9,230.3 144,221.2 144.1,198.5 124.2,187 
		105,197.7 104.8,221.5 120,230.5 120,237.8 98.5,225.1 	"/>
	<polygon class="st1" points="124.6,196.6 112.6,203.5 112.6,217.4 124.6,224.3 136.6,217.4 136.6,203.5 	"/>
	<polygon class="st1" points="154.6,231.3 142.6,238.3 142.6,252.1 154.6,259 166.6,252.1 166.6,238.3 	"/>
	<rect x="20.2" y="36.8" class="st2" width="56.5" height="70.5"/>
	<circle class="st2" cx="127" cy="72" r="68.8"/>
	<polygon class="st3" points="85.9,38.9 111.4,24.4 137.9,39.4 137.9,69.4 122.5,78.2 122.4,101.3 142.3,112.5 161.9,101.4 
		162,77.9 146.7,69.1 146.7,61.7 168.1,74.4 168.1,105 142.5,119.6 116.4,104.9 116.4,74.6 131.5,65.5 131.6,42.8 111.7,31.3 
		92.5,42 92.3,65.8 107.5,74.7 107.5,82 86.1,69.3 	"/>
	<polygon class="st3" points="112.1,40.9 100.2,47.8 100.2,61.6 112.1,68.6 124.1,61.6 124.1,47.8 	"/>
	<polygon class="st3" points="142.1,75.6 130.1,82.5 130.1,96.3 142.1,103.2 154.1,96.3 154.1,82.5 	"/>
</g>
<g id="Layer_2">
</g>
</svg>
