<?xml version="1.0" encoding="utf-8"?>
<!-- Generator: Adobe Illustrator 22.0.1, SVG Export Plug-In . SVG Version: 6.00 Build 0)  -->
<svg version="1.1" id="Layer_1" xmlns="http://www.w3.org/2000/svg" xmlns:xlink="http://www.w3.org/1999/xlink" x="0px" y="0px"
	 viewBox="0 0 396 252" style="enable-background:new 0 0 396 252;" xml:space="preserve">
<style type="text/css">
	.st0{fill:#77D7FD;}
	.st1{clip-path:url(#SVGID_2_);fill:#20C0ED;}
	.st2{fill:#86DDFD;}
	.st3{fill:#9DE9FE;}
	.st4{clip-path:url(#SVGID_4_);fill:#B8ECFE;}
	.st5{fill:#1174BA;}
	.st6{fill:#93C3E6;}
	.st7{fill:none;stroke:#1174BA;stroke-width:0.75;stroke-miterlimit:10;}
	.st8{fill:#666666;}
	.st9{fill:none;stroke:#666666;stroke-width:0.75;stroke-miterlimit:10;}
	.st10{fill:#BFBFBF;}
	.st11{clip-path:url(#SVGID_6_);fill:#20C0ED;}
	.st12{fill:#1CA7CF;}
	.st13{fill:#606060;}
	.st14{fill:#808080;}
	.st15{fill:#B3B3B3;}
	.st16{fill:#E6E6E6;}
	.st17{fill:none;stroke:#E6E6E6;stroke-width:2;stroke-linecap:round;stroke-miterlimit:10;}
	.st18{clip-path:url(#SVGID_8_);fill:#1CA7CF;}
</style>
<path class="st0" d="M255.4,136.9c0,35-13.7,63.8-41.6,63.8c-4.8,0-9.5-0.9-14-2.5c0.1,0.4,0.1,0.8,0.2,1.2c1,0.5,1.7,1.1,2.2,1.7
	c0.6,0.6,2.2,2.3,2.4,4.7c0.2,5.1-6.8,8.8-7.8,9.4c-4.3,2.2-5.4,0.9-12.9,3.1c-6.3,1.9-6.8,3.2-10.2,3.1c-1.5-0.1-7.3-0.5-10.1-5.5
	c-1.9-3.3-1.8-7.5,0-10.5c0.6-1.1,1.9-2.7,6.2-4.7c0.9-0.4,1.7-0.8,2.6-1.1c-0.3-0.2-0.7-0.3-1-0.5c-4.9-2.5-14-7.4-21.1-17.6
	c-3.3-4.8-7.8-11.3-5.8-18.3c1.4-5,5.6-8.3,7-9.4c0.6-0.4,3.8-2.7,8.6-3.5c1.4-0.2,2.8-0.3,4.2-0.3c-0.7-4.1-1-8.4-1-12.8
	c0-35,22.7-63.3,50.6-63.3C241.7,74,255.4,101.9,255.4,136.9z"/>
<g>
	<defs>
		<path id="SVGID_1_" d="M150.2,182.2c0,44.3,16.9,81.7,61.2,81.7s74.1-36.3,80.1-80.2c4.1-29.9-50-82.2-76.9-82.2
			C184.8,101.6,150.2,137.9,150.2,182.2z"/>
	</defs>
	<clipPath id="SVGID_2_">
		<use xlink:href="#SVGID_1_"  style="overflow:visible;"/>
	</clipPath>
	<path class="st1" d="M164.5,137.5c0,35,21.8,63.3,48.8,63.3c4.7,0,9.2-0.9,13.5-2.5c-0.1,0.4-0.1,0.8-0.2,1.2
		c-0.9,0.5-1.6,1.1-2.2,1.7c-0.6,0.6-2.1,2.3-2.3,4.7c-0.2,5.1,6.5,8.8,7.5,9.4c4.1,2.2,5.2,0.9,12.4,3.1c6.1,1.9,6.5,3.2,9.8,3.1
		c1.4-0.1,7.1-0.5,9.8-5.5c1.8-3.3,1.8-7.5,0-10.5c-0.6-1.1-1.8-2.7-6-4.7c-0.8-0.4-1.7-0.8-2.5-1.1c0.3-0.2,0.6-0.3,1-0.5
		c4.7-2.5,13.5-7.4,20.3-17.6c3.2-4.8,7.5-11.3,5.6-18.3c-1.4-5-5.4-8.3-6.8-9.4c-0.6-0.4-3.7-2.7-8.3-3.5c-1.4-0.2-2.7-0.3-4-0.3
		c0.7-4.1,1-8.4,1-12.8c0-35-21.8-63.3-48.8-63.3C186.3,74.2,164.5,102.5,164.5,137.5z"/>
</g>
<path class="st0" d="M242.1,69.8c-1.8,2.9-5.2,4.8-10.3,8.6c-8.8,6.8-18,7.8-23.7,8.4c-5.1,0.6-13.3,1.4-22.5-2.3
	c-3.6-1.4-6.4-3.2-8.3-4.5c-0.2-3-0.4-6-0.6-9c0.3-5.9,0.5-11.9,0.8-17.8c0-0.5,0-1,0.1-1.5c-1.3-2.3-3.7-7.2-3.7-13.8
	c0-4.6,1.2-8.2,2.2-10.4c1.7-0.3,4.1-0.4,6.8,0c2.8,0.4,5.2,1.3,7,2.2c3.5-2.7,7.7-4.6,12.6-5.4c4.8-0.7,9.2-0.2,13.3,1.2
	c1.4-1.3,3.3-2.8,5.7-3.9c2.5-1.2,4.8-1.7,6.5-2c1.6,1.8,3.8,4.9,5.2,9.3c1.8,5.7,1.3,10.7,0.8,13.4c0.2,0.5,0.4,0.9,0.6,1.4
	c0.3,1.1,0.7,2.3,1,3.5C237.7,54.4,240.1,63,242.1,69.8z"/>
<path class="st2" d="M231.3,55.1c1.6,10.5-3.7,20-11.9,21.2c-3.5,0.5-6.9-0.5-9.8-2.6c-2.1,2.9-5.1,4.9-8.5,5.5
	c-8.2,1.3-16.2-6.2-17.8-16.7c-1.6-10.5,3.7-20,11.9-21.2c3.5-0.5,6.9,0.5,9.8,2.6c2.1-2.9,5.1-4.9,8.5-5.5
	C221.8,37.2,229.7,44.7,231.3,55.1z"/>
<path class="st3" d="M220.2,63.2c-0.2,2.6-0.8,6-2.4,9.8c-0.8,1.9-1.7,3.6-2.6,5c-1.6,0.6-3.1,1.2-4.7,1.9c-1.7-0.1-3.3-0.2-5-0.4
	c-1.3-1.1-2.6-2.4-4-4c-2.6-3.1-4.2-6.2-5.2-8.6c1.1-1,2.5-2.2,4.3-3.3c1.1-0.7,2.2-1.2,3.2-1.7c0,0,0,0,0,0c1-0.6,2.2-1,3.4-1.2
	c0,0,0,0,0,0c0,0,0,0,0,0c0.1,0,0.1,0,0.2,0c0.1,0,0.1,0,0.2,0c0,0,0,0,0,0c0,0,0,0,0,0c1.3-0.2,2.5-0.1,3.6,0.1c0,0,0,0,0,0
	c1.1,0.1,2.3,0.3,3.5,0.6C217.2,61.9,218.9,62.6,220.2,63.2z"/>
<g>
	<defs>
		
			<ellipse id="SVGID_3_" transform="matrix(0.9884 -0.1521 0.1521 0.9884 -6.8809 32.2994)" cx="207.7" cy="61.1" rx="14.9" ry="6.7"/>
	</defs>
	<clipPath id="SVGID_4_">
		<use xlink:href="#SVGID_3_"  style="overflow:visible;"/>
	</clipPath>
	<path class="st4" d="M220.2,63.2c-0.2,2.6-0.8,6-2.4,9.8c-0.8,1.9-1.7,3.6-2.6,5c-1.6,0.6-3.1,1.2-4.7,1.9c-1.7-0.1-3.3-0.2-5-0.4
		c-1.3-1.1-2.6-2.4-4-4c-2.6-3.1-4.2-6.2-5.2-8.6c1.1-1,2.5-2.2,4.3-3.3c1.1-0.7,2.2-1.2,3.2-1.7c0,0,0,0,0,0c1-0.6,2.2-1,3.4-1.2
		c0,0,0,0,0,0c0,0,0,0,0,0c0.1,0,0.1,0,0.2,0c0.1,0,0.1,0,0.2,0c0,0,0,0,0,0c0,0,0,0,0,0c1.3-0.2,2.5-0.1,3.6,0.1c0,0,0,0,0,0
		c1.1,0.1,2.3,0.3,3.5,0.6C217.2,61.9,218.9,62.6,220.2,63.2z"/>
</g>
<ellipse transform="matrix(0.9884 -0.1521 0.1521 0.9884 -7.3855 32.417)" class="st5" cx="208.2" cy="64.5" rx="4" ry="1.9"/>
<ellipse transform="matrix(0.143 -0.9897 0.9897 0.143 117.0532 262.2138)" class="st6" cx="209.9" cy="63.5" rx="0.5" ry="0.9"/>
<path class="st7" d="M214.7,72.9c-1.8-1.3-2.7-1.6-4.9-1.1"/>
<path class="st7" d="M205.9,74.9c1-2,1.7-2.6,3.9-3.1"/>
<ellipse transform="matrix(0.9681 -0.2504 0.2504 0.9681 -9.4056 50.9863)" class="st8" cx="195.7" cy="62.5" rx="1.6" ry="2.4"/>
<ellipse transform="matrix(0.9986 -5.229600e-02 5.229600e-02 0.9986 -2.7741 11.5589)" class="st8" cx="219.5" cy="58.8" rx="1.6" ry="2.4"/>
<path class="st9" d="M191,60c0.9-2,1.6-2.7,3.7-3.3"/>
<path class="st9" d="M222.8,53.6c-1.5-1.7-2.3-2.1-4.6-2.1"/>
<path class="st3" d="M185.4,34c-0.6-0.5-1.8-1.3-3.4-1.6c-1.2-0.3-2.3-0.2-2.9-0.1c-0.5,1.5-1.2,4.6,0.1,7.7c0.2,0.5,0.5,1,0.8,1.5
	C181.7,39,183.5,36.5,185.4,34z"/>
<path class="st3" d="M221.1,28.5c0.4-0.6,1.3-1.7,2.8-2.6c1.1-0.6,2.1-0.9,2.8-1c0.9,1.3,2.5,4,2.2,7.4c0,0.6-0.1,1.1-0.3,1.6
	C226.1,32.1,223.6,30.3,221.1,28.5z"/>
<circle class="st10" cx="219.6" cy="60" r="0.7"/>
<circle class="st10" cx="195.9" cy="63.5" r="0.7"/>
<g>
	<defs>
		<path id="SVGID_5_" d="M279.1,182.2c0,44.3-17.5,81.7-63.5,81.7s-83.1-35.9-83.1-80.2s50.5-86.2,79.1-87
			C231.5,96.1,279.1,137.9,279.1,182.2z"/>
	</defs>
	<clipPath id="SVGID_6_">
		<use xlink:href="#SVGID_5_"  style="overflow:visible;"/>
	</clipPath>
	<path class="st11" d="M258.7,137.3c5.3,34.6-17,63.3-44.9,63.3c-4.8,0-9.5-0.9-14-2.5c0.1,0.4,0.1,0.8,0.2,1.2
		c1,0.5,1.7,1.1,2.2,1.7c0.6,0.6,2.2,2.3,2.4,4.7c0.2,5.1-6.8,8.8-7.8,9.4c-4.3,2.2-5.4,0.9-12.9,3.1c-6.3,1.9-6.8,3.2-10.2,3.1
		c-1.5-0.1-7.3-0.5-10.1-5.5c-1.9-3.3-1.8-7.5,0-10.5c0.6-1.1,1.9-2.7,6.2-4.7c0.9-0.4,1.7-0.8,2.6-1.1c-0.3-0.2-0.7-0.3-1-0.5
		c-4.9-2.5-14-7.4-21.1-17.6c-3.3-4.8-7.8-11.3-5.8-18.3c1.4-5,5.6-8.3,7-9.4c0.6-0.4,3.8-2.7,8.6-3.5c1.4-0.2,2.8-0.3,4.2-0.3
		c-0.7-4.1,1.5-4.6,3.7-12.6c6.5-23.8,26.6-35.4,41.1-36.5C223.8,99.9,256.7,124.1,258.7,137.3z"/>
</g>
<path class="st12" d="M164.2,150.1c4.2,1,9.7,2.8,15.6,6.3c3.7,2.2,18.7,11.6,21.1,13.7c-7.8-7.6-20.3-18.6-17.7-30.3
	c-6.7-0.8-13.4-1.5-20.1-2.3c0,1.6,0,3.3,0.2,5.1C163.5,145.3,163.8,147.8,164.2,150.1z"/>
<g>
	<path class="st13" d="M202.8,139.5c0.4-0.9,1.2-1.7,2.2-2.2"/>
	<g>
		<path class="st13" d="M203.4,139.9c0.4-0.8,1-1.5,1.9-1.9c0.9-0.4,0.1-1.7-0.8-1.3c-1.1,0.5-1.9,1.4-2.4,2.4
			C201.7,140,203,140.7,203.4,139.9L203.4,139.9z"/>
	</g>
</g>
<g>
	<path class="st13" d="M220.1,137.4c-1-0.2-1.9-0.5-2.8-1"/>
	<g>
		<path class="st13" d="M220.3,136.7c-0.9-0.2-1.8-0.5-2.6-0.9c-0.8-0.5-1.6,0.8-0.8,1.3c0.9,0.5,1.9,0.9,3,1.1
			C220.8,138.3,221.2,136.9,220.3,136.7L220.3,136.7z"/>
	</g>
</g>
<g>
	<g>
		<path class="st5" d="M203.4,144.5c-0.3-1.2-0.1-2.4,0.5-3.5c1-1.7-1.6-3.2-2.6-1.5c-1,1.8-1.3,3.8-0.8,5.8
			C201,147.2,203.9,146.4,203.4,144.5L203.4,144.5z"/>
	</g>
</g>
<g>
	<g>
		<path class="st5" d="M225.2,142.8c-0.4-2.7-2.2-5.1-4.6-6.4c-1.7-0.9-3.2,1.7-1.5,2.6c1.8,1,2.9,2.6,3.2,4.6
			c0.1,0.8,1.1,1.2,1.8,1C225,144.5,225.4,143.6,225.2,142.8L225.2,142.8z"/>
	</g>
</g>
<g>
	<g>
		<path class="st5" d="M232,157.2c4.8,5.1,11.8,5.4,18.4,5.4c10.8,0.1,21.8-0.3,32.5,1.2c18.7,2.5,38.6,12.2,42.3,32.5
			c0.3,1.9,3.2,1.1,2.9-0.8c-3.1-16.9-17.7-27.9-33.5-32.4c-9.6-2.7-19.6-3.3-29.6-3.4c-5.5-0.1-11.1,0-16.6-0.1
			c-5.2-0.1-10.6-0.5-14.4-4.5C232.8,153.6,230.7,155.8,232,157.2L232,157.2z"/>
	</g>
</g>
<g>
	<g>
		<path class="st5" d="M194.9,158.3c-12.5,12.8-31.6,15-47.6,21.2c-15.7,6.2-30.3,14.9-42.3,26.9c-1.4,1.4,0.8,3.5,2.1,2.1
			c13.2-13.2,29.6-22.3,47.2-28.4c14.9-5.1,31.2-8,42.7-19.7C198.3,159,196.2,156.9,194.9,158.3L194.9,158.3z"/>
	</g>
</g>
<path class="st5" d="M329.9,203h-5.7c-0.5,0-0.9-0.4-0.9-0.9v-2.9c0-2.1,1.7-3.8,3.8-3.8l0,0c2.1,0,3.8,1.7,3.8,3.8v2.9
	C330.8,202.6,330.4,203,329.9,203z"/>
<path class="st13" d="M335.2,205.9h-28.6c-0.8,0-1.4-0.6-1.4-1.4l0,0c0-0.8,0.6-1.4,1.4-1.4h28.6c0.8,0,1.4,0.6,1.4,1.4l0,0
	C336.6,205.2,336,205.9,335.2,205.9z"/>
<path class="st14" d="M94.4,172.3l-50,13.9c-0.7,0.2-1.1,0.9-0.9,1.6l8.8,32c0.2,0.7,0.9,1.1,1.6,0.9l50-13.9
	c0.7-0.2,1.1-0.9,0.9-1.6l-8.8-32C95.8,172.5,95.1,172.1,94.4,172.3z"/>
<path class="st8" d="M104,205.8l-49.3,13.8c-1,0.3-1,1.7,0,1.9l22.5,5c0.2,0,0.3,0,0.5,0l49.3-13.8c1-0.3,1-1.7,0-1.9l-22.5-5
	C104.4,205.7,104.2,205.7,104,205.8z"/>
<path class="st15" d="M92.4,175l-45,12.5c-0.6,0.2-1,0.8-0.8,1.4l7.8,28.1c0.2,0.6,0.8,1,1.4,0.8l45-12.5c0.6-0.2,1-0.8,0.8-1.4
	l-7.8-28.1C93.7,175.2,93,174.9,92.4,175z"/>
<path class="st16" d="M68.8,199.5L68.8,199.5c-1,0.3-2.1-0.4-2.4-1.4l-1.6-6.2c-0.3-1,0.4-2.1,1.4-2.4v0c1-0.3,2.1,0.4,2.4,1.4
	l1.6,6.2C70.5,198.1,69.8,199.2,68.8,199.5z"/>
<path class="st16" d="M82,196.1L82,196.1c-1,0.3-2.1-0.4-2.4-1.4l-1.6-6.2c-0.3-1,0.4-2.1,1.4-2.4l0,0c1-0.3,2.1,0.4,2.4,1.4
	l1.6,6.2C83.7,194.7,83.1,195.8,82,196.1z"/>
<path class="st17" d="M72,208.2c-0.8-2.9,1.4-5.9,4.8-6.8"/>
<path class="st17" d="M84.3,204.9c-0.8-2.9-4.1-4.4-7.5-3.5"/>
<path class="st0" d="M187.6,82.9c-5.9,2.4-12.8,6.3-19.2,12.6c-4.9,4.8-11.8,11.6-13.1,22.1c0,0.2-0.5,3.8,0.1,7.5
	c2.5,17.4,24.9,28.7,27.9,30.2c0.5,0.7,4,5.6,10.5,6.3c5.8,0.6,9.9-2.5,11.2-3.5c1.7-1.3,3.4-2.6,3.9-4.9c0.8-4.2-3.4-7.6-3.9-8.1
	c-0.8-0.6-3.7-3-7.6-2.3c-2.4,0.4-4,1.8-4.7,2.5c-1.7-2.3-4.1-5.8-6.8-10.1c-7.6-12.2-7.8-15.7-7.7-17.3c0.2-4.6,2.6-6.2,5.3-11.5
	C185.9,101.5,188.3,94,187.6,82.9z"/>
<path class="st5" d="M176.4,204.5c-2.8-1-5.8,0-7.4,2.4c-1.5,2.2-1.4,5,0,7.1c2.1,3,6.1,2.5,7.1,2.4c1.8-0.3,3-1.2,3.7-1.7
	C178.7,211.2,177.5,207.9,176.4,204.5z"/>
<path class="st12" d="M172,199.9c2.6-0.8,6.1-1.7,9.9-2c2.5-0.2,4.7-0.1,6.7,0c-8.1-0.9-16.2-1.7-24.4-2.6
	C166.4,196.9,169.3,198.5,172,199.9z"/>
<path class="st0" d="M232.3,80.3c6,2.1,13.1,5.6,19.8,11.5c5.2,4.5,12.4,10.9,14.3,21.4c0,0.2,0.7,3.8,0.3,7.5
	c-1.5,17.5-23.3,30-26.2,31.7c-0.5,0.8-3.7,5.8-10.2,6.9c-5.8,1-10-1.9-11.3-2.9c-1.8-1.2-3.6-2.5-4.2-4.7c-1-4.1,2.9-7.8,3.5-8.3
	c0.7-0.7,3.5-3.2,7.4-2.7c2.5,0.3,4.1,1.6,4.8,2.2c1.5-2.4,3.8-6,6.2-10.4c6.9-12.6,6.9-16.1,6.7-17.7c-0.4-4.6-2.9-6-5.9-11.2
	C235,98.7,232.1,91.3,232.3,80.3z"/>
<g>
	<defs>
		<path id="SVGID_7_" d="M264.3,137.3c0,35-22.7,63.3-50.6,63.3c-4.8,0-9.5-0.9-14-2.5c0.1,0.4,0.1,0.8,0.2,1.2
			c1,0.5,1.7,1.1,2.2,1.7c0.6,0.6,2.2,2.3,2.4,4.7c0.2,5.1-6.8,8.8-7.8,9.4c-4.3,2.2-5.4,0.9-12.9,3.1c-6.3,1.9-6.8,3.2-10.2,3.1
			c-1.5-0.1-7.3-0.5-10.1-5.5c-1.9-3.3-1.8-7.5,0-10.5c0.6-1.1,1.9-2.7,6.2-4.7c0.9-0.4,1.7-0.8,2.6-1.1c-0.3-0.2-0.7-0.3-1-0.5
			c-4.9-2.5-14-7.4-21.1-17.6c-3.3-4.8-7.8-11.3-5.8-18.3c1.4-5,5.6-8.3,7-9.4c0.6-0.4,3.8-2.7,8.6-3.5c1.4-0.2,2.8-0.3,4.2-0.3
			c-0.7-4.1-1-8.4-1-12.8c0-35,22.7-63.3,50.6-63.3C241.7,74,264.3,102.4,264.3,137.3z"/>
	</defs>
	<clipPath id="SVGID_8_">
		<use xlink:href="#SVGID_7_"  style="overflow:visible;"/>
	</clipPath>
	<path class="st18" d="M179,173.4c6.4,5.1,14.7,13.1,20.9,24.8c1.8,3.4,8.9,2.8,10,5.9c6.7-0.3,2.1-1.5,8.7-1.8c0.9-3,7.4-1,8.2-4
		c4.2-5.7,9.5-11.9,16.3-18c2.5-2.3,5.1-4.4,7.5-6.2c-8.8,4.5-16.2,7.9-21.8,10.3c-7,3-9.7,3.9-13.4,4c-3.6,0.1-7.2-0.6-16.9-4.9
		C193.5,181.2,186.7,177.9,179,173.4z"/>
</g>
<path class="st5" d="M248.1,204.5c2.8-1,5.8,0,7.4,2.4c1.5,2.2,1.4,5,0,7.1c-2.1,3-6.1,2.5-7.1,2.4c-1.8-0.3-3-1.2-3.7-1.7
	C245.8,211.2,246.9,207.9,248.1,204.5z"/>
</svg>
