<?xml version="1.0" encoding="utf-8"?>
<!-- Generator: Adobe Illustrator 22.0.1, SVG Export Plug-In . SVG Version: 6.00 Build 0)  -->
<svg version="1.1" id="Layer_1" xmlns="http://www.w3.org/2000/svg" xmlns:xlink="http://www.w3.org/1999/xlink" x="0px" y="0px"
	 viewBox="0 0 1000 1000" style="enable-background:new 0 0 1000 1000;" xml:space="preserve">
<style type="text/css">
	.st0{fill:#77D7FD;}
	.st1{fill:#86DDFD;}
	.st2{fill:#9DE9FE;}
	.st3{clip-path:url(#SVGID_2_);fill:#B8ECFE;}
	.st4{fill:#1174BA;}
	.st5{fill:#93C3E6;}
	.st6{fill:none;stroke:#1174BA;stroke-width:6;stroke-miterlimit:10;}
	.st7{fill:#666666;}
	.st8{fill:none;stroke:#666666;stroke-width:6;stroke-miterlimit:10;}
</style>
<path class="st0" d="M965.3,784.1c-30.9,37-83.7,55.8-162.7,99.1C664.2,959,533,953.7,452.2,950.4c-72.4-2.9-189.4-9-311.4-81.4
	c-47.3-28-82.4-58.3-106.1-81.4c3.5-42.5,7.1-85,10.6-127.4c16.5-82.8,33-165.7,49.6-248.4c1.4-6.8,2.7-13.6,4.1-20.4
	c-13.5-34.7-36.8-109-21.8-201.9C87.5,125.2,112.3,76.9,130.2,48c24.6,0,58,2.7,95.5,14.2c38.9,11.9,70,29.4,93,45.6
	c55.1-30,118.4-48.4,187.9-48.3c68.7,0.1,130.1,17.3,183.4,45.6c22.5-15.4,52.3-31.8,89.1-43c37.6-11.5,71-14.2,95.6-14.2
	c18,28.9,42.7,77.2,53.1,141.6c13.5,83.7-4.2,152.5-17.6,190.5c2,7.1,3.8,14.1,5.2,21c2.3,16.3,4.7,33.3,7,50.8
	C936.9,558.8,951.1,684.5,965.3,784.1z"/>
<path class="st1" d="M845,555.5c0,150.3-95.5,272.2-213.3,272.2c-49.7,0-95.5-21.7-131.7-58.1c-36.2,36.4-82,58.1-131.7,58.1
	C250.4,827.6,155,705.8,155,555.5c0-150.2,95.5-272.1,213.3-272.1c49.7,0,95.5,21.7,131.7,58.2c36.2-36.5,82-58.2,131.7-58.2
	C749.5,283.4,845,405.2,845,555.5z"/>
<path class="st2" d="M671.1,645c-8.7,36.2-24.6,82.6-54.7,132c-15.3,25-31.6,46.3-47.1,64.4c-23.2,5.3-46.2,10.7-69.3,16
	c-23.2-5.3-46.2-10.7-69.3-16c-15.5-18.1-31.8-39.4-47.1-64.4c-30.1-49.3-46-95.7-54.7-132c16.9-11.9,39.4-25.6,67.8-37.6
	c16.8-7,33.1-12.3,48.3-16.3c0.1,0,0.3-0.1,0.4-0.1c15.7-5.9,32.9-9.4,50.8-9.8c0.2,0,0.3,0,0.5-0.1c0.1,0,0.2,0,0.3,0.1
	c1-0.1,2-0.1,2.9-0.1c1,0,2,0,2.9,0.1c0.1-0.1,0.2-0.1,0.3-0.1c0.2,0.1,0.3,0.1,0.5,0.1c17.9,0.4,35.1,3.9,50.8,9.8
	c0.1,0,0.3,0.1,0.4,0.1c15.1,4,31.3,9.3,48.2,16.3C631.7,619.3,654.2,633,671.1,645z"/>
<g>
	<defs>
		<ellipse id="SVGID_1_" cx="500" cy="588.2" rx="212.2" ry="95.7"/>
	</defs>
	<clipPath id="SVGID_2_">
		<use xlink:href="#SVGID_1_"  style="overflow:visible;"/>
	</clipPath>
	<path class="st3" d="M671.1,645c-8.7,36.2-24.6,82.6-54.7,132c-15.3,25-31.6,46.3-47.1,64.4c-23.2,5.3-46.2,10.7-69.3,16
		c-23.2-5.3-46.2-10.7-69.3-16c-15.5-18.1-31.8-39.4-47.1-64.4c-30.1-49.3-46-95.7-54.7-132c16.9-11.9,39.4-25.6,67.8-37.6
		c16.8-7,33.1-12.3,48.3-16.3c0.1,0,0.3-0.1,0.4-0.1c15.7-5.9,32.9-9.4,50.8-9.8c0.2,0,0.3,0,0.5-0.1c0.1,0,0.2,0,0.3,0.1
		c1-0.1,2-0.1,2.9-0.1c1,0,2,0,2.9,0.1c0.1-0.1,0.2-0.1,0.3-0.1c0.2,0.1,0.3,0.1,0.5,0.1c17.9,0.4,35.1,3.9,50.8,9.8
		c0.1,0,0.3,0.1,0.4,0.1c15.1,4,31.3,9.3,48.2,16.3C631.7,619.3,654.2,633,671.1,645z"/>
</g>
<ellipse class="st4" cx="500" cy="636.4" rx="56.5" ry="27.6"/>
<ellipse transform="matrix(0.2919 -0.9564 0.9564 0.2919 -226.3897 947.7527)" class="st5" cx="526.9" cy="626.8" rx="6.4" ry="13.4"/>
<path class="st6" d="M435.6,735.3c20.4,24,32.2,30.6,64.4,30.6"/>
<path class="st6" d="M564.4,735.3c-20.4,24-32.2,30.6-64.4,30.6"/>
<line class="st6" x1="425.5" y1="745.3" x2="445.6" y2="725.2"/>
<line class="st6" x1="574.5" y1="745.3" x2="554.4" y2="725.2"/>
<ellipse transform="matrix(0.995 -0.1002 0.1002 0.995 -56.5801 35.8861)" class="st7" cx="328.9" cy="581.1" rx="22.4" ry="34"/>
<ellipse transform="matrix(0.1002 -0.995 0.995 0.1002 25.7245 1190.5781)" class="st7" cx="671.1" cy="581.1" rx="34" ry="22.4"/>
<path class="st8" d="M269,536.1c17.1-26.4,27.9-34.6,59.8-38.9"/>
<path class="st8" d="M727,536.1c-17.1-26.4-27.9-34.6-59.8-38.9"/>
<path class="st2" d="M246,159.1c-7.5-8-22.2-21.4-44.8-29.9c-16.6-6.2-31.3-7.4-41.1-7.5c-10,20.3-26.2,61.6-14.9,108.3
	c2,8.2,4.5,15.6,7.5,22.4C183.8,221.4,214.9,190.3,246,159.1z"/>
<path class="st2" d="M759.6,159.1c7.5-8,22.2-21.4,44.8-29.9c16.6-6.2,31.3-7.4,41.1-7.5c10,20.3,26.2,61.6,14.9,108.3
	c-2,8.2-4.5,15.6-7.5,22.4C821.9,221.4,790.8,190.3,759.6,159.1z"/>
</svg>
