<?xml version="1.0" encoding="utf-8"?>
<!-- Generator: Adobe Illustrator 22.0.1, SVG Export Plug-In . SVG Version: 6.00 Build 0)  -->
<svg version="1.1" xmlns="http://www.w3.org/2000/svg" xmlns:xlink="http://www.w3.org/1999/xlink" x="0px" y="0px"
	 viewBox="0 0 96 96" style="enable-background:new 0 0 96 96;" xml:space="preserve">
<style type="text/css">
	.st0{display:none;}
	.st1{display:inline;fill:#F0D8D5;}
	.st2{display:inline;fill:#D1C7E0;}
	.st3{display:inline;fill:#533E87;}
	.st4{display:inline;fill:#0F1152;}
	.st5{display:inline;fill:#7D5BBD;}
	.st6{display:inline;fill:#432F73;}
	.st7{display:inline;fill:#C76FB2;}
	.st8{display:inline;fill:#731A50;}
	.st9{display:inline;fill:#E68476;}
	.st10{display:inline;fill:#963674;}
	.st11{display:inline;}
	.st12{fill:#0F1152;}
	.st13{fill:#E68476;}
	.st14{fill:#F0D8D5;}
	.st15{font-family:'HamurzFreeVersion';}
	.st16{font-size:21.246px;}
</style>
<g id="Layer_7" class="st0">
	<rect x="-23.3" y="-26.6" class="st1" width="526.9" height="158.7"/>
	<rect x="51.5" y="-124" class="st1" width="56.6" height="56.6"/>
	<rect x="-5.2" y="-124" class="st2" width="56.6" height="56.6"/>
	<rect x="201.3" y="-126.9" class="st3" width="31.2" height="31.2"/>
	<rect x="139" y="-126.9" class="st4" width="31.2" height="31.2"/>
	<rect x="232.5" y="-126.9" class="st5" width="31.2" height="31.2"/>
	<rect x="170.1" y="-126.9" class="st6" width="31.2" height="31.2"/>
	<rect x="201.3" y="-95.7" class="st7" width="31.2" height="31.2"/>
	<rect x="139" y="-95.7" class="st8" width="31.2" height="31.2"/>
	<rect x="232.5" y="-95.7" class="st9" width="31.2" height="31.2"/>
	<rect x="170.1" y="-95.7" class="st10" width="31.2" height="31.2"/>
</g>
<g id="Workshops" class="st0">
	<g id="Layer_2" class="st11">
	</g>
	<path class="st4" d="M83.3,22.3L53.4,5C50,3.1,46,3.1,42.6,5l-30,17.3c-3.3,1.9-5.4,5.5-5.4,9.3v34.6c0,3.8,2,7.4,5.4,9.3l30,17.3
		c3.3,1.9,7.4,1.9,10.7,0l30-17.3c3.3-1.9,5.4-5.5,5.4-9.3V31.6C88.7,27.7,86.7,24.2,83.3,22.3z"/>
	<path class="st2" d="M73.3,48.8c0,0.5-0.2,1-0.5,1.3l-1.4,1.4c-0.7,0.7-1.9,0.7-2.6,0L62,44.8l-8.6,8.6l12,12
		c1.5,1.5,1.5,3.9,0,5.4c-1.5,1.5-3.9,1.5-5.4,0l-12-12l-12,12c-1.5,1.5-3.9,1.5-5.4,0c-1.5-1.5-1.5-3.9,0-5.4l12-12L34,44.8
		l-6.7,6.7c-0.7,0.7-1.9,0.7-2.6,0l-1.4-1.4c-0.4-0.3-0.5-0.8-0.5-1.3l0-10.9c0-0.5,0.2-1,0.5-1.3l10.3-10.3c0.7-0.7,1.9-0.7,2.6,0
		l6.9,6.9c0.7,0.7,0.7,1.9,0,2.6l-3.7,3.7L48,48l8.6-8.6l-3.7-3.7c-0.7-0.7-0.7-1.9,0-2.6l6.9-6.9c0.7-0.7,1.9-0.7,2.6,0l10.3,10.3
		c0.4,0.4,0.6,0.8,0.5,1.3L73.3,48.8z"/>
</g>
<g id="Map" class="st0">
	<path class="st4" d="M479.3,20.6l-30-17.3c-3.3-1.9-7.4-1.9-10.7,0l-30,17.3c-3.3,1.9-5.4,5.5-5.4,9.3v34.6c0,3.8,2,7.4,5.4,9.3
		l30,17.3c3.3,1.9,7.4,1.9,10.7,0l30-17.3c3.3-1.9,5.4-5.5,5.4-9.3V29.9C484.6,26.1,482.6,22.5,479.3,20.6z"/>
	<path class="st2" d="M434.4,53.8c-0.2,0.2-0.5,0.1-0.7,0c-0.2-0.2-0.1-0.5,0-0.7l2.4-2.2c0.1-0.1,0.3-0.1,0.5-0.1V36.6l-15.1-12
		c-1.8-1.4-4.4-0.1-4.4,2.1v32.6c0,0.9,0.5,1.8,1.3,2.3l18.2,11.6V51.7L434.4,53.8z M426.7,52.6l-0.9,0.9l0.5,1.1
		c0.5,1,0.2,2.4-0.5,3.1c-0.8,0.8-1.8,0.6-2.2-0.4l-0.5-1.1l-0.9,0.9c-0.8,0.8-1.8,0.6-2.2-0.4c-0.5-1-0.2-2.4,0.5-3.1l0.9-0.9
		l-0.5-1.1c-0.5-1-0.2-2.4,0.5-3.1c0.3-0.3,0.7-0.5,1-0.5c0.5,0,0.9,0.3,1.2,0.8l0.5,1.1l0.9-0.9c0.3-0.3,0.7-0.5,1-0.5
		c0.5,0,0.9,0.3,1.2,0.8C427.7,50.5,427.5,51.9,426.7,52.6z M431.6,55l-3.3,0.2c-0.3,0-0.5-0.2-0.5-0.4c0-0.3,0.2-0.5,0.4-0.5
		l3.3-0.2c0.3,0,0.5,0.2,0.5,0.4C432,54.7,431.8,55,431.6,55z"/>
	<path class="st2" d="M449.4,37.9c-0.2-0.2-0.2-0.5,0-0.7c0.2-0.2,0.5-0.2,0.7,0l1.1,1.1V21.2l-14.4,15.4v14.2
		c0.1,0,0.1,0.1,0.2,0.1c0.2,0.2,0.1,0.5,0,0.7l-0.1,0.1v21.5l14.4-12.4V39.6L449.4,37.9z M440.3,46.8l-2,2.6
		c-0.2,0.2-0.4,0.2-0.6,0.1c-0.2-0.2-0.2-0.4-0.1-0.6l2-2.6c0.2-0.2,0.4-0.2,0.6-0.1C440.4,46.3,440.4,46.6,440.3,46.8z M442.9,41.1
		l-1.5,2.9c-0.1,0.2-0.4,0.3-0.6,0.2c-0.2-0.1-0.3-0.4-0.2-0.6l1.5-2.9c0.1-0.2,0.4-0.3,0.6-0.2C442.9,40.6,443,40.8,442.9,41.1z
		 M447,36.8l-2.7,1.8c-0.2,0.1-0.5,0.1-0.6-0.1c-0.1-0.2-0.1-0.5,0.1-0.6l2.7-1.8c0.2-0.1,0.5-0.1,0.6,0.1
		C447.2,36.4,447.2,36.7,447,36.8z"/>
	<path class="st2" d="M469.2,35.5l-18.1-14.3v17.1l1.2,1.2c0.2,0.2,0.2,0.5,0,0.7s-0.5,0.2-0.7,0l-0.6-0.6v21.2l13.8,8.8
		c2.5,1.6,5.7-0.2,5.7-3.1V38.4C470.6,37.3,470.1,36.2,469.2,35.5z M452.8,45.6v-3.3c0-0.3,0.2-0.5,0.5-0.5c0.3,0,0.5,0.2,0.5,0.5
		v3.3c0,0.3-0.2,0.5-0.5,0.5C453,46,452.8,45.8,452.8,45.6z M455.2,52c-0.2,0.1-0.5,0-0.6-0.2l-1.3-3c-0.1-0.2,0-0.5,0.2-0.6
		c0.2-0.1,0.5,0,0.6,0.2l1.3,3C455.6,51.6,455.5,51.9,455.2,52z M460.1,54.8l-3.2-0.6c-0.2-0.1-0.4-0.3-0.4-0.5
		c0.1-0.2,0.3-0.4,0.5-0.4l3.2,0.6c0.2,0.1,0.4,0.3,0.4,0.5C460.5,54.7,460.3,54.9,460.1,54.8z M465.1,51.8l-2.7,1.8
		c-0.2,0.1-0.5,0.1-0.6-0.1c-0.1-0.2-0.1-0.5,0.1-0.6l2.7-1.8c0.2-0.1,0.5-0.1,0.6,0.1C465.3,51.4,465.3,51.7,465.1,51.8z
		 M467.4,49.8c-1,0-1.7-0.8-1.7-1.7c0-1,0.8-1.7,1.7-1.7c1,0,1.7,0.8,1.7,1.7C469.2,49,468.4,49.8,467.4,49.8z"/>
</g>
<g id="HackGT" class="st0">
	<path class="st4" d="M380.3,22.3L350.3,5c-3.3-1.9-7.4-1.9-10.7,0l-30,17.3c-3.3,1.9-5.4,5.5-5.4,9.3v34.6c0,3.8,2,7.4,5.4,9.3
		l30,17.3c3.3,1.9,7.4,1.9,10.7,0l30-17.3c3.3-1.9,5.4-5.5,5.4-9.3V31.6C385.7,27.7,383.6,24.2,380.3,22.3z"/>
	<polygon class="st2" points="320.5,29.2 335.7,20.6 351.4,29.5 351.4,47.3 342.3,52.5 342.2,66.3 354,73 365.7,66.4 365.7,52.4 
		356.7,47.2 356.7,42.8 369.4,50.3 369.4,68.5 354.2,77.2 338.6,68.4 338.6,50.4 347.6,45 347.7,31.5 335.9,24.7 324.5,31.1 
		324.3,45.2 333.4,50.5 333.4,54.8 320.6,47.3 	"/>
	<polygon class="st2" points="336.1,30.4 329,34.5 329,42.7 336.1,46.8 343.2,42.7 343.2,34.5 	"/>
	<polygon class="st2" points="353.9,51 346.8,55.1 346.8,63.3 353.9,67.4 361,63.3 361,55.1 	"/>
</g>
<g id="Schedule" class="st0">
	<path class="st4" d="M281.3,21.4l-30-17.3c-3.3-1.9-7.4-1.9-10.7,0l-30,17.3c-3.3,1.9-5.4,5.5-5.4,9.3v34.6c0,3.8,2,7.4,5.4,9.3
		l30,17.3c3.3,1.9,7.4,1.9,10.7,0l30-17.3c3.3-1.9,5.4-5.5,5.4-9.3V30.7C286.7,26.9,284.6,23.3,281.3,21.4z"/>
	<path class="st2" d="M261.2,29.3h-30.8c-5.2,0-9.4,4.2-9.4,9.4v24.5c0,5.2,4.2,9.4,9.4,9.4h30.8c5.2,0,9.4-4.2,9.4-9.4V38.6
		C270.5,33.5,266.3,29.3,261.2,29.3z M237,66.8h-7.4v-7.4h7.4V66.8z M237.1,54.7h-7.4v-7.4h7.4V54.7z M249.4,66.7H242v-7.4h7.4V66.7
		z M249.5,54.6h-7.4v-7.4h7.4V54.6z M261.9,66.8h-7.4v-7.4h7.4V66.8z M262,54.7h-7.4v-7.4h7.4V54.7z"/>
	<path class="st2" d="M270.5,38.6v2.7H221v-2.7c0-5.2,4.2-9.4,9.4-9.4v-2.7c0-1.7,1.4-3,3-3c0.8,0,1.6,0.3,2.2,0.9
		c0.5,0.6,0.9,1.3,0.9,2.2v2.7h18.8v-2.7c0-1.7,1.4-3,3-3c0.8,0,1.6,0.3,2.2,0.9c0.6,0.6,0.9,1.3,0.9,2.2v2.7
		C266.4,29.4,270.5,33.6,270.5,38.6z"/>
</g>
<g id="Sponsor_API" class="st0">
	<path class="st4" d="M182.3,21.4l-30-17.3c-3.3-1.9-7.4-1.9-10.7,0l-30,17.3c-3.3,1.9-5.4,5.5-5.4,9.3v34.6c0,3.8,2,7.4,5.4,9.3
		l30,17.3c3.3,1.9,7.4,1.9,10.7,0l30-17.3c3.3-1.9,5.4-5.5,5.4-9.3V30.7C187.7,26.9,185.6,23.3,182.3,21.4z"/>
	<path class="st2" d="M154.7,71.1c0-3.3,2.7-6,6-6c2,0,3.8,1,4.9,2.5c4-3.8,6.8-8.9,7.9-14.5c-3.1-0.2-5.5-2.8-5.5-6
		c0-3,2.2-5.5,5.1-6c-1.2-4.6-3.6-8.7-6.8-12c-1.1,1.7-2.9,2.8-5.1,2.8c-3.3,0-6-2.7-6-6c0-1.2,0.4-2.4,1-3.3
		c-2.9-1.1-6-1.6-9.3-1.6c-2.9,0-5.8,0.5-8.4,1.3c0.4,0.8,0.7,1.8,0.7,2.8c0,3.3-2.7,6-6,6c-2.1,0-3.9-1-5-2.6
		c-3.7,3.6-6.4,8.2-7.6,13.4c3,0.3,5.3,2.9,5.3,6c0,3.1-2.4,5.7-5.4,6c1.2,5.3,3.9,10.1,7.7,13.7c1.1-1.5,2.9-2.5,4.9-2.5
		c3.3,0,6,2.7,6,6c0,1-0.2,1.9-0.6,2.7c2.6,0.9,5.5,1.3,8.4,1.3s5.7-0.5,8.4-1.3C155,72.9,154.7,72,154.7,71.1z"/>
	<text transform="matrix(1 0 0 1 137.2171 55.0846)" class="st4 st15 st16">api</text>
</g>
<g id="Layer_8" class="st0">
	<path class="st9" d="M83.3,21.4l-30-17.3C50,2.2,46,2.2,42.6,4.1l-30,17.3c-3.3,1.9-5.4,5.5-5.4,9.3v34.6c0,3.8,2,7.4,5.4,9.3
		l30,17.3c3.3,1.9,7.4,1.9,10.7,0l30-17.3c3.3-1.9,5.4-5.5,5.4-9.3V30.7C88.7,26.9,86.7,23.3,83.3,21.4z"/>
	<path class="st1" d="M73.3,47.9c0,0.5-0.2,1-0.5,1.3l-1.4,1.4c-0.7,0.7-1.9,0.7-2.6,0L62,44l-8.6,8.6l12,12c1.5,1.5,1.5,3.9,0,5.4
		c-1.5,1.5-3.9,1.5-5.4,0L48,58L36,70c-1.5,1.5-3.9,1.5-5.4,0c-1.5-1.5-1.5-3.9,0-5.4l12-12L34,44l-6.7,6.7c-0.7,0.7-1.9,0.7-2.6,0
		l-1.4-1.4c-0.4-0.3-0.5-0.8-0.5-1.3l0-10.9c0-0.5,0.2-1,0.5-1.3l10.3-10.3c0.7-0.7,1.9-0.7,2.6,0l6.9,6.9c0.7,0.7,0.7,1.9,0,2.6
		l-3.7,3.7l8.6,8.6l8.6-8.6l-3.7-3.7c-0.7-0.7-0.7-1.9,0-2.6l6.9-6.9c0.7-0.7,1.9-0.7,2.6,0l10.3,10.3c0.4,0.4,0.6,0.8,0.5,1.3
		L73.3,47.9z"/>
</g>
<g id="Layer_9">
	<path class="st13" d="M83.3,21.4l-30-17.3C50,2.2,46,2.2,42.6,4.1l-30,17.3c-3.3,1.9-5.4,5.5-5.4,9.3v34.6c0,3.8,2,7.4,5.4,9.3
		l30,17.3c3.3,1.9,7.4,1.9,10.7,0l30-17.3c3.3-1.9,5.4-5.5,5.4-9.3V30.7C88.7,26.9,86.7,23.3,83.3,21.4z"/>
	<path class="st14" d="M55.8,71.1c0-3.3,2.7-6,6-6c2,0,3.8,1,4.9,2.5c4-3.8,6.8-8.9,7.9-14.5c-3.1-0.2-5.5-2.8-5.5-6
		c0-3,2.2-5.5,5.1-6c-1.2-4.6-3.6-8.7-6.8-12c-1.1,1.7-2.9,2.8-5.1,2.8c-3.3,0-6-2.7-6-6c0-1.2,0.4-2.4,1-3.3
		c-2.9-1.1-6-1.6-9.3-1.6c-2.9,0-5.8,0.5-8.4,1.3c0.4,0.8,0.7,1.8,0.7,2.8c0,3.3-2.7,6-6,6c-2.1,0-3.9-1-5-2.6
		c-3.7,3.6-6.4,8.2-7.6,13.4c3,0.3,5.3,2.9,5.3,6c0,3.1-2.4,5.7-5.4,6c1.2,5.3,3.9,10.1,7.7,13.7c1.1-1.5,2.9-2.5,4.9-2.5
		c3.3,0,6,2.7,6,6c0,1-0.2,1.9-0.6,2.7c2.6,0.9,5.5,1.3,8.4,1.3s5.7-0.5,8.4-1.3C56,72.9,55.8,72,55.8,71.1z"/>
</g>
<g id="Layer_10" class="st0">
	<path class="st9" d="M283.4,21.4l-30-17.3c-3.3-1.9-7.4-1.9-10.7,0l-30,17.3c-3.3,1.9-5.4,5.5-5.4,9.3v34.6c0,3.8,2,7.4,5.4,9.3
		l30,17.3c3.3,1.9,7.4,1.9,10.7,0l30-17.3c3.3-1.9,5.4-5.5,5.4-9.3V30.7C288.8,26.9,286.8,23.3,283.4,21.4z"/>
	<path class="st1" d="M263.3,29.3h-30.8c-5.2,0-9.4,4.2-9.4,9.4v24.5c0,5.2,4.2,9.4,9.4,9.4h30.8c5.2,0,9.4-4.2,9.4-9.4V38.6
		C272.6,33.5,268.4,29.3,263.3,29.3z M239.1,66.8h-7.4v-7.4h7.4V66.8z M239.2,54.7h-7.4v-7.4h7.4V54.7z M251.5,66.7h-7.4v-7.4h7.4
		V66.7z M251.6,54.6h-7.4v-7.4h7.4V54.6z M264,66.8h-7.4v-7.4h7.4V66.8z M264.1,54.7h-7.4v-7.4h7.4V54.7z"/>
	<path class="st1" d="M272.6,38.6v2.7h-49.5v-2.7c0-5.2,4.2-9.4,9.4-9.4v-2.7c0-1.7,1.4-3,3-3c0.8,0,1.6,0.3,2.2,0.9
		c0.5,0.6,0.9,1.3,0.9,2.2v2.7h18.8v-2.7c0-1.7,1.4-3,3-3c0.8,0,1.6,0.3,2.2,0.9c0.6,0.6,0.9,1.3,0.9,2.2v2.7
		C268.5,29.4,272.6,33.6,272.6,38.6z"/>
</g>
<g id="Layer_11" class="st0">
	<path class="st9" d="M384.6,21.4l-30-17.3c-3.3-1.9-7.4-1.9-10.7,0l-30,17.3c-3.3,1.9-5.4,5.5-5.4,9.3v34.6c0,3.8,2,7.4,5.4,9.3
		l30,17.3c3.3,1.9,7.4,1.9,10.7,0l30-17.3c3.3-1.9,5.4-5.5,5.4-9.3V30.7C389.9,26.9,387.9,23.3,384.6,21.4z"/>
	<polygon class="st1" points="324.8,28.3 339.9,19.7 355.7,28.6 355.7,46.5 346.5,51.7 346.5,65.4 358.3,72.1 369.9,65.5 370,51.5 
		360.9,46.3 360.9,41.9 373.7,49.5 373.7,67.6 358.4,76.3 342.9,67.5 342.9,49.5 351.9,44.1 351.9,30.6 340.1,23.8 328.7,30.2 
		328.6,44.3 337.6,49.6 337.6,54 324.9,46.4 	"/>
	<polygon class="st1" points="340.4,29.5 333.2,33.6 333.2,41.8 340.4,45.9 347.5,41.8 347.5,33.6 	"/>
	<polygon class="st1" points="358.2,50.1 351.1,54.2 351.1,62.5 358.2,66.6 365.3,62.5 365.3,54.2 	"/>
</g>
<g id="Layer_12" class="st0">
	<path class="st9" d="M485.8,24.3L455.8,7c-3.3-1.9-7.4-1.9-10.7,0l-30,17.3c-3.3,1.9-5.4,5.5-5.4,9.3v34.6c0,3.8,2,7.4,5.4,9.3
		l30,17.3c3.3,1.9,7.4,1.9,10.7,0l30-17.3c3.3-1.9,5.4-5.5,5.4-9.3V33.6C491.1,29.7,489.1,26.2,485.8,24.3z"/>
	<path class="st1" d="M440.9,57.5c-0.2,0.2-0.5,0.1-0.7,0c-0.2-0.2-0.1-0.5,0-0.7l2.4-2.2c0.1-0.1,0.3-0.1,0.5-0.1V40.3l-15.1-12
		c-1.8-1.4-4.4-0.1-4.4,2.1V63c0,0.9,0.5,1.8,1.3,2.3l18.2,11.6V55.4L440.9,57.5z M433.2,56.3l-0.9,0.9l0.5,1.1
		c0.5,1,0.2,2.4-0.5,3.1c-0.8,0.8-1.8,0.6-2.2-0.4l-0.5-1.1l-0.9,0.9c-0.8,0.8-1.8,0.6-2.2-0.4c-0.5-1-0.2-2.4,0.5-3.1l0.9-0.9
		l-0.5-1.1c-0.5-1-0.2-2.4,0.5-3.1c0.3-0.3,0.7-0.5,1-0.5c0.5,0,0.9,0.3,1.2,0.8l0.5,1.1l0.9-0.9c0.3-0.3,0.7-0.5,1-0.5
		c0.5,0,0.9,0.3,1.2,0.8C434.2,54.1,434,55.5,433.2,56.3z M438.1,58.6l-3.3,0.2c-0.3,0-0.5-0.2-0.5-0.4c0-0.3,0.2-0.5,0.4-0.5
		l3.3-0.2c0.3,0,0.5,0.2,0.5,0.4C438.5,58.4,438.3,58.6,438.1,58.6z"/>
	<path class="st1" d="M455.9,41.6c-0.2-0.2-0.2-0.5,0-0.7s0.5-0.2,0.7,0l1.1,1.1V24.9l-14.4,15.4v14.2c0.1,0,0.1,0.1,0.2,0.1
		c0.2,0.2,0.1,0.5,0,0.7l-0.1,0.1v21.5l14.4-12.4V43.3L455.9,41.6z M446.8,50.5l-2,2.6c-0.2,0.2-0.4,0.2-0.6,0.1
		c-0.2-0.2-0.2-0.4-0.1-0.6l2-2.6c0.2-0.2,0.4-0.2,0.6-0.1C446.9,50,446.9,50.3,446.8,50.5z M449.4,44.7l-1.5,2.9
		c-0.1,0.2-0.4,0.3-0.6,0.2c-0.2-0.1-0.3-0.4-0.2-0.6l1.5-2.9c0.1-0.2,0.4-0.3,0.6-0.2C449.4,44.2,449.5,44.5,449.4,44.7z
		 M453.5,40.5l-2.7,1.8c-0.2,0.1-0.5,0.1-0.6-0.1c-0.1-0.2-0.1-0.5,0.1-0.6l2.7-1.8c0.2-0.1,0.5-0.1,0.6,0.1
		C453.7,40.1,453.7,40.4,453.5,40.5z"/>
	<path class="st1" d="M475.7,39.2l-18.1-14.3V42l1.2,1.2c0.2,0.2,0.2,0.5,0,0.7s-0.5,0.2-0.7,0l-0.6-0.6v21.2l13.8,8.8
		c2.5,1.6,5.7-0.2,5.7-3.1V42.1C477.1,41,476.6,39.9,475.7,39.2z M459.3,49.3V46c0-0.3,0.2-0.5,0.5-0.5c0.3,0,0.5,0.2,0.5,0.5v3.3
		c0,0.3-0.2,0.5-0.5,0.5C459.5,49.7,459.3,49.5,459.3,49.3z M461.7,55.7c-0.2,0.1-0.5,0-0.6-0.2l-1.3-3c-0.1-0.2,0-0.5,0.2-0.6
		c0.2-0.1,0.5,0,0.6,0.2l1.3,3C462.1,55.3,462,55.6,461.7,55.7z M466.6,58.5l-3.2-0.6c-0.2-0.1-0.4-0.3-0.4-0.5
		c0.1-0.2,0.3-0.4,0.5-0.4l3.2,0.6c0.2,0.1,0.4,0.3,0.4,0.5C467,58.4,466.8,58.5,466.6,58.5z M471.6,55.5l-2.7,1.8
		c-0.2,0.1-0.5,0.1-0.6-0.1c-0.1-0.2-0.1-0.5,0.1-0.6l2.7-1.8c0.2-0.1,0.5-0.1,0.6,0.1C471.8,55.1,471.8,55.4,471.6,55.5z
		 M473.9,53.5c-1,0-1.7-0.8-1.7-1.7c0-1,0.8-1.7,1.7-1.7c1,0,1.7,0.8,1.7,1.7C475.7,52.7,474.9,53.5,473.9,53.5z"/>
</g>
</svg>
