<?xml version="1.0" encoding="UTF-8"?>
<svg width="82px" height="92px" viewBox="0 0 82 92" version="1.1" xmlns="http://www.w3.org/2000/svg" xmlns:xlink="http://www.w3.org/1999/xlink">
    <!-- Generator: Sketch 47.1 (45422) - http://www.bohemiancoding.com/sketch -->
    <title>points</title>
    <desc>Created with Sketch.</desc>
    <defs></defs>
    <g id="Page-1" stroke="none" stroke-width="1" fill="none" fill-rule="evenodd">
        <g id="points">
            <path d="M76.3,19.4 L46.3,2.1 C43,0.2 39,0.2 35.6,2.1 L5.6,19.4 C2.3,21.3 0.2,24.9 0.2,28.7 L0.2,63.3 C0.2,67.1 2.2,70.7 5.6,72.6 L35.6,89.9 C38.9,91.8 43,91.8 46.3,89.9 L76.3,72.6 C79.6,70.7 81.7,67.1 81.7,63.3 L81.7,28.7 C81.7,24.9 79.7,21.3 76.3,19.4 Z" id="Shape" fill="#E68476" fill-rule="nonzero"></path>
            <g id="stripes" transform="translate(15.000000, 19.000000)" fill="#F0D8D5">
                <rect id="Rectangle" x="8" y="3" width="3" height="49" rx="1.5"></rect>
                <rect id="Rectangle" transform="translate(25.809398, 25.809398) rotate(-45.000000) translate(-25.809398, -25.809398) " x="24.3093975" y="-9.19060249" width="3" height="70" rx="1.5"></rect>
                <rect id="Rectangle" x="19" y="3" width="3" height="49" rx="1.5"></rect>
                <rect id="Rectangle" x="30" y="3" width="3" height="49" rx="1.5"></rect>
                <rect id="Rectangle" x="41" y="3" width="3" height="49" rx="1.5"></rect>
            </g>
        </g>
    </g>
</svg>